<?xml version="1.0" standalone="no"?>
<!DOCTYPE svg PUBLIC "-//W3C//DTD SVG 1.1//EN" "http://www.w3.org/Graphics/SVG/1.1/DTD/svg11.dtd" >
<svg xmlns="http://www.w3.org/2000/svg" xmlns:xlink="http://www.w3.org/1999/xlink" version="1.1">
<metadata>
Created by FontForge 20170731 at Tue Mar 23 05:47:14 2021
 By Aleksey,,,
Copyright (c) 2019 by Valerio Monopoli. All rights reserved.
</metadata>
<defs>
<font id="Gatwick-Bold" horiz-adv-x="0" >
  <font-face 
    font-family="Gatwick"
    font-weight="700"
    font-stretch="normal"
    units-per-em="2048"
    panose-1="0 0 8 0 0 0 0 0 0 0"
    ascent="1638"
    descent="-410"
    x-height="1102"
    cap-height="1526"
    bbox="-1235 -727 4291 2165"
    underline-thickness="40"
    underline-position="-204"
    unicode-range="U+0020-25CA"
  />
<missing-glyph horiz-adv-x="1024" 
d="M840 1638v-2048h-650v2048h650zM682 1501h-338v-67h133v-76h-135v-68h340v68h-135v76h135v67zM547 1237h-205v-213h340v70h-135v143zM477 1167v-73h-67v73h67zM682 969h-340v-68h135v-76h-135v-67h205v143h135v68zM682 846h-68v-135h-272v-70h340v205zM682 596h-205v-115
h70v47h67v-96h-204v164h-68v-231h340v231zM682 242h-340v-232h340v232zM614 174v-96h-204v96h204zM682 -37h-340v-67h143l-143 -97v-67h340v67h-209l143 97h66v67z" />
    <glyph glyph-name="T_V.liga" unicode="TV" horiz-adv-x="3540" 
d="M743 0q14 231 17.5 609t-4.5 685q-417 -6 -736 -55q24 143 0 287q510 -9 1061 -8t936 8q126 -337 288.5 -724.5t262.5 -580.5q133 270 561 1305q192 -23 383 0q-310 -631 -678 -1526h-546q-260 657 -547 1260q-288 31 -625 34q-8 -316 -3 -686t20 -608h-390z" />
    <glyph glyph-name="T_W.liga" unicode="TW" horiz-adv-x="4319" 
d="M20 1239q24 143 0 287q472 -10 909.5 -10t1116.5 10q159 -635 364 -1348q197 715 316 1348q255 -24 510 0q147 -741 317 -1346q154 543 359 1346q191 -24 379 0q-30 -74 -61 -160.5t-70 -206.5l-65 -200t-75 -242t-67.5 -224.5t-76 -256.5t-69.5 -236h-530
q-183 885 -295 1264q-111 -385 -295 -1264h-547q-16 53 -60 203.5t-65 222t-61 204.5t-67.5 220.5t-62.5 197t-67 201.5q-294 40 -641 45q-8 -314 -3 -685.5t20 -608.5h-390q14 231 17.5 609t-4.5 685q-417 -6 -736 -55z" />
    <glyph glyph-name="f_f.liga" unicode="ff" horiz-adv-x="2142" 
d="M2128 1102q-11 -110 0 -221q-116 9 -567 16q5 -592 26 -897h-360q22 327 22 899q-429 0 -626 -2q5 -590 26 -897h-362q24 357 24 893q-222 -6 -309 -12q6 44 6 110.5t-6 110.5q87 -6 305 -12q0 14 -0.5 36.5t-1.5 63t-2 76.5q-1 93 21.5 163t60.5 113.5t95 70t117 36.5
t134 10q104 0 219 -19t172 -36q-22 -104 0 -230q-127 58 -258 58q-59 0 -101 -8.5t-68.5 -32.5t-41 -45.5t-21 -71t-8 -83.5t-1.5 -106q197 -2 624 -2q0 13 -0.5 36.5t-1.5 65.5t-2 81q-1 93 21.5 163t60.5 113t94.5 70t116.5 37t133 10q106 0 221 -19t172 -36
q-22 -104 0 -230q-127 58 -260 58q-70 0 -116 -16t-71 -38.5t-37 -74t-14.5 -93.5t-2.5 -125q434 7 567 17z" />
    <glyph glyph-name="f_f_i.liga" unicode="ffi" horiz-adv-x="2545" 
d="M2 881q6 44 6 110.5t-6 110.5q137 -12 305 -15l-4 179q-1 93 21.5 163t60.5 113.5t95 70t117 36.5t134 10q104 0 219 -19t172 -36q-22 -104 0 -230q-127 58 -258 58q-70 0 -117.5 -16t-72 -35.5t-36.5 -63.5t-13.5 -73.5t-1.5 -91.5v-17v-56q188 -2 624 -2l-6 189
q-2 93 24 163t70.5 113.5t111.5 70t137.5 36.5t158.5 10q255 0 588 -55q-22 -104 0 -230q-257 58 -490 58q-82 0 -137 -15.5t-83 -35.5t-42 -64t-16 -73.5t-2 -90.5v-18v-56q457 6 868 23q-36 -552 0 -1102h-352q30 464 12 897l-528 6q0 -475 24 -903h-360q22 341 22 836v67
q-222 0 -624 -4q4 -553 26 -899h-362q24 372 24 836v57q-263 -8 -309 -12z" />
    <glyph glyph-name="f_i.liga" unicode="fi" horiz-adv-x="1609" 
d="M1491 1102q-39 -552 0 -1102h-352q30 464 12 897q-221 8 -530 8q5 -596 26 -905h-360q22 327 22 899q-184 -6 -307 -18q6 44 6 110.5t-6 110.5q125 -13 305 -19q0 13 -0.5 36t-1.5 65t-2 82q-2 93 24 163t70 113.5t110.5 70t137 36.5t158.5 10q271 0 598 -55
q-22 -104 0 -230q-252 58 -498 58q-60 0 -104.5 -8.5t-74.5 -20t-50 -39.5t-30.5 -49t-15.5 -67.5t-6 -77t-1 -93.5q562 -3 870 25z" />
    <glyph glyph-name="f_t.liga" unicode="ft" horiz-adv-x="2183" 
d="M2138 270q-26 -123 -6 -231q-211 -64 -393 -64q-96 1 -175 21t-146.5 64.5t-105.5 125.5t-38 193q0 293 -6 520q-442 0 -645 -2q5 -590 26 -897h-362q24 357 24 893q-227 -7 -309 -12q6 44 6 110.5t-6 110.5q83 -5 307 -12q-3 56 -6 176q-1 93 21.5 163t60.5 113.5t95 70
t117 36.5t134 10q104 0 219 -19t172 -36q-22 -104 0 -230q-127 58 -258 58q-59 0 -101 -8.5t-68.5 -32.5t-41 -45.5t-21 -71t-8 -83.5t-1.5 -106q201 -2 639 -2q-6 180 -23 332q232 24 350 82q-2 -67 -5 -205.5t-5 -204.5q387 3 543 15q-11 -110 0 -221q-141 11 -547 14
q-3 -108 -8 -369q-8 -307 260 -311q101 -2 311 55z" />
    <glyph glyph-name="k_w.liga" unicode="kw" horiz-adv-x="3461" 
d="M3090 1104q177 -38 363 0q-244 -572 -428 -1104h-420q-129 494 -235 846q-132 -462 -234 -846h-420q-135 395 -352 922q-86 -99 -218 -182.5t-288 -137.5q8 -9 85.5 -98.5t102.5 -117.5t94.5 -103.5t109.5 -114t97 -87.5t105 -81h-469q-38 73 -98 152.5t-152 191.5
t-153 193q-76 -11 -127 -13q5 -268 24 -524h-360q35 299 35 780.5t-35 761.5q242 12 387 68q-64 -320 -53 -992q118 13 239.5 83.5t215 178t130.5 224.5q299 -24 623 0q20 -72 61 -232t85.5 -310t113.5 -351q137 452 248 893q228 -35 418 0q128 -507 247 -893
q86 283 258 893z" />
    <glyph glyph-name="t_f.liga" unicode="tf" horiz-adv-x="2134" 
d="M1862 1432q-36 0 -65 -3t-51.5 -11.5t-40.5 -17t-31 -25.5t-22 -30.5t-15 -39t-9.5 -44t-5 -52.5t-2 -57.5t-0.5 -64.5q282 3 479 15q-10 -109 0 -221q-178 11 -479 14q5 -574 27 -895h-363q25 372 25 899q-490 0 -715 -2q-1 -74 -4 -200t-4 -171q-1 -88 18 -150
t56.5 -96t83 -49t104.5 -16q99 -2 309 55q-26 -125 -4 -231q-211 -64 -395 -64q-76 1 -141 13t-125.5 41t-103 74t-68 115.5t-25.5 160.5q0 289 -6 514q-211 -7 -297 -12q6 44 6 110.5t-6 110.5q83 -5 291 -12q-11 219 -23 325q232 24 350 82q-2 -68 -5 -207t-5 -205
q221 -2 705 -2q0 15 -2 73.5t-3 109.5q-1 93 21.5 163t61 113t95.5 70t117 37t134 10q104 0 219 -19t172 -36q-22 -104 0 -230q-127 58 -258 58z" />
    <glyph glyph-name="t_t.liga" unicode="tt" horiz-adv-x="2160" 
d="M2114 270q-27 -127 -5 -231q-211 -64 -395 -64q-76 1 -141 13t-125.5 41t-103 74t-68 115.5t-25.5 160.5q0 293 -6 520q-446 0 -651 -2q-1 -74 -4 -200t-4 -171q-1 -88 18 -150t56.5 -96t83 -49t104.5 -16q99 -2 309 55q-26 -125 -4 -231q-211 -64 -395 -64
q-76 1 -141 13t-125.5 41t-103 74t-68 115.5t-25.5 160.5q0 289 -6 514q-211 -7 -297 -12q6 44 6 110.5t-6 110.5q83 -5 291 -12q-11 219 -23 325q232 24 350 82q-2 -68 -5 -207t-5 -205q201 -2 639 -2q-12 240 -22 332q232 24 350 82q-2 -70 -5.5 -210t-5.5 -202
q411 7 549 17q-10 -109 0 -221q-120 9 -555 16q-1 -74 -4 -200t-4 -171q-1 -88 18 -150t56.5 -96t83 -49t104.5 -16q100 -2 310 55z" />
    <glyph glyph-name=".notdef" horiz-adv-x="1024" 
d="M840 1638v-2048h-650v2048h650zM682 1501h-338v-67h133v-76h-135v-68h340v68h-135v76h135v67zM547 1237h-205v-213h340v70h-135v143zM477 1167v-73h-67v73h67zM682 969h-340v-68h135v-76h-135v-67h205v143h135v68zM682 846h-68v-135h-272v-70h340v205zM682 596h-205v-115
h70v47h67v-96h-204v164h-68v-231h340v231zM682 242h-340v-232h340v232zM614 174v-96h-204v96h204zM682 -37h-340v-67h143l-143 -97v-67h340v67h-209l143 97h66v67z" />
    <glyph glyph-name=".null" 
 />
    <glyph glyph-name="nonmarkingreturn" horiz-adv-x="682" 
 />
    <glyph glyph-name="space" unicode=" " horiz-adv-x="614" 
 />
    <glyph glyph-name="exclam" unicode="!" horiz-adv-x="634" 
d="M156 440q14 519 -52 1086q214 -25 428 0q-65 -566 -51 -1086q-93 18 -161 18t-164 -18zM315 -27q-192 0 -192 144q0 143 192 143q197 0 197 -143q0 -144 -197 -144z" />
    <glyph glyph-name="quotedbl" unicode="&#x22;" horiz-adv-x="897" 
d="M229 1077q-15 278 -53 561q132 -18 273 0q-46 -295 -66 -561q-75 6 -154 0zM504 1077q-15 278 -53 561q133 -18 270 0q-42 -270 -64 -561q-77 6 -153 0z" />
    <glyph glyph-name="numbersign" unicode="#" horiz-adv-x="1697" 
d="M1634 977q-270 4 -395 4l-111 -451q58 0 371 5q-10 -60 0 -117q-270 4 -395 4q-17 -70 -100 -422h-123l104 424h-440q-31 -125 -101 -424h-122l104 422q-117 0 -363 -4q7 57 0 117q327 -5 390 -5q18 75 53.5 225.5t54.5 225.5q-116 0 -362 -4q7 59 0 119q262 -4 389 -4
q9 39 45 191t55 235q60 -7 123 0q-17 -71 -53 -214t-53 -214h442q22 88 100 428q62 -7 123 0q-98 -401 -104 -426q118 0 368 4q-7 -60 0 -119zM1012 528l110 455h-444q-78 -322 -109 -455h443z" />
    <glyph glyph-name="dollar" unicode="$" horiz-adv-x="1957" 
d="M1831 426q0 -224 -190.5 -335t-575.5 -114l6 -172q-99 12 -199 0l7 179q-381 25 -729 163q28 76 28 171.5t-28 170.5q105 -100 304.5 -162.5t432.5 -82.5l6 428q-388 12 -577 113.5t-189 312.5q0 448 752 454l-7 181q99 -12 199 0q-4 -126 -8 -185q124 -7 230.5 -23.5
t262 -49.5t199.5 -41q-30 -72 -29.5 -145.5t29.5 -174.5q-364 154 -698 182l-6 -424q385 -16 582.5 -122t197.5 -324zM434 1094q0 -109 106.5 -158.5t352.5 -58.5l-6 428q-240 0 -346.5 -49.5t-106.5 -161.5zM1073 236q238 0 346.5 50t108.5 154q0 119 -113.5 169t-363.5 59
l6 -432h16z" />
    <glyph glyph-name="percent" unicode="%" horiz-adv-x="2078" 
d="M522 752q-203 0 -326.5 108t-123.5 297q0 187 124 295.5t326 108.5q203 0 326 -108.5t123 -295.5q0 -189 -122.5 -297t-326.5 -108zM1591 1518q47 -6 118 -6t118 6q-93 -105 -330.5 -370t-358.5 -402t-305.5 -350.5t-334.5 -395.5q-47 6 -118 6t-118 -6
q102 114 328.5 367.5t353 396.5t311 356t336.5 398zM520 887q112 0 173 69.5t61 194.5t-61 194.5t-173 69.5q-106 0 -166.5 -70t-60.5 -194t60.5 -194t166.5 -70zM1556 -39q-204 0 -326 108t-122 298q0 187 121.5 294t326.5 107q203 0 327 -107.5t124 -293.5
q0 -189 -124 -297.5t-327 -108.5zM1554 96q110 0 172 70t62 194q0 125 -62 195t-172 70q-107 0 -167 -70t-60 -195t60 -194.5t167 -69.5z" />
    <glyph glyph-name="ampersand" unicode="&#x26;" horiz-adv-x="2056" 
d="M82 401q0 158 136 251t384 108v28q-79 8 -148.5 29.5t-132.5 60.5t-100 104.5t-37 150.5q0 195 188.5 304t520.5 109q194 0 396 -39.5t372 -111.5q-36 -151 4 -326q-182 108 -382 168.5t-374 60.5q-187 0 -284 -58t-97 -163q0 -46 16 -82.5t54 -68.5t98.5 -53.5
t153 -33.5t213.5 -12q231 0 517.5 23.5t432.5 52.5q-29 -140 6 -285q-387 69 -739 99v-29q122 -21 215.5 -49t167.5 -68t113 -95t39 -124q0 -177 -235 -277t-652 -100q-399 0 -622.5 111.5t-223.5 314.5zM461 457q0 -123 125.5 -190.5t349.5 -67.5q233 0 363.5 67t130.5 187
q0 122 -132 191t-366 69q-221 0 -346 -68t-125 -188z" />
    <glyph glyph-name="quotesingle" unicode="'" horiz-adv-x="497" 
d="M156 1077q-18 279 -62 561q151 -18 309 0q-50 -282 -71 -561q-90 6 -176 0z" />
    <glyph glyph-name="parenleft" unicode="(" horiz-adv-x="745" 
d="M477 -379q-149 203 -229 466.5t-80 528.5q0 268 80.5 528t228.5 437q106 -12 211 0q-139 -147 -225 -422.5t-86 -542.5q0 -264 85 -540t226 -455q-105 12 -211 0z" />
    <glyph glyph-name="parenright" unicode=")" horiz-adv-x="745" 
d="M57 -379q141 180 226.5 455.5t85.5 539.5q0 267 -86.5 542.5t-225.5 422.5q107 -12 211 0q148 -177 229 -437t81 -528q0 -265 -80.5 -528.5t-229.5 -466.5q-104 12 -211 0z" />
    <glyph glyph-name="asterisk" unicode="*" horiz-adv-x="1148" 
d="M676 1198q152 -163 272 -268q-98 -35 -176 -113q-77 140 -199 313q-115 -159 -200 -313q-78 78 -178 113q120 103 274 268q-205 51 -379 74q61 93 66 184q187 -88 350 -147q-15 228 -60 360q133 -23 240 0q-26 -116 -49 -360q170 60 356 147q8 -95 66 -184
q-173 -23 -383 -74z" />
    <glyph glyph-name="plus" unicode="+" horiz-adv-x="1212" 
d="M1126 815q-14 -72 0 -151q-156 4 -452 8q0 -177 10 -402q-87 14 -164 0q8 185 8 402q-290 -4 -442 -8q14 79 0 151q203 -8 442 -8q0 214 -8 399q77 -14 164 0q-10 -228 -10 -399q247 0 452 8z" />
    <glyph glyph-name="comma" unicode="," horiz-adv-x="577" 
d="M94 121q0 143 195 143q99 0 146.5 -38.5t47.5 -127.5q0 -90 -70 -193.5t-165 -195.5q-44 11 -96 2q115 153 143 269q-201 -3 -201 141z" />
    <glyph glyph-name="hyphen" unicode="-" horiz-adv-x="1021" 
d="M956 668q-4 -28 -4 -78.5t4 -75.5q-448 16 -888 0q5 24 4.5 75.5t-6.5 78.5q443 -19 890 0z" />
    <glyph glyph-name="period" unicode="." horiz-adv-x="577" 
d="M289 -20q-195 0 -195 143t195 143q194 0 194 -143t-194 -143z" />
    <glyph glyph-name="slash" unicode="/" horiz-adv-x="860" 
d="M692 1632q71 -8 139 0q-32 -94 -163 -471.5t-188.5 -543.5t-151 -430t-160.5 -445h-139q71 202 193.5 539t233.5 654t236 697z" />
    <glyph glyph-name="zero" unicode="0" horiz-adv-x="1894" 
d="M948 -31q-254 0 -446.5 95t-300 277t-107.5 427q0 240 107.5 420t300.5 275.5t446 95.5t445.5 -95.5t299.5 -275.5t107 -420q0 -245 -107 -427t-299.5 -277t-445.5 -95zM944 197q222 0 351.5 150t129.5 409q0 257 -129.5 406t-351.5 149q-219 0 -347 -149t-128 -406
q0 -259 128 -409t347 -150z" />
    <glyph glyph-name="one" unicode="1" horiz-adv-x="1026" 
d="M25 846q22 152 0 291q99 16 194.5 69t167 138.5t88.5 181.5q211 -31 371 0q-18 -267 -17.5 -724t21.5 -802h-381q25 399 25 1266h-25q-6 -56 -42 -123.5t-93 -130.5t-139 -109.5t-170 -56.5z" />
    <glyph glyph-name="two" unicode="2" horiz-adv-x="1751" 
d="M66 0q26 131 0 262q1200 216 1200 686q0 164 -129.5 254t-350.5 90q-176 0 -362 -63t-346 -166q42 150 0 326q332 165 745 165q200 0 354.5 -40t250 -112t144 -168t48.5 -212q0 -92 -36.5 -179t-120.5 -173.5t-209.5 -159t-314.5 -134t-425 -100.5v-30q863 0 1165 92
q-13 -113 -13 -187.5t13 -150.5h-1613z" />
    <glyph glyph-name="three" unicode="3" horiz-adv-x="1867" 
d="M911 -27q-223 0 -452.5 45.5t-343.5 124.5q22 143 0 310q87 -100 328 -174t468 -74q213 0 328 59.5t115 169.5q0 56 -28.5 98t-76.5 68.5t-120 43.5t-150.5 23.5t-175.5 6.5q-53 0 -116 -4t-143.5 -10t-131.5 -9q13 103 0 207q216 -18 325 -18q158 0 269.5 19.5t170.5 55
t84 77.5t25 95q0 61 -32.5 103t-92.5 63.5t-126.5 30t-151.5 8.5q-471 0 -756 -186q17 71 18 154.5t-16 156.5q164 61 379 96t405 35q227 0 391 -42t257.5 -131.5t93.5 -219.5q0 -86 -42 -155.5t-111 -113t-145.5 -69t-156.5 -33.5v-26q263 -15 415 -109.5t152 -257.5
q0 -92 -50 -165.5t-132 -120t-195 -77t-231 -43t-248 -12.5z" />
    <glyph glyph-name="four" unicode="4" horiz-adv-x="1882" 
d="M1874 504q-13 -114 0 -228q-177 8 -399 11q7 -196 14 -287h-389q9 119 12 289q-609 0 -1063 -15q24 138 0 277q182 123 534.5 462t506.5 529q2 0 5 -1t5 -1v2q192 -24 385 0q-28 -451 -15 -1069q217 9 404 31zM322 467q416 -7 794 -2q6 374 -4 762z" />
    <glyph glyph-name="five" unicode="5" horiz-adv-x="1808" 
d="M111 143q25 163 0 326q89 -104 323 -183t455 -79q211 0 340 61.5t129 171.5q0 71 -54 123.5t-149 82.5t-215 46.5t-260.5 17t-276.5 -7.5t-272 -24q25 424 0 848q759 -24 1516 0q-13 -92 -13 -184t13 -146q-491 80 -1190 80q-17 -212 0 -451q115 28 235 46t245.5 22.5
t240 -6t216 -42t176 -82t118 -131t43.5 -183.5q0 -102 -46 -183.5t-123.5 -135.5t-185 -90t-225.5 -51.5t-250 -15.5q-227 0 -450.5 45t-339.5 125z" />
    <glyph glyph-name="six" unicode="6" horiz-adv-x="1902" 
d="M94 737q0 390 243 604.5t691 214.5q365 0 686 -149q-17 -82 -16.5 -149t16.5 -168q-113 96 -285.5 158.5t-361.5 62.5q-101 0 -194.5 -19.5t-181 -60.5t-151 -105.5t-104.5 -155.5t-43 -209.5t35 -266.5h29q-3 241 154 372t474 131q108 0 208 -15.5t194.5 -52t163.5 -91
t111 -139t42 -189.5q0 -96 -32 -176t-90.5 -137.5t-135.5 -100.5t-171.5 -68.5t-193.5 -38t-206 -12.5q-147 0 -271.5 22t-239.5 76.5t-195 139.5t-127.5 218t-47.5 304zM520 510q0 -139 121 -216t338 -77t339 76.5t122 214.5q0 134 -122.5 211.5t-338.5 77.5
q-215 0 -337 -77t-122 -210z" />
    <glyph glyph-name="seven" unicode="7" horiz-adv-x="1550" 
d="M1538 1526q-25 -150 0 -299q-124 -54 -222.5 -123t-166.5 -146t-118 -166.5t-76.5 -183t-42.5 -195t-15.5 -204t4.5 -209.5h-448q9 165 58 322t124 281.5t166.5 232t190.5 185.5t191 131t173 79v18q-229 3 -443.5 5.5t-464.5 -12t-448 -46.5q14 54 14 146t-14 184
q769 -73 1538 0z" />
    <glyph glyph-name="eight" unicode="8" horiz-adv-x="1892" 
d="M946 -25q-398 0 -630 112t-232 312q0 156 137.5 253t394.5 112v27q-426 48 -426 339q0 198 201.5 308t554.5 110q352 0 554 -110t202 -308q0 -291 -428 -339v-27q258 -15 396 -112t138 -253q0 -200 -233 -312t-629 -112zM946 840q196 0 303 61.5t107 169.5
q0 107 -110 171.5t-300 64.5t-299.5 -64.5t-109.5 -171.5q0 -108 106.5 -169.5t302.5 -61.5zM946 199q211 0 345 68.5t134 185.5q0 119 -133.5 186.5t-345.5 67.5q-138 0 -245.5 -29.5t-170.5 -87.5t-63 -137q0 -117 135.5 -185.5t343.5 -68.5z" />
    <glyph glyph-name="nine" unicode="9" horiz-adv-x="1902" 
d="M1808 795q0 -390 -243 -604t-691 -214q-359 0 -686 148q17 82 16.5 150t-16.5 167q113 -95 286.5 -158t361.5 -63q101 0 194.5 19.5t181 61t151 106t104.5 155.5t43 209t-35 266h-27q3 -240 -156 -371.5t-475 -131.5q-108 0 -208 15.5t-194.5 52t-163.5 91t-111 139
t-42 189.5q0 114 47 205.5t125 151.5t186.5 100.5t225.5 57.5t246 17q147 0 271.5 -22t239.5 -76.5t194.5 -139t127 -217.5t47.5 -304zM1384 1022q0 139 -121 217t-337 78q-218 0 -340.5 -76.5t-122.5 -216.5q0 -134 122.5 -211.5t338.5 -77.5t338 77t122 210z" />
    <glyph glyph-name="colon" unicode=":" horiz-adv-x="577" 
d="M289 797q-195 0 -195 141q0 143 195 143q194 0 194 -143q0 -73 -48 -107t-146 -34zM289 -16q-195 0 -195 143t195 143q194 0 194 -143t-194 -143z" />
    <glyph glyph-name="semicolon" unicode=";" horiz-adv-x="591" 
d="M289 795q-195 0 -195 143t195 143q194 0 194 -143t-194 -143zM109 121q0 73 47.5 108t144.5 35q101 0 149 -38.5t48 -127.5q0 -158 -236 -389q-47 11 -96 2q117 156 141 269q-101 -1 -149.5 33t-48.5 108z" />
    <glyph glyph-name="less" unicode="&#x3c;" horiz-adv-x="1228" 
d="M1059 1200v-170q-251 -85 -772 -295q51 -21 189 -79t208 -87t178 -72t197 -75v-172q-407 195 -930 407q11 81 0 162q463 179 930 381z" />
    <glyph glyph-name="equal" unicode="=" horiz-adv-x="1273" 
d="M1159 989q-7 -31 -7 -74t7 -77q-522 15 -1044 0q7 34 7 77t-7 74q521 -15 1044 0zM1159 584q-7 -31 -7 -74.5t7 -77.5q-522 15 -1044 0q7 34 7 77.5t-7 74.5q521 -18 1044 0z" />
    <glyph glyph-name="greater" unicode="&#x3e;" horiz-adv-x="1224" 
d="M170 1200q466 -202 930 -381q-11 -81 0 -162q-523 -212 -930 -407v172q89 32 197 75t178 72t208 87t189 79q-521 210 -772 295v170z" />
    <glyph glyph-name="question" unicode="?" horiz-adv-x="1538" 
d="M532 436q3 74 35 137.5t80.5 108.5t106.5 84.5t115.5 75t105 71.5t77 81.5t29.5 97.5q0 88 -77.5 143t-233.5 55q-164 0 -346.5 -68.5t-333.5 -183.5q41 171 0 342q328 174 719 174q294 0 467.5 -114t173.5 -295q0 -77 -30.5 -141.5t-80 -110t-109.5 -85.5t-120.5 -78
t-111 -78.5t-83.5 -95.5t-36 -120q-157 32 -347 0zM709 -27q-195 0 -195 144q0 143 195 143q194 0 194 -143q0 -144 -194 -144z" />
    <glyph glyph-name="at" unicode="@" horiz-adv-x="2461" 
d="M1208 1556q250 0 465.5 -70.5t368 -194.5t239 -301t86.5 -384q0 -116 -31 -212t-91 -169t-157.5 -114t-223.5 -41q-166 0 -263 80.5t-100 211.5q-70 -274 -383 -274q-203 0 -328.5 128t-125.5 331q0 198 113.5 323t303.5 125q162 0 261 -89.5t135 -241.5h22
q-9 172 -31 299q222 21 289 53q-4 -31 -11 -95q-10 -85 -15 -129t-12 -122.5t-6 -122t4.5 -104.5t16.5 -94.5t32.5 -67.5t51.5 -49t74 -15q113 0 173.5 93t60.5 257q0 174 -69 321t-191 248.5t-291.5 158.5t-366.5 57q-192 0 -353 -58t-272.5 -161.5t-173 -249t-61.5 -316.5
q0 -230 109 -412t303 -283t438 -101q252 0 430 100q-27 -119 0 -236q-117 -35 -211.5 -52t-218.5 -17q-238 0 -443 74.5t-350.5 205.5t-228 317.5t-82.5 403.5q0 214 81.5 398t226 314t353 203.5t453.5 73.5zM1223 242q211 0 276 200q-5 76 -25 140.5t-56.5 118.5t-97.5 85
t-140 31q-122 0 -191 -76.5t-69 -201.5q0 -140 86.5 -218.5t216.5 -78.5z" />
    <glyph glyph-name="A" unicode="A" horiz-adv-x="2025" 
d="M1997 0h-420q-11 28 -53.5 142t-67.5 177q-439 13 -895 3q-23 -56 -66.5 -164.5t-64.5 -157.5h-401q347 710 692 1526q124 -15 289.5 -17t289.5 17q313 -739 697 -1526zM647 530q363 -10 725 0q-194 485 -368 807q-105 -196 -357 -807z" />
    <glyph glyph-name="B" unicode="B" horiz-adv-x="2043" 
d="M176 0q19 287 19 765t-19 765q124 0 420.5 3t505.5 3q371 0 559 -92.5t188 -290.5q0 -71 -24.5 -128t-67.5 -96t-104.5 -65.5t-131 -40t-151.5 -16.5v-27q126 -3 228.5 -26.5t181 -68t121.5 -117t43 -167.5q0 -77 -30 -139t-78.5 -104.5t-120.5 -74t-145.5 -49.5
t-165.5 -28.5t-168.5 -14t-164.5 -3.5q-232 0 -502 6t-393 6zM537 858q348 -4 567 -4q375 0 375 225q0 117 -93.5 167t-281.5 50q-448 0 -563 -2q-7 -226 -4 -436zM537 653q0 -159 8 -417q364 -9 545 -9q460 0 460 230q0 44 -20.5 77.5t-69 62t-138.5 43.5t-218 15
q-393 0 -567 -2z" />
    <glyph glyph-name="C" unicode="C" horiz-adv-x="2152" 
d="M1149 -35q-501 0 -778 215t-277 590q0 255 133.5 435t376.5 270t578 90q424 0 837 -170q-19 -163 0 -326q-408 246 -819 250q-229 1 -397.5 -62.5t-260 -188t-91.5 -298.5q0 -256 188.5 -406.5t548.5 -150.5q486 0 831 326q-3 -35 -3 -73.5t1.5 -65.5t7 -68.5t8 -56
t9.5 -54.5q-179 -130 -391 -193t-502 -63z" />
    <glyph glyph-name="D" unicode="D" horiz-adv-x="2217" 
d="M176 0q17 264 17 763t-17 763q208 0 483.5 5t401.5 5q501 0 782 -202.5t281 -561.5q0 -365 -293 -570.5t-815 -205.5q-128 0 -410 2t-430 2zM539 1303q-8 -470 2 -1063q38 -1 127.5 -6t178 -8t169.5 -3q354 0 552.5 145t198.5 404q0 255 -195.5 397t-543.5 142
q-52 0 -219.5 -4.5t-269.5 -3.5z" />
    <glyph glyph-name="E" unicode="E" horiz-adv-x="1939" 
d="M176 0q19 292 19 767.5t-19 758.5q212 -17 775 -21.5t868 15.5q-12 -152 0 -308q-207 40 -587 63.5t-685 20.5q-7 -242 -4 -436q552 -9 1130 29q-12 -131 0 -258q-584 33 -1130 22q0 -281 8 -422q305 -3 683.5 20.5t584.5 61.5q-12 -157 0 -313h-1643z" />
    <glyph glyph-name="F" unicode="F" horiz-adv-x="1800" 
d="M184 0q19 287 19 763.5t-19 762.5q208 -17 732 -21t831 17q-12 -155 0 -310q-209 39 -559 62t-633 20q-7 -200 -4 -483q470 -8 1046 29q-13 -124 0 -258q-573 33 -1046 22q0 -361 33 -604h-400z" />
    <glyph glyph-name="G" unicode="G" horiz-adv-x="2236" 
d="M1139 -29q-501 0 -773 214.5t-272 586.5q0 382 283 585.5t790 203.5q219 0 466.5 -39.5t473.5 -132.5q-24 -201 0 -328q-199 120 -445.5 186t-490.5 66q-339 0 -529.5 -145t-190.5 -396q0 -252 183.5 -403.5t504.5 -151.5q77 0 149.5 9t154.5 33.5t151.5 63t134.5 103
t108 147.5q-541 0 -854 -34q22 125 -6 292q589 -25 1151 0q-23 -170 0 -378q-74 -156 -228 -267t-348 -163t-413 -52z" />
    <glyph glyph-name="H" unicode="H" horiz-adv-x="2103" 
d="M1927 0h-373q16 245 19 596q-509 30 -1045 -2q3 -369 21 -594h-373q19 287 19 763t-19 763q200 -28 369 0q-16 -275 -19 -688q533 -32 1047 -2q-3 411 -19 690q201 -28 367 0q-18 -280 -16.5 -764.5t22.5 -761.5z" />
    <glyph glyph-name="I" unicode="I" horiz-adv-x="757" 
d="M184 0q19 287 19 763t-19 763q209 -29 385 0q-19 -283 -18 -764.5t22 -761.5h-389z" />
    <glyph glyph-name="J" unicode="J" horiz-adv-x="1206" 
d="M111 86q24 126 0 279q33 -48 116.5 -84.5t182.5 -36.5q59 0 107.5 15t91 48.5t66 95t23.5 146.5q0 714 -16 977q209 -28 385 0q-16 -263 -16 -969q0 -96 -15 -175.5t-54.5 -156t-102 -129t-165 -84.5t-237.5 -32q-219 0 -366 106z" />
    <glyph glyph-name="K" unicode="K" horiz-adv-x="2004" 
d="M946 745q101 -11 219 -51.5t239.5 -109.5t225.5 -155t182 -198.5t105 -230.5h-444q-3 47 -23 105.5t-60 124t-95 128.5t-133 119t-168 96t-206.5 58t-242.5 6q3 -258 20 -637h-389q19 287 19 763t-19 763q208 -29 383 0q-16 -315 -16 -658q149 -3 282 36.5t229 103.5
t179 154.5t136.5 177.5t96.5 184q98 -14 229 -14.5t255 14.5q-109 -172 -283 -335t-367 -275t-354 -142v-27z" />
    <glyph glyph-name="L" unicode="L" horiz-adv-x="1886" 
d="M176 0q24 763 0 1526q227 -31 385 0q-14 -209 -18 -618t4 -679q257 0 655.5 22.5t589.5 55.5q-11 -168 0 -307h-1616z" />
    <glyph glyph-name="M" unicode="M" horiz-adv-x="2447" 
d="M1890 0q27 446 17 1202q-281 -587 -531 -1206h-325q-219 558 -525 1198q-4 -768 21 -1194h-371q19 287 19 763t-19 763q103 -14 271.5 -14t265.5 14q242 -645 504 -1204q266 553 522 1204q100 -14 263 -14t263 14q-18 -288 -16.5 -768t22.5 -758h-381z" />
    <glyph glyph-name="N" unicode="N" horiz-adv-x="2201" 
d="M1530 0q-506 660 -1004 1241q-9 -605 19 -1241h-369q24 763 0 1526q107 -13 254 -13.5t254 13.5q468 -631 989 -1254q10 677 -18 1254q202 -28 364 0q-21 -763 6 -1526h-495z" />
    <glyph glyph-name="O" unicode="O" horiz-adv-x="2246" 
d="M1124 -31q-486 0 -758 210t-272 587q0 379 272 589t758 210t757 -210.5t271 -588.5t-271 -587.5t-757 -209.5zM1124 199q318 0 497 146.5t179 412.5q0 270 -179.5 422.5t-496.5 152.5q-319 0 -496 -152t-177 -423q0 -267 176.5 -413t496.5 -146z" />
    <glyph glyph-name="P" unicode="P" horiz-adv-x="1953" 
d="M1059 1532q428 0 622.5 -119t194.5 -399q0 -100 -25 -180t-82 -148.5t-146.5 -114t-222.5 -71t-306 -25.5h-557q10 -313 28 -475h-389q19 277 19 758t-19 768q206 -3 487.5 1.5t395.5 4.5zM1001 684q519 0 519 309q0 164 -128.5 235.5t-402.5 71.5q-67 0 -225 -3t-229 -3
q-6 -282 -3 -602q316 -8 469 -8z" />
    <glyph glyph-name="Q" unicode="Q" horiz-adv-x="2273" 
d="M1647 -371q-9 24 -19 46t-32.5 58t-48.5 66t-68 63t-90.5 56t-116 38t-144.5 15q-487 0 -760.5 211t-273.5 586t273.5 585t760.5 210q488 0 760.5 -210t272.5 -585q0 -160 -57.5 -300t-148.5 -233t-200 -148.5t-217 -61.5v-27q140 -19 303.5 -130.5t259.5 -238.5
q-227 49 -454 0zM1128 201q320 0 498 148t178 411q0 261 -178.5 411t-497.5 150q-321 0 -499 -149.5t-178 -411.5q0 -264 177 -411.5t500 -147.5z" />
    <glyph glyph-name="R" unicode="R" horiz-adv-x="2052" 
d="M176 0q19 287 19 763.5t-19 762.5q200 -3 490 1.5t405 4.5q429 0 634.5 -109t205.5 -338q0 -80 -26.5 -147.5t-69.5 -113t-103 -81t-121 -56.5t-128.5 -34t-121 -17.5t-104.5 -4.5v-27q117 -20 222.5 -68.5t182.5 -109t144 -137.5t110.5 -146t77.5 -143h-485
q-52 287 -208.5 415.5t-475.5 151.5q-131 8 -266 8q5 -348 22 -575h-385zM537 788q13 0 190.5 -7t271.5 -7q270 0 403.5 64t133.5 211q0 134 -122.5 192.5t-352.5 58.5q-108 0 -287 -3t-231 -3q-6 -237 -6 -506z" />
    <glyph glyph-name="S" unicode="S" horiz-adv-x="2076" 
d="M1116 -23q-503 0 -973 175q24 171 0 342q137 -131 420.5 -202t585.5 -71q225 0 328.5 50t103.5 153q0 27 -5 49.5t-19 41t-29 33t-44.5 27.5t-54.5 22t-71.5 17.5t-83 14.5t-100.5 12.5t-112 11t-130 11.5q-134 12 -234.5 26.5t-196.5 37t-161 54.5t-115 76t-74 104
t-24 136q0 229 205.5 341.5t623.5 112.5q266 0 459 -29t455 -93q-24 -165 0 -320q-483 199 -926 199q-234 0 -341 -48.5t-107 -152.5q0 -41 13.5 -72.5t45 -55.5t74.5 -41t112 -30.5t147 -22.5t189 -18q106 -8 189 -17t169 -22.5t150 -31.5t125 -42t103 -55.5t74 -71
t47.5 -90.5t15.5 -112q0 -449 -834 -449z" />
    <glyph glyph-name="T" unicode="T" horiz-adv-x="1875" 
d="M743 0q14 231 17.5 609t-4.5 685q-417 -6 -736 -55q24 143 0 287q919 -22 1835 0q-24 -144 0 -287q-323 50 -739 55q-8 -316 -3 -686t20 -608h-390z" />
    <glyph glyph-name="U" unicode="U" horiz-adv-x="2117" 
d="M1968 760q0 -379 -241.5 -592t-671.5 -213q-441 0 -676.5 211t-235.5 594q0 518 -16 766q207 -30 381 0q-16 -248 -16 -774q0 -270 143.5 -419t419.5 -149q273 0 417 149.5t144 418.5q0 557 -14 774q206 -30 380 0q-14 -260 -14 -766z" />
    <glyph glyph-name="V" unicode="V" horiz-adv-x="1953" 
d="M1544 1526q191 -23 381 0q-178 -363 -330 -709t-348 -817h-545q-278 715 -673 1526q201 -23 403 0q128 -339 292 -733t257 -574q135 261 563 1307z" />
    <glyph glyph-name="W" unicode="W" horiz-adv-x="2689" 
d="M2281 1526q188 -24 379 0q-42 -102 -85.5 -225.5t-104 -319.5t-88.5 -288t-109.5 -369t-95.5 -324h-530q-179 897 -297 1278q-112 -381 -293 -1278h-547q-14 47 -64.5 222.5t-71 245t-66 222.5t-73.5 240t-66.5 206.5t-72.5 213.5t-67 176q193 -24 387 0
q180 -723 364 -1356q208 763 314 1356q256 -24 512 0q136 -701 315 -1352q188 666 360 1352z" />
    <glyph glyph-name="X" unicode="X" horiz-adv-x="2000" 
d="M45 0q419 400 758 768q-347 373 -756 758q244 -24 488 0q277 -351 473 -576q174 202 469 576q238 -24 477 0q-379 -354 -762 -756q314 -343 754 -770h-514q-178 249 -445 580q-276 -341 -446 -580h-496z" />
    <glyph glyph-name="Y" unicode="Y" horiz-adv-x="1824" 
d="M1874 1526q-423 -491 -782 -961q-24 -283 0 -565h-357q24 282 0 565q-393 511 -784 961q112 -14 228.5 -14.5t201.5 14.5q268 -394 539 -744q271 350 536 744q170 -31 418 0z" />
    <glyph glyph-name="Z" unicode="Z" horiz-adv-x="2025" 
d="M143 0q12 126 0 252q544 347 1305 958v37q-422 0 -1317 -45q12 163 0 324q352 -31 888.5 -31t870.5 31q-12 -140 0 -283q-309 -208 -643.5 -466t-625.5 -509v-28q277 0 641.5 20.5t631.5 48.5q-12 -156 0 -309h-1751z" />
    <glyph glyph-name="bracketleft" unicode="[" horiz-adv-x="796" 
d="M176 -395q30 968 0 1980h576v-192q-25 3 -85.5 12t-93.5 13t-82.5 8.5t-91.5 5.5q-31 -837 0 -1674q107 2 353 39v-192h-576z" />
    <glyph glyph-name="backslash" unicode="\" horiz-adv-x="862" 
d="M170 1632l664 -1890h-140q-111 316 -333 945t-332 945q71 -8 141 0z" />
    <glyph glyph-name="bracketright" unicode="]" horiz-adv-x="796" 
d="M45 -395v192q241 -37 352 -39q31 837 0 1674q-42 -1 -92 -5.5t-81.5 -8.5t-94 -13t-84.5 -12v192h576q-32 -899 0 -1980h-576z" />
    <glyph glyph-name="asciicircum" unicode="^" horiz-adv-x="1114" 
d="M82 709q206 474 381 929q81 -11 162 0q209 -516 407 -929h-172q-32 89 -75 197t-72 178t-87 208t-79 189q-210 -521 -295 -772h-170z" />
    <glyph glyph-name="underscore" unicode="_" horiz-adv-x="1239" 
d="M1174 154q-4 -26 -4 -77t4 -77h-1106q5 25 4.5 77t-6.5 77q217 -6 553.5 -6t554.5 6z" />
    <glyph glyph-name="grave" unicode="`" horiz-adv-x="862" 
d="M479 1290q-175 158 -463 369q69 -12 211 -12t209 12q170 -243 279 -369q-38 3 -121 3t-115 -3z" />
    <glyph glyph-name="a" unicode="a" horiz-adv-x="1542" 
d="M1454 0h-332q-36 108 -47 254q-62 -92 -130 -151.5t-172.5 -96.5t-240.5 -37q-216 0 -329 85t-113 220q0 154 158.5 241t466.5 87h356q-4 75 -21 126.5t-56 94t-111.5 63.5t-180.5 21q-174 0 -329.5 -55.5t-247.5 -144.5q11 60 11 149.5t-11 142.5q295 138 625 138
q314 0 474 -117t160 -387q2 -214 16.5 -360.5t53.5 -272.5zM692 186q210 0 381 115v180v35h-174q-233 0 -348 -41t-115 -133q0 -74 65.5 -115t190.5 -41z" />
    <glyph glyph-name="b" unicode="b" horiz-adv-x="1630" 
d="M1016 1139q243 0 393 -154t150 -403q0 -269 -174.5 -442t-454.5 -173q-180 0 -301 78.5t-178 228.5q3 -149 20 -274h-340q36 232 34.5 762t-38.5 794q279 20 387 68q-48 -203 -59 -868h28q162 383 533 383zM817 162q175 0 292.5 105.5t117.5 293.5q0 160 -91.5 256
t-252.5 96q-90 0 -163.5 -30.5t-121.5 -81t-81.5 -119.5t-48.5 -141.5t-17 -151.5q120 -227 366 -227z" />
    <glyph glyph-name="c" unicode="c" horiz-adv-x="1484" 
d="M811 -23q-359 0 -549 152.5t-190 429.5q0 275 190.5 427.5t548.5 152.5q325 0 586 -129q-20 -57 -20 -160t20 -160q-101 98 -240.5 156.5t-294.5 58.5q-226 0 -347.5 -89t-121.5 -257t121.5 -257t347.5 -89q321 0 535 182q-20 -58 -20 -144.5t20 -141.5
q-261 -132 -586 -132z" />
    <glyph glyph-name="d" unicode="d" horiz-adv-x="1640" 
d="M1524 1632q-35 -147 -49 -490t-6.5 -671t30.5 -471h-340q21 155 23 279q-117 -312 -482 -312q-280 0 -454 173t-174 442q0 249 150.5 403t393.5 154q367 0 533 -383h27q-7 549 -41 809q281 20 389 67zM813 162q252 0 369 229q-3 79 -18 151.5t-48.5 141t-82 118.5
t-121 80.5t-162.5 30.5q-162 0 -254.5 -96t-92.5 -256q0 -188 117.5 -293.5t292.5 -105.5z" />
    <glyph glyph-name="e" unicode="e" horiz-adv-x="1544" 
d="M1446 381q-14 -59 -14 -141.5t14 -139.5q-128 -63 -290.5 -96t-330.5 -33q-369 0 -561 153t-192 431q0 275 182 430.5t496 155.5q155 0 286.5 -41.5t227 -119t143 -199t31.5 -271.5q-683 12 -1026 2q45 -314 450 -309q156 3 322 51.5t262 126.5zM750 922
q-155 0 -245 -79.5t-97 -230.5q289 -9 696 -2q-19 151 -112 231.5t-242 80.5z" />
    <glyph glyph-name="f" unicode="f" horiz-adv-x="1173" 
d="M1159 1102q-11 -110 0 -221q-244 21 -536 24q5 -597 26 -905h-362q24 360 24 901q-123 -5 -309 -20q6 44 6 110.5t-6 110.5q206 -17 307 -21q-3 52 -6 185q-1 93 21.5 163t60.5 113.5t95 70t117 36.5t134 10q104 0 219 -19t172 -36q-22 -104 0 -230q-127 58 -258 58
q-51 0 -89 -8.5t-64 -20t-43 -39t-26 -48.5t-13.5 -67.5t-5 -76t-0.5 -92.5v-1.5v-1.5q278 3 536 25z" />
    <glyph glyph-name="g" unicode="g" horiz-adv-x="1599" 
d="M1483 1141q-9 -91 -14.5 -197.5t-7 -225t-2 -196.5t0 -199t0.5 -145q0 -50 -2 -90t-10.5 -93.5t-22.5 -96.5t-39.5 -92t-61 -86.5t-88 -73t-117.5 -58.5t-153.5 -37t-193.5 -14q-361 0 -620 131q20 56 20 134t-20 135q98 -79 264.5 -126t326.5 -47q83 0 152 18.5
t124.5 57t86.5 105t31 155.5v66q-129 -154 -422 -154t-468 156t-175 418q0 245 148 399t378 154q102 0 192 -32.5t158 -88.5t118 -124t83 -146h27q-1 13 -6 75t-8 84.5t-10.5 70t-18.5 91.5q228 14 350 72zM825 190q191 0 312 113v131q0 73 -9 136t-35 128t-67 111
t-110.5 75t-159.5 29q-166 0 -259.5 -95.5t-93.5 -256.5q0 -95 33 -167.5t91 -116t133 -65.5t165 -22z" />
    <glyph glyph-name="h" unicode="h" horiz-adv-x="1579" 
d="M127 0q34 243 34 743t-34 818q258 15 381 71q-17 -71 -30.5 -257t-24 -418.5t-11.5 -254.5h27q63 193 209 315t334 122q116 0 200.5 -37t132.5 -104t70.5 -148.5t22.5 -181.5q0 -14 -1 -155t0 -195t8 -152.5t21 -165.5h-350v481q0 86 -17 156.5t-51.5 126t-93.5 86.5
t-137 31q-69 0 -125.5 -23.5t-95 -64.5t-65 -97t-38.5 -119.5t-12 -134.5v-442h-354z" />
    <glyph glyph-name="i" unicode="i" horiz-adv-x="628" 
d="M305 1262q-211 0 -211 141q0 145 211 145q230 0 230 -145q0 -141 -230 -141zM131 1102q198 -32 352 0q-37 -551 0 -1102h-352q39 548 0 1102z" />
    <glyph glyph-name="j" unicode="j" horiz-adv-x="653" 
d="M330 1262q-105 0 -157 34t-52 107q0 145 209 145q229 0 229 -145q0 -73 -56.5 -107t-172.5 -34zM31 -440q-138 0 -262 51q11 115 0 227q10 -12 59.5 -26.5t89.5 -14.5q58 0 103 14.5t83 48.5t58 99t20 158q0 617 -20 985q186 -34 352 0q-27 -452 -27 -1122
q0 -112 -38 -196t-103.5 -131.5t-144 -70t-170.5 -22.5z" />
    <glyph glyph-name="k" unicode="k" horiz-adv-x="1454" 
d="M983 0q-38 73 -98 152.5t-153 192t-154 194.5q-67 -13 -125 -13q5 -270 24 -526h-360q35 299 35 780.5t-35 761.5q242 12 387 68q-64 -332 -53 -989q107 14 218.5 82.5t191 170.5t93.5 203q2 0 62 3t80.5 4.5t76.5 6t87 9t70.5 12.5t66.5 18q-40 -162 -189 -300
t-358 -220q19 -22 74 -86t85 -97.5t83 -93t92 -99t87.5 -86.5t93.5 -83.5t87 -64.5h-469z" />
    <glyph glyph-name="l" unicode="l" horiz-adv-x="595" 
d="M117 1565q200 7 362 67q-35 -281 -35 -811t25 -821h-352q23 298 23 791.5t-23 773.5z" />
    <glyph glyph-name="m" unicode="m" horiz-adv-x="2359" 
d="M127 4q64 512 0 1067q245 13 373 72q-46 -211 -58 -441h23q60 199 180 318t303 119q93 0 165 -32t115.5 -88.5t66.5 -126.5t28 -153h20q20 78 62.5 149t102.5 127.5t141.5 90t171.5 33.5q95 0 170 -37t122 -102t72 -149t27 -183v-173t7.5 -276t27.5 -215h-359
q17 170 17 479q0 198 -64.5 298t-200.5 100q-284 0 -284 -435q0 -301 24 -442h-362q14 160 14 479q0 398 -254 398q-146 0 -220.5 -112t-74.5 -320q0 -290 17 -449z" />
    <glyph glyph-name="n" unicode="n" horiz-adv-x="1579" 
d="M127 0q65 465 0 1071q255 15 381 72q-51 -210 -66 -441h29q62 194 206.5 315.5t338.5 121.5q93 0 166 -25t120.5 -67.5t79 -103t45 -128.5t13.5 -147q0 -33 -0.5 -129.5t0 -146.5t2.5 -129t8 -142.5t16 -120.5h-348v481q0 186 -76.5 293t-218.5 107q-161 0 -250.5 -120.5
t-89.5 -318.5v-442h-356z" />
    <glyph glyph-name="o" unicode="o" horiz-adv-x="1566" 
d="M784 -29q-336 0 -524 154.5t-188 429.5t187.5 428.5t524.5 153.5q335 0 523 -153.5t188 -428.5t-188 -429.5t-523 -154.5zM784 176q178 0 276.5 99t98.5 280q0 168 -99.5 265.5t-275.5 97.5q-178 0 -277 -97t-99 -266q0 -181 98 -280t278 -99z" />
    <glyph glyph-name="p" unicode="p" horiz-adv-x="1607" 
d="M1010 1139q230 0 378 -155t148 -402q0 -270 -176 -442.5t-463 -172.5q-127 0 -241.5 48.5t-182.5 140.5q4 -342 31 -566q-208 25 -387 4q34 220 34 697.5t-34 779.5q252 15 381 72q-49 -200 -66 -395h27q33 80 83 148t118 123.5t158 87.5t192 32zM782 145
q182 0 302 110.5t120 307.5q0 159 -93 254.5t-259 95.5q-90 0 -159.5 -29t-110.5 -75t-67 -111t-35 -128t-9 -136v-168q129 -121 311 -121z" />
    <glyph glyph-name="q" unicode="q" horiz-adv-x="1607" 
d="M1483 1139q-33 -329 -29.5 -806t37.5 -739q-179 21 -387 -4q27 224 31 566q-68 -91 -180 -141t-240 -50q-290 0 -466.5 173t-176.5 446q0 245 148 399t378 154q102 0 192 -32t158 -88t118 -124.5t83 -147.5h27q-1 14 -6 75.5t-8 84.5t-10.5 70.5t-18.5 91.5
q229 15 350 72zM825 145q183 0 312 121v166q0 73 -9 136t-35 128t-67 111t-110.5 75t-159.5 29q-166 0 -259.5 -95.5t-93.5 -256.5q0 -195 119.5 -304.5t302.5 -109.5z" />
    <glyph glyph-name="r" unicode="r" horiz-adv-x="1054" 
d="M510 0h-383q72 519 0 1065q241 15 371 72q-43 -224 -52 -443h27q28 85 66.5 156t83 120t95 85t101.5 52t103 20.5t100 -9.5q-43 -138 0 -332q-109 33 -193 33q-173 0 -262.5 -104.5t-89.5 -298.5q0 -94 1 -144.5t9 -127.5t23 -144z" />
    <glyph glyph-name="s" unicode="s" horiz-adv-x="1443" 
d="M756 -29q-181 0 -355.5 32.5t-298.5 96.5q20 57 20 141t-20 130q97 -78 280.5 -126t362.5 -48q297 0 297 139q0 44 -33 71t-89 39t-128 16.5t-152 8t-160 10t-152 25t-128 50t-89 89.5t-33 139q0 353 643 353q159 0 287.5 -22t298.5 -68q-38 -104 6 -273
q-300 150 -611 150q-156 0 -229.5 -33.5t-73.5 -106.5q0 -47 33 -76.5t89.5 -41.5t129 -16.5t153 -6.5t161.5 -7.5t153.5 -23.5t129 -49t89.5 -89.5t33 -141.5q0 -361 -614 -361z" />
    <glyph glyph-name="t" unicode="t" horiz-adv-x="1202" 
d="M596 905q-8 -276 -10 -379q-1 -88 18 -150t56.5 -96t83 -49t104.5 -16q99 -2 309 55q-26 -125 -4 -231q-211 -64 -395 -64q-76 1 -141 13t-125.5 41t-103 74t-68 115.5t-25.5 160.5q0 293 -6 520q-156 -6 -297 -18q6 44 6 110.5t-6 110.5q157 -14 291 -19
q-11 224 -23 332q232 24 350 82q-8 -262 -10 -420q291 0 557 25q-10 -109 0 -221q-258 24 -561 24z" />
    <glyph glyph-name="u" unicode="u" horiz-adv-x="1509" 
d="M1393 1126q-71 -487 0 -1126h-379q55 217 61 383h-26q-59 -191 -198.5 -298.5t-336.5 -107.5q-90 0 -159.5 25t-114.5 67.5t-74 104t-41 128.5t-12 147q0 21 0.5 124t0 143t-3 118.5t-9 135.5t-17.5 109q178 -3 334 47v-524q0 -172 68 -268t206 -96q179 0 261.5 108.5
t82.5 294.5v438q195 -3 357 47z" />
    <glyph glyph-name="v" unicode="v" horiz-adv-x="1400" 
d="M1032 1102q191 -33 365 0q-94 -181 -182 -376t-144 -333.5t-156 -392.5h-430q-222 597 -481 1102q224 -34 373 0q41 -108 152 -428.5t178 -485.5q68 169 177 490t148 424z" />
    <glyph glyph-name="w" unicode="w" horiz-adv-x="2183" 
d="M1810 1104q179 -38 365 0q-105 -243 -226.5 -554.5t-203.5 -549.5h-420q-168 636 -235 856q-119 -416 -234 -856h-418q-77 224 -206 554t-224 550q207 -39 371 0q22 -79 66 -249.5t88.5 -323.5t105.5 -336q156 522 248 909q228 -35 420 0q108 -458 245 -905
q108 354 258 905z" />
    <glyph glyph-name="x" unicode="x" horiz-adv-x="1476" 
d="M2 0q230 217 541 561q-308 330 -525 545q102 -18 224 -18t213 18q148 -226 286 -399q168 220 283 399q97 -18 216 -18t222 18q-281 -274 -526 -543q307 -345 539 -563h-459q-166 268 -277 414q-30 -39 -60 -80t-65 -93.5t-52 -78.5t-57 -89.5t-46 -72.5h-457z" />
    <glyph glyph-name="y" unicode="y" horiz-adv-x="1523" 
d="M1092 94v291h-27q-58 -183 -195 -279t-340 -96q-110 0 -191.5 33t-129 94t-70 138.5t-22.5 173.5q0 22 0.5 123t0 139.5t-3 114.5t-9 131.5t-17.5 107.5q192 0 342 49v-512q0 -75 14 -135t45 -110t87 -77.5t135 -27.5q340 0 340 387v426q188 0 340 49v-940
q0 -49 -1.5 -85t-8.5 -90t-20 -95.5t-37.5 -92t-58 -87.5t-85.5 -74t-117 -60.5t-154.5 -38t-195.5 -14.5q-341 0 -600 131q19 56 19 134t-19 137q95 -81 254.5 -128t314.5 -47q190 0 300 79t110 251z" />
    <glyph glyph-name="z" unicode="z" horiz-adv-x="1390" 
d="M88 0q11 95 0 213q388 259 805 621v26q-129 0 -257 -4.5t-321.5 -15.5t-228.5 -13q12 147 0 293q243 -25 608.5 -25t595.5 25q-12 -121 0 -266q-405 -265 -792 -592v-22q366 0 807 49q-13 -130 0 -289h-1217z" />
    <glyph glyph-name="braceleft" unicode="{" horiz-adv-x="839" 
d="M799 -420q-147 -20 -259 -5t-186 65t-107 147.5t-22 243.5q4 49 12.5 113.5t14 107t9 91t-3.5 79t-23.5 57t-50.5 39t-85 12.5v86q51 0 85 13t50.5 40.5t23.5 58.5t3.5 80t-9 91.5t-14 106.5t-12.5 112q-11 147 22 244.5t107.5 146.5t186.5 63.5t258 -5.5q-11 -85 0 -199
q-59 18 -111 24.5t-106.5 -4.5t-90.5 -43.5t-53 -102.5t-4 -173q20 -156 15 -264.5t-53.5 -165.5t-147.5 -57v-17q100 0 148.5 -55.5t53 -163.5t-15.5 -268q-13 -103 4 -173t53 -102.5t90.5 -43.5t106.5 -4.5t111 24.5q-12 -110 0 -199z" />
    <glyph glyph-name="bar" unicode="|" horiz-adv-x="659" 
d="M246 1653h162q-14 -358 -14 -1065t14 -1065h-162q14 356 14 1064t-14 1066z" />
    <glyph glyph-name="braceright" unicode="}" horiz-adv-x="839" 
d="M41 -420q12 89 0 199q59 -18 110.5 -24.5t106 4.5t90.5 43.5t53.5 102.5t4.5 173q-21 160 -16.5 268t53 163.5t147.5 55.5v17q-98 0 -146.5 57t-53 165.5t15.5 264.5q13 103 -4 173t-53 102.5t-90.5 43.5t-106.5 4.5t-111 -24.5q11 114 0 199q145 20 257 5.5t186.5 -63.5
t107.5 -147t22 -244q-4 -48 -12.5 -112t-14 -106.5t-9 -91.5t3.5 -80t23.5 -58.5t50.5 -40.5t85 -13v-86q-51 0 -85 -12.5t-50.5 -39t-23.5 -57t-3.5 -79t9 -91t14 -107t12.5 -113.5q11 -146 -21.5 -243.5t-106.5 -147.5t-186 -65t-259 5z" />
    <glyph glyph-name="asciitilde" unicode="~" horiz-adv-x="1228" 
d="M123 604q-6 72 20 144.5t91.5 126t156.5 53.5q67 0 123 -20.5t94.5 -49t73.5 -57.5t76 -49.5t86 -20.5q129 0 137 170h129q5 -55 -10 -111t-46 -104t-84.5 -78t-119.5 -30q-69 0 -126.5 20t-96.5 49t-74 58t-76.5 49t-87.5 20q-47 0 -78.5 -26.5t-44 -62.5t-14.5 -81
h-129z" />
    <glyph glyph-name="exclamdown" unicode="&#xa1;" horiz-adv-x="634" 
d="M315 1251q-192 0 -192 144q0 141 192 141q197 0 197 -141q0 -144 -197 -144zM104 -16q66 569 52 1085q96 -18 164 -18t161 18q-14 -519 51 -1085q-214 25 -428 0z" />
    <glyph glyph-name="cent" unicode="&#xa2;" horiz-adv-x="1484" 
d="M926 903q-9 -344 0 -688q278 18 471 180q-20 -58 -20 -143.5t20 -142.5q-209 -104 -463 -125q3 -136 12 -281q-92 12 -184 0l12 277q-341 7 -521.5 159t-180.5 420q0 267 180.5 419t521.5 161l-12 278q92 -12 184 0q-9 -144 -12 -282q261 -22 463 -125
q-20 -57 -20 -159.5t20 -160.5q-91 88 -212.5 144.5t-258.5 68.5zM393 559q0 -153 99.5 -240t287.5 -102q9 342 0 684q-188 -15 -287.5 -102t-99.5 -240z" />
    <glyph glyph-name="sterling" unicode="&#xa3;" horiz-adv-x="1925" 
d="M1815 340q-13 -114 -13 -189t13 -151h-1663q26 131 0 262q105 11 194.5 87.5t89.5 180.5q0 54 -18 101q-48 -2 -155.5 -8t-164.5 -9q12 92 0 183l240 -13q-80 140 -80 279q0 230 196.5 359.5t585.5 129.5q412 0 750 -168q-41 -171 0 -342q-155 113 -343 178.5t-368 65.5
q-222 0 -341.5 -76t-119.5 -231q0 -107 41 -205q267 -3 727 23q-12 -91 0 -183q-461 25 -669 25q16 -50 16 -94q0 -62 -40.5 -115t-98 -84.5t-112 -49.5t-91.5 -20v-30q174 0 398 4.5t558.5 27.5t467.5 62z" />
    <glyph glyph-name="yen" unicode="&#xa5;" horiz-adv-x="1824" 
d="M1219 729q133 4 438 19q-12 -92 0 -183q-286 17 -549 23q-3 -5 -16 -23q-10 -118 -11 -141q228 3 576 22q-12 -91 0 -182q-374 21 -578 23q0 -131 13 -287h-357q13 156 13 287q-204 -2 -578 -23q12 91 0 182q348 -19 575 -22q-2 47 -10 141l-18 23q-262 -6 -547 -23
q12 91 0 183q296 -15 438 -19q-311 397 -657 797q112 -14 228.5 -14.5t201.5 14.5q268 -394 539 -744q271 350 536 744q170 -31 418 0q-355 -414 -655 -797z" />
    <glyph glyph-name="brokenbar" unicode="&#xa6;" horiz-adv-x="659" 
d="M256 825q0 442 -12 828h162q-10 -320 -13 -828h-137zM393 350q0 -522 13 -827h-162q12 282 12 827h137z" />
    <glyph glyph-name="section" unicode="&#xa7;" horiz-adv-x="1736" 
d="M78 524q0 309 516 305v31q-434 44 -434 330q0 65 22.5 117.5t60 89.5t94 64.5t117 43.5t137 26t145 13.5t149.5 3.5q331 0 633 -92q-25 -152 0 -276q-169 72 -322 107.5t-356 35.5q-361 0 -361 -154q0 -52 40.5 -85t109 -48.5t157.5 -24t187 -14t196 -14.5t187 -31
t157.5 -57.5t109 -99.5t40.5 -152q0 -77 -34.5 -136.5t-88.5 -95t-127.5 -58.5t-144 -31.5t-146.5 -8.5v-30q465 -49 465 -334q0 -74 -30 -132.5t-86.5 -97.5t-126 -66t-159 -41t-174.5 -20t-184 -6q-315 0 -612 92q25 151 0 277q146 -69 303.5 -106t358.5 -37q78 0 138 6
t122.5 22.5t96.5 52.5t34 89q0 50 -40.5 83.5t-109.5 50t-158.5 26t-188 17t-197 18.5t-188 34.5t-158.5 60t-109.5 100.5t-40.5 152zM866 805q-223 1 -344 -58.5t-121 -166.5q0 -110 124.5 -169.5t340.5 -54.5q226 -3 350.5 57t122.5 167q-1 106 -127.5 164t-345.5 61z" />
    <glyph glyph-name="dieresis" unicode="&#xa8;" horiz-adv-x="1105" 
d="M262 1298q-172 0 -172 129q0 132 172 132q187 0 187 -132q0 -129 -187 -129zM827 1298q-170 0 -170 129q0 132 170 132q189 0 189 -132q0 -129 -189 -129z" />
    <glyph glyph-name="copyright" unicode="&#xa9;" horiz-adv-x="2244" 
d="M1122 -78q-486 0 -757 212.5t-271 594.5q0 381 271 593t757 212t757 -212t271 -593q0 -382 -271 -594.5t-757 -212.5zM1122 84q390 0 608 167.5t218 469.5q0 300 -218 468.5t-608 168.5q-393 0 -608 -168t-215 -469q0 -303 214.5 -470t608.5 -167zM1141 315
q-246 0 -377 104t-131 292q0 189 130.5 293t377.5 104q221 0 401 -88q-14 -38 -14 -109.5t14 -109.5q-151 141 -368 141q-153 0 -234.5 -59t-81.5 -172q0 -112 81.5 -170t234.5 -58q221 0 368 115q-14 -38 -14 -97.5t14 -97.5q-180 -88 -401 -88z" />
    <glyph glyph-name="guillemotleft" unicode="&#xab;" horiz-adv-x="1380" 
d="M98 559q154 115 265.5 214t205.5 218h226q-96 -69 -205.5 -167t-190.5 -167t-141 -98q61 -27 141 -96.5t190.5 -171.5t205.5 -172h-226q-167 215 -471 440zM520 559q223 160 305 228q124 103 207 204h225q-96 -68 -216.5 -167t-208 -167t-150.5 -98q63 -27 150 -96
t208.5 -172.5t216.5 -171.5h-225q-95 118 -215 217t-297 223z" />
    <glyph glyph-name="logicalnot" unicode="&#xac;" horiz-adv-x="1228" 
d="M901 270q12 213 0 426q-408 10 -764 -6q5 25 4.5 76t-6.5 78q382 -17 924 0q-13 -311 -2 -574h-156z" />
    <glyph glyph-name="registered" unicode="&#xae;" horiz-adv-x="1775" 
d="M889 414q-377 0 -586 163t-209 459q0 292 209.5 456.5t585.5 164.5q375 0 583.5 -164t208.5 -457q0 -296 -208 -459t-584 -163zM889 522q311 0 486 133.5t175 374.5q0 237 -175.5 372.5t-485.5 135.5q-316 0 -488 -134.5t-172 -373.5q0 -242 171.5 -375t488.5 -133z
M586 750q6 107 6 284.5t-6 284.5q68 0 173.5 1t166.5 1q162 0 238.5 -44t76.5 -136q0 -41 -17.5 -71.5t-42.5 -47.5t-59.5 -27t-62.5 -13t-58 -3v-10q45 -5 87.5 -28t75.5 -57.5t56.5 -67t41.5 -66.5h-201q-5 30 -11.5 52.5t-18.5 50.5t-30.5 48t-45 38t-65 27t-87.5 9h-70
q0 -103 8 -225h-155zM731 1049q1 0 69 -3.5t109 -3.5q181 0 181 99q0 44 -44.5 66t-125.5 20q-37 0 -101.5 -2t-85.5 -2q0 -26 -1 -85t-1 -89z" />
    <glyph glyph-name="macron" unicode="&#xaf;" horiz-adv-x="1228" 
d="M135 1397q6 34 6 84t-6 84q495 -16 1006 0q-6 -34 -6 -84t6 -84q-510 20 -1006 0z" />
    <glyph glyph-name="degree" unicode="&#xb0;" horiz-adv-x="811" 
d="M408 1114q-160 0 -248 70.5t-88 199.5q0 128 88.5 199.5t247.5 71.5q158 0 244.5 -71t86.5 -200t-86.5 -199.5t-244.5 -70.5zM408 1235q85 0 132.5 38.5t47.5 108.5t-47.5 109t-132.5 39q-88 0 -135.5 -38.5t-47.5 -109.5q0 -70 47.5 -108.5t135.5 -38.5z" />
    <glyph glyph-name="plusminus" unicode="&#xb1;" horiz-adv-x="1228" 
d="M1120 944q-14 -72 0 -151q-208 8 -446 8q4 -163 10 -252q-87 14 -164 0q8 188 8 252q-230 0 -430 -8q14 79 0 151q148 -4 430 -8q0 66 -8 254q77 -7 164 0q-6 -94 -10 -254q290 4 446 8zM98 434q509 -18 1022 0q-14 -72 0 -151q-511 15 -1022 0q14 79 0 151z" />
    <glyph glyph-name="acute" unicode="&#xb4;" horiz-adv-x="864" 
d="M164 1290q89 102 280 369q66 -12 207.5 -12t210.5 12q-288 -211 -463 -369q-32 3 -114.5 3t-120.5 -3z" />
    <glyph glyph-name="paragraph" unicode="&#xb6;" horiz-adv-x="1302" 
d="M117 1126q0 179 115 292.5t296 113.5h230q-26 -864 0 -1729q-113 13 -226 0q17 324 17 916q-184 0 -308 114.5t-124 292.5zM954 1532q118 -13 232 0q-26 -864 0 -1729q-114 13 -232 0q26 865 0 1729z" />
    <glyph glyph-name="periodcentered" unicode="&#xb7;" horiz-adv-x="577" 
d="M289 406q-195 0 -195 141q0 143 195 143q194 0 194 -143q0 -73 -48 -107t-146 -34z" />
    <glyph glyph-name="cedilla" unicode="&#xb8;" horiz-adv-x="952" 
d="M489 -500q-236 0 -411 99q12 78 0 149q78 -60 181 -91.5t210 -31.5q195 0 195 94q0 50 -71.5 77.5t-246.5 27.5l53 199h154l-47 -160q185 11 269.5 -37t84.5 -135q0 -90 -90.5 -140.5t-280.5 -50.5z" />
    <glyph glyph-name="guillemotright" unicode="&#xbb;" horiz-adv-x="1376" 
d="M911 559q-117 -83 -187 -135.5t-163.5 -137.5t-159.5 -167h-225q95 68 216 171.5t208.5 172.5t151.5 96q-64 30 -151.5 98t-208 167.5t-216.5 166.5h225q48 -58 105 -114t122.5 -108t122 -94t133.5 -97q18 -12 27 -19zM1333 559q-304 -225 -471 -440h-225
q77 57 163.5 133t143.5 130.5t120 105t110 71.5q-60 29 -140.5 98t-190.5 166.5t-206 167.5h225q94 -118 204 -215.5t267 -216.5z" />
    <glyph glyph-name="questiondown" unicode="&#xbf;" horiz-adv-x="1538" 
d="M823 1130q195 0 195 -141q0 -143 -195 -143q-196 0 -196 143q0 73 48.5 107t147.5 34zM997 668q-3 -74 -34.5 -137t-80 -107.5t-106.5 -84.5t-115.5 -75.5t-105 -71t-77 -82t-29.5 -98.5q0 -87 78.5 -141.5t234.5 -54.5q165 0 347.5 68t332.5 184q-40 -172 0 -344
q-182 -95 -370.5 -135t-350.5 -40q-292 0 -465.5 114.5t-173.5 297.5q0 77 30.5 141.5t80 109.5t109 85t120 78t111 78t84 95t36.5 120q155 -29 344 0z" />
    <glyph glyph-name="Agrave" unicode="&#xc0;" horiz-adv-x="2025" 
d="M1120 1702q-31 2 -125 2t-125 -2q-174 117 -503 332q64 -12 224 -12t224 12q181 -223 305 -332zM1997 0h-420q-11 28 -53.5 142t-67.5 177q-439 13 -895 3q-23 -56 -66.5 -164.5t-64.5 -157.5h-401q347 710 692 1526q124 -15 289.5 -17t289.5 17q313 -739 697 -1526z
M647 530q363 -10 725 0q-194 485 -368 807q-105 -196 -357 -807z" />
    <glyph glyph-name="Aacute" unicode="&#xc1;" horiz-adv-x="2025" 
d="M1114 1702q-31 3 -125 3t-125 -3q44 39 92 90t123 138.5t90 103.5q65 -12 224 -12t225 12q-174 -107 -504 -332zM1997 0h-420q-11 28 -53.5 142t-67.5 177q-439 13 -895 3q-23 -56 -66.5 -164.5t-64.5 -157.5h-401q347 710 692 1526q124 -15 289.5 -17t289.5 17
q313 -739 697 -1526zM647 530q363 -10 725 0q-194 485 -368 807q-105 -196 -357 -807z" />
    <glyph glyph-name="Acircumflex" unicode="&#xc2;" horiz-adv-x="2025" 
d="M815 1714q-162 13 -321 0q27 23 80 66.5t79.5 66t66.5 56.5t73.5 65.5t68.5 65.5q148 -6 287 0q119 -112 381 -320q-154 12 -318 0q-129 143 -202 209q-82 -75 -195 -209zM1997 0h-420q-11 28 -53.5 142t-67.5 177q-439 13 -895 3q-23 -56 -66.5 -164.5t-64.5 -157.5
h-401q347 710 692 1526q124 -15 289.5 -17t289.5 17q313 -739 697 -1526zM647 530q363 -10 725 0q-194 485 -368 807q-105 -196 -357 -807z" />
    <glyph glyph-name="Atilde" unicode="&#xc3;" horiz-adv-x="2025" 
d="M713 1860q-170 0 -269 -109q-1 5 -1 17t-1 18q12 64 33.5 112t59 88t97 61t140.5 21q69 0 139 -17t121 -38t125.5 -38t151.5 -17q171 0 270 104q2 -10 2 -30q-12 -62 -33 -109.5t-57.5 -88t-95.5 -62t-138 -21.5q-71 0 -144 17t-125.5 37.5t-127 37.5t-147.5 17zM1997 0
h-420q-11 28 -53.5 142t-67.5 177q-439 13 -895 3q-23 -56 -66.5 -164.5t-64.5 -157.5h-401q347 710 692 1526q124 -15 289.5 -17t289.5 17q313 -739 697 -1526zM647 530q363 -10 725 0q-194 485 -368 807q-105 -196 -357 -807z" />
    <glyph glyph-name="Adieresis" unicode="&#xc4;" horiz-adv-x="2025" 
d="M696 1710q-91 0 -136.5 30.5t-45.5 96.5q0 127 182 127q199 0 199 -127q0 -67 -49 -97t-150 -30zM1309 1710q-183 0 -183 127t183 127q198 0 198 -127q0 -67 -48 -97t-150 -30zM1997 0h-420q-11 28 -53.5 142t-67.5 177q-439 13 -895 3q-23 -56 -66.5 -164.5
t-64.5 -157.5h-401q347 710 692 1526q124 -15 289.5 -17t289.5 17q313 -739 697 -1526zM647 530q363 -10 725 0q-194 485 -368 807q-105 -196 -357 -807z" />
    <glyph glyph-name="Aring" unicode="&#xc5;" horiz-adv-x="2025" 
d="M1014 1645q-151 0 -232.5 61.5t-81.5 175.5q0 113 82 175.5t232 62.5q147 0 227 -61.5t80 -176.5q0 -114 -80 -175.5t-227 -61.5zM1014 2001q-75 0 -117.5 -32t-42.5 -89q0 -56 42 -86.5t118 -30.5q74 0 114.5 30t40.5 87t-41 89t-114 32zM1997 0h-420q-11 28 -53.5 142
t-67.5 177q-439 13 -895 3q-23 -56 -66.5 -164.5t-64.5 -157.5h-401q347 710 692 1526q124 -15 289.5 -17t289.5 17q313 -739 697 -1526zM647 530q363 -10 725 0q-194 485 -368 807q-105 -196 -357 -807z" />
    <glyph glyph-name="AE" unicode="&#xc6;" horiz-adv-x="3037" 
d="M2916 1196q-218 49 -565 76.5t-639 21.5q-15 -218 -12 -440q545 -12 1034 35q-24 -136 0 -275q-505 44 -1034 33q-3 -193 14 -428q296 -5 642 24.5t560 80.5q-24 -162 0 -324h-1577q9 190 13 324q-361 6 -725 0q-112 -165 -226 -324h-401q582 751 1110 1526
q373 -19 971.5 -20t834.5 16q-24 -163 0 -326zM768 526q275 -8 588 -2q6 460 0 793h-23q-207 -273 -565 -791z" />
    <glyph glyph-name="Ccedilla" unicode="&#xc7;" horiz-adv-x="2152" 
d="M1118 -152q109 5 190.5 -6.5t128.5 -37.5t69.5 -59.5t23.5 -76.5q0 -200 -430 -200q-272 0 -477 104q15 80 0 154q92 -62 210 -94.5t242 -32.5q225 0 225 98q0 52 -82 80t-284 28l49 166q-424 35 -656.5 246t-232.5 553q0 255 133.5 435t376.5 270t578 90q424 0 837 -170
q-19 -163 0 -326q-408 246 -819 250q-229 1 -397.5 -62.5t-260 -188t-91.5 -298.5q0 -256 188.5 -406.5t548.5 -150.5q486 0 831 326q-3 -35 -3 -73.5t1.5 -65.5t7 -68.5t8 -56t9.5 -54.5q-176 -129 -386.5 -192t-498.5 -64z" />
    <glyph glyph-name="Egrave" unicode="&#xc8;" horiz-adv-x="1939" 
d="M823 1698q-137 92 -504 332q65 -12 225 -12t224 12q181 -223 305 -332q-31 2 -125 2t-125 -2zM176 0q19 292 19 767.5t-19 758.5q212 -17 775 -21.5t868 15.5q-12 -152 0 -308q-207 40 -587 63.5t-685 20.5q-7 -242 -4 -436q552 -9 1130 29q-12 -131 0 -258
q-584 33 -1130 22q0 -281 8 -422q305 -3 683.5 20.5t584.5 61.5q-12 -157 0 -313h-1643z" />
    <glyph glyph-name="Eacute" unicode="&#xc9;" horiz-adv-x="1939" 
d="M817 1698q44 39 92 90t123 138.5t90 103.5q64 -12 223.5 -12t225.5 12q-174 -107 -504 -332q-31 3 -125 3t-125 -3zM176 0q19 292 19 767.5t-19 758.5q212 -17 775 -21.5t868 15.5q-12 -152 0 -308q-207 40 -587 63.5t-685 20.5q-7 -242 -4 -436q552 -9 1130 29
q-12 -131 0 -258q-584 33 -1130 22q0 -281 8 -422q305 -3 683.5 20.5t584.5 61.5q-12 -157 0 -313h-1643z" />
    <glyph glyph-name="Ecircumflex" unicode="&#xca;" horiz-adv-x="1939" 
d="M449 1710q27 23 80 66.5t79.5 66t66.5 56.5t73.5 65.5t68.5 65.5q148 -6 287 0q119 -112 381 -320q-154 12 -318 0q-129 143 -202 209q-82 -75 -195 -209q-162 13 -321 0zM176 0q19 292 19 767.5t-19 758.5q212 -17 775 -21.5t868 15.5q-12 -152 0 -308
q-207 40 -587 63.5t-685 20.5q-7 -242 -4 -436q552 -9 1130 29q-12 -131 0 -258q-584 33 -1130 22q0 -281 8 -422q305 -3 683.5 20.5t584.5 61.5q-12 -157 0 -313h-1643z" />
    <glyph glyph-name="Edieresis" unicode="&#xcb;" horiz-adv-x="1939" 
d="M651 1706q-91 0 -136.5 30.5t-45.5 96.5q0 127 182 127q199 0 199 -127q0 -67 -49 -97t-150 -30zM1264 1706q-183 0 -183 127t183 127q198 0 198 -127q0 -67 -48 -97t-150 -30zM176 0q19 292 19 767.5t-19 758.5q212 -17 775 -21.5t868 15.5q-12 -152 0 -308
q-207 40 -587 63.5t-685 20.5q-7 -242 -4 -436q552 -9 1130 29q-12 -131 0 -258q-584 33 -1130 22q0 -281 8 -422q305 -3 683.5 20.5t584.5 61.5q-12 -157 0 -313h-1643z" />
    <glyph glyph-name="Igrave" unicode="&#xcc;" horiz-adv-x="757" 
d="M236 1702q-137 92 -504 332q64 -12 224 -12t224 12q181 -223 305 -332q-31 2 -124.5 2t-124.5 -2zM184 0q19 287 19 763t-19 763q209 -29 385 0q-19 -283 -18 -764.5t22 -761.5h-389z" />
    <glyph glyph-name="Iacute" unicode="&#xcd;" horiz-adv-x="757" 
d="M229 1702q34 30 77.5 75.5t75 81t81.5 93t72 82.5q65 -12 223.5 -12t224.5 12q-174 -107 -504 -332q-31 3 -125 3t-125 -3zM184 0q19 287 19 763t-19 763q209 -29 385 0q-19 -283 -18 -764.5t22 -761.5h-389z" />
    <glyph glyph-name="Icircumflex" unicode="&#xce;" horiz-adv-x="731" 
d="M-102 1714q17 16 59 56t58.5 55.5t49.5 48t53 53t47 49.5t52 58q148 -6 287 0q110 -118 332 -320q-154 12 -318 0q-79 120 -153 209q-66 -81 -146 -209q-162 13 -321 0zM188 0q19 287 19 763t-19 763q208 -29 383 0q-18 -282 -16 -764.5t23 -761.5h-390z" />
    <glyph glyph-name="Idieresis" unicode="&#xcf;" horiz-adv-x="731" 
d="M96 1751q-182 0 -182 127t182 127q199 0 199 -127q0 -65 -49 -96t-150 -31zM618 1751q-182 0 -182 127t182 127q199 0 199 -127q0 -65 -49 -96t-150 -31zM186 0q19 287 19 763t-19 763q210 -28 385 0q-18 -282 -17 -764.5t21 -761.5h-389z" />
    <glyph glyph-name="Eth" unicode="&#xd0;" horiz-adv-x="2258" 
d="M1102 1536q501 0 782 -202.5t281 -561.5q0 -365 -293 -570.5t-815 -205.5q-128 0 -410 2t-430 2q16 262 16 700q-96 -2 -278 -10q6 82 0 164q182 -8 278 -10q0 426 -16 682q208 0 483.5 5t401.5 5zM1057 223q346 0 539.5 145t193.5 404q0 255 -190.5 397t-530.5 142
q-54 0 -221.5 -4.5t-267.5 -3.5q-5 -390 -5 -459q259 4 386 10q-3 -82 0 -164q-190 9 -386 12l7 -462q36 -1 126 -6t178.5 -8t170.5 -3z" />
    <glyph glyph-name="Ntilde" unicode="&#xd1;" horiz-adv-x="2201" 
d="M799 1847q-171 0 -269 -108q-1 5 -1 17t-1 18q12 64 33.5 112t59 88t97 61t140.5 21q69 0 139 -17t121 -38t125.5 -38t151.5 -17q171 0 270 104q2 -10 2 -31q-12 -62 -33 -109.5t-57.5 -87.5t-95.5 -61.5t-138 -21.5q-71 0 -144 17t-125.5 37t-127 37t-147.5 17zM1530 0
q-506 660 -1004 1241q-9 -605 19 -1241h-369q24 763 0 1526q107 -13 254 -13.5t254 13.5q468 -631 989 -1254q10 677 -18 1254q202 -28 364 0q-21 -763 6 -1526h-495z" />
    <glyph glyph-name="Ograve" unicode="&#xd2;" horiz-adv-x="2246" 
d="M983 1698q-137 92 -504 332q65 -12 225 -12t224 12q181 -223 305 -332q-31 2 -125 2t-125 -2zM1124 -31q-486 0 -758 210t-272 587q0 379 272 589t758 210t757 -210.5t271 -588.5t-271 -587.5t-757 -209.5zM1124 199q318 0 497 146.5t179 412.5q0 270 -179.5 422.5
t-496.5 152.5q-319 0 -496 -152t-177 -423q0 -267 176.5 -413t496.5 -146z" />
    <glyph glyph-name="Oacute" unicode="&#xd3;" horiz-adv-x="2246" 
d="M977 1698q44 39 92 90t123 138.5t90 103.5q64 -12 223.5 -12t225.5 12q-174 -107 -504 -332q-31 3 -125 3t-125 -3zM1124 -31q-486 0 -758 210t-272 587q0 379 272 589t758 210t757 -210.5t271 -588.5t-271 -587.5t-757 -209.5zM1124 199q318 0 497 146.5t179 412.5
q0 270 -179.5 422.5t-496.5 152.5q-319 0 -496 -152t-177 -423q0 -267 176.5 -413t496.5 -146z" />
    <glyph glyph-name="Ocircumflex" unicode="&#xd4;" horiz-adv-x="2246" 
d="M606 1710q27 22 97.5 80.5t100 83.5t79 69.5t92.5 86.5q148 -6 287 0q125 -117 380 -320q-154 12 -317 0q-125 139 -203 209q-77 -71 -194 -209q-163 13 -322 0zM1124 -31q-486 0 -758 210t-272 587q0 379 272 589t758 210t757 -210.5t271 -588.5t-271 -587.5
t-757 -209.5zM1124 199q318 0 497 146.5t179 412.5q0 270 -179.5 422.5t-496.5 152.5q-319 0 -496 -152t-177 -423q0 -267 176.5 -413t496.5 -146z" />
    <glyph glyph-name="Otilde" unicode="&#xd5;" horiz-adv-x="2246" 
d="M1370 1747q-71 0 -144.5 17t-126 37t-127 37t-147.5 17q-170 0 -268 -108q-1 5 -1 17t-1 18q12 64 33.5 112t59 88t97 61t140.5 21q69 0 139 -17t120.5 -38t125 -38t151.5 -17q172 0 271 104q2 -10 2 -30q-12 -62 -33 -109.5t-57.5 -88t-95.5 -62t-138 -21.5zM1124 -31
q-486 0 -758 210t-272 587q0 379 272 589t758 210t757 -210.5t271 -588.5t-271 -587.5t-757 -209.5zM1124 199q318 0 497 146.5t179 412.5q0 270 -179.5 422.5t-496.5 152.5q-319 0 -496 -152t-177 -423q0 -267 176.5 -413t496.5 -146z" />
    <glyph glyph-name="Odieresis" unicode="&#xd6;" horiz-adv-x="2246" 
d="M809 1706q-91 0 -136.5 30.5t-45.5 96.5q0 127 182 127q199 0 199 -127q0 -67 -49 -97t-150 -30zM1421 1706q-91 0 -136.5 30.5t-45.5 96.5q0 127 182 127q199 0 199 -127q0 -67 -48.5 -97t-150.5 -30zM1124 -31q-486 0 -758 210t-272 587q0 379 272 589t758 210
t757 -210.5t271 -588.5t-271 -587.5t-757 -209.5zM1124 199q318 0 497 146.5t179 412.5q0 270 -179.5 422.5t-496.5 152.5q-319 0 -496 -152t-177 -423q0 -267 176.5 -413t496.5 -146z" />
    <glyph glyph-name="multiply" unicode="&#xd7;" horiz-adv-x="1091" 
d="M969 1022q-111 -93 -328 -281q196 -174 328 -284q-62 -40 -109 -103q-182 178 -315 299q-125 -115 -314 -299q-48 65 -108 103q128 107 326 282q-154 141 -326 283q64 42 108 100q173 -165 314 -295q182 164 315 295q46 -60 109 -100z" />
    <glyph glyph-name="Oslash" unicode="&#xd8;" horiz-adv-x="2246" 
d="M1896 1339q256 -208 256 -573q0 -378 -271 -587.5t-757 -209.5q-407 0 -671 152q-24 -21 -109 -94t-133 -115q-45 77 -115 119q158 126 228 184q-230 204 -230 551q0 379 271.5 588t758.5 209q383 0 643 -136q14 13 213 191q50 -77 115 -119q-17 -14 -89.5 -71.5
t-109.5 -88.5zM451 758q0 -212 112 -348q510 417 983 825q-173 98 -422 98q-319 0 -496 -152t-177 -423zM1124 199q318 0 497 146.5t179 412.5q0 240 -141 387q-345 -283 -985 -834q171 -112 450 -112z" />
    <glyph glyph-name="Ugrave" unicode="&#xd9;" horiz-adv-x="2117" 
d="M913 1702q-174 117 -503 332q64 -12 224 -12t224 12q181 -223 305 -332q-31 2 -125 2t-125 -2zM1968 760q0 -379 -241.5 -592t-671.5 -213q-441 0 -676.5 211t-235.5 594q0 518 -16 766q207 -30 381 0q-16 -248 -16 -774q0 -270 143.5 -419t419.5 -149q273 0 417 149.5
t144 418.5q0 557 -14 774q206 -30 380 0q-14 -260 -14 -766z" />
    <glyph glyph-name="Uacute" unicode="&#xda;" horiz-adv-x="2117" 
d="M907 1702q44 39 92 90t123 138.5t90 103.5q65 -12 224 -12t225 12q-174 -107 -504 -332q-31 3 -125 3t-125 -3zM1968 760q0 -379 -241.5 -592t-671.5 -213q-441 0 -676.5 211t-235.5 594q0 518 -16 766q207 -30 381 0q-16 -248 -16 -774q0 -270 143.5 -419t419.5 -149
q273 0 417 149.5t144 418.5q0 557 -14 774q206 -30 380 0q-14 -260 -14 -766z" />
    <glyph glyph-name="Ucircumflex" unicode="&#xdb;" horiz-adv-x="2117" 
d="M539 1714q27 23 80 66.5t79.5 66t66.5 56.5t73.5 65.5t68.5 65.5q148 -6 287 0q119 -112 381 -320q-154 12 -318 0q-129 143 -202 209q-82 -75 -195 -209q-162 13 -321 0zM1968 760q0 -379 -241.5 -592t-671.5 -213q-441 0 -676.5 211t-235.5 594q0 518 -16 766
q207 -30 381 0q-16 -248 -16 -774q0 -270 143.5 -419t419.5 -149q273 0 417 149.5t144 418.5q0 557 -14 774q206 -30 380 0q-14 -260 -14 -766z" />
    <glyph glyph-name="Udieresis" unicode="&#xdc;" horiz-adv-x="2117" 
d="M741 1710q-91 0 -136.5 30.5t-45.5 96.5q0 127 182 127q199 0 199 -127q0 -67 -49 -97t-150 -30zM1354 1710q-183 0 -183 127t183 127q198 0 198 -127q0 -67 -48 -97t-150 -30zM1968 760q0 -379 -241.5 -592t-671.5 -213q-441 0 -676.5 211t-235.5 594q0 518 -16 766
q207 -30 381 0q-16 -248 -16 -774q0 -270 143.5 -419t419.5 -149q273 0 417 149.5t144 418.5q0 557 -14 774q206 -30 380 0q-14 -260 -14 -766z" />
    <glyph glyph-name="Yacute" unicode="&#xdd;" horiz-adv-x="1824" 
d="M1026 1686q-31 3 -125 3t-125 -3q34 30 77.5 75t75 80.5t81 93t71.5 82.5q65 -12 224 -12t225 12q-189 -116 -504 -331zM1874 1526q-423 -491 -782 -961q-24 -283 0 -565h-357q24 282 0 565q-393 511 -784 961q112 -14 228.5 -14.5t201.5 14.5q268 -394 539 -744
q271 350 536 744q170 -31 418 0z" />
    <glyph glyph-name="Thorn" unicode="&#xde;" horiz-adv-x="1986" 
d="M1126 1272q173 0 307 -24t223 -67.5t146.5 -107.5t82 -139t24.5 -168q0 -116 -40.5 -205t-129.5 -156.5t-243.5 -103t-369.5 -35.5q-108 0 -307.5 -3.5t-265.5 -4.5l12 -258h-389q19 277 19 762.5t-19 763.5q207 -28 385 0l-12 -246q368 -8 577 -8zM1034 465
q262 0 387 74t125 227q0 307 -512 307q-161 0 -489 -8q-3 -320 2 -592q328 -8 487 -8z" />
    <glyph glyph-name="germandbls" unicode="&#xdf;" horiz-adv-x="1681" 
d="M1047 -37q-184 0 -390 66q12 124 0 247q183 -77 344 -77q124 0 193.5 58t69.5 151q0 142 -164 212.5t-432 55.5q12 84 0 168q99 -6 177.5 19t124.5 70t69.5 99t23.5 111q0 109 -75.5 175t-207.5 66q-163 0 -252.5 -104.5t-89.5 -310.5q0 -510 25 -969h-346q25 540 10 993
q-3 109 13.5 199t62.5 171.5t120.5 137t194.5 88.5t277 33q292 0 457 -121t165 -307q0 -238 -311 -365q67 -1 133 -14t135.5 -44.5t122 -77.5t86 -119.5t33.5 -165.5q0 -203 -153 -324t-416 -121z" />
    <glyph glyph-name="agrave" unicode="&#xe0;" horiz-adv-x="1542" 
d="M858 1288q-38 3 -120.5 3t-114.5 -3q-155 140 -465 367q69 -12 211.5 -12t208.5 12q183 -255 280 -367zM1454 0h-332q-36 108 -47 254q-62 -92 -130 -151.5t-172.5 -96.5t-240.5 -37q-216 0 -329 85t-113 220q0 154 158.5 241t466.5 87h356q-4 75 -21 126.5t-56 94
t-111.5 63.5t-180.5 21q-174 0 -329.5 -55.5t-247.5 -144.5q11 60 11 149.5t-11 142.5q295 138 625 138q314 0 474 -117t160 -387q2 -214 16.5 -360.5t53.5 -272.5zM692 186q210 0 381 115v180v35h-174q-233 0 -348 -41t-115 -133q0 -74 65.5 -115t190.5 -41z" />
    <glyph glyph-name="aacute" unicode="&#xe1;" horiz-adv-x="1542" 
d="M856 1288q-32 3 -114.5 3t-120.5 -3q122 140 280 367q67 -12 209 -12t211 12q-310 -227 -465 -367zM1454 0h-332q-36 108 -47 254q-62 -92 -130 -151.5t-172.5 -96.5t-240.5 -37q-216 0 -329 85t-113 220q0 154 158.5 241t466.5 87h356q-4 75 -21 126.5t-56 94
t-111.5 63.5t-180.5 21q-174 0 -329.5 -55.5t-247.5 -144.5q11 60 11 149.5t-11 142.5q295 138 625 138q314 0 474 -117t160 -387q2 -214 16.5 -360.5t53.5 -272.5zM692 186q210 0 381 115v180v35h-174q-233 0 -348 -41t-115 -133q0 -74 65.5 -115t190.5 -41z" />
    <glyph glyph-name="acircumflex" unicode="&#xe2;" horiz-adv-x="1542" 
d="M565 1288q-138 12 -280 0q167 177 319 371q134 -9 268 0q153 -180 349 -371q-148 12 -293 0q-109 145 -185 234q-110 -136 -178 -234zM1454 0h-332q-36 108 -47 254q-62 -92 -130 -151.5t-172.5 -96.5t-240.5 -37q-216 0 -329 85t-113 220q0 154 158.5 241t466.5 87h356
q-4 75 -21 126.5t-56 94t-111.5 63.5t-180.5 21q-174 0 -329.5 -55.5t-247.5 -144.5q11 60 11 149.5t-11 142.5q295 138 625 138q314 0 474 -117t160 -387q2 -214 16.5 -360.5t53.5 -272.5zM692 186q210 0 381 115v180v35h-174q-233 0 -348 -41t-115 -133q0 -74 65.5 -115
t190.5 -41z" />
    <glyph glyph-name="atilde" unicode="&#xe3;" horiz-adv-x="1542" 
d="M500 1456q-149 0 -228 -125q-5 5 -8 17q14 57 26 95.5t34.5 81t50.5 68t72.5 42t101.5 16.5q58 0 118 -17.5t102.5 -38t106 -38t128.5 -17.5q143 0 229 105q0 -3 2 -10t2 -11q-13 -62 -30 -106.5t-47.5 -86.5t-79.5 -63.5t-117 -21.5q-61 0 -124 17t-107.5 38t-107.5 38
t-124 17zM1454 0h-332q-36 108 -47 254q-62 -92 -130 -151.5t-172.5 -96.5t-240.5 -37q-216 0 -329 85t-113 220q0 154 158.5 241t466.5 87h356q-4 75 -21 126.5t-56 94t-111.5 63.5t-180.5 21q-174 0 -329.5 -55.5t-247.5 -144.5q11 60 11 149.5t-11 142.5q295 138 625 138
q314 0 474 -117t160 -387q2 -214 16.5 -360.5t53.5 -272.5zM692 186q210 0 381 115v180v35h-174q-233 0 -348 -41t-115 -133q0 -74 65.5 -115t190.5 -41z" />
    <glyph glyph-name="adieresis" unicode="&#xe4;" horiz-adv-x="1542" 
d="M459 1298q-172 0 -172 129t172 129q188 0 188 -129t-188 -129zM1028 1298q-172 0 -172 129t172 129q186 0 186 -129t-186 -129zM1454 0h-332q-36 108 -47 254q-62 -92 -130 -151.5t-172.5 -96.5t-240.5 -37q-216 0 -329 85t-113 220q0 154 158.5 241t466.5 87h356
q-4 75 -21 126.5t-56 94t-111.5 63.5t-180.5 21q-174 0 -329.5 -55.5t-247.5 -144.5q11 60 11 149.5t-11 142.5q295 138 625 138q314 0 474 -117t160 -387q2 -214 16.5 -360.5t53.5 -272.5zM692 186q210 0 381 115v180v35h-174q-233 0 -348 -41t-115 -133q0 -74 65.5 -115
t190.5 -41z" />
    <glyph glyph-name="aring" unicode="&#xe5;" horiz-adv-x="1542" 
d="M754 1260q-137 0 -211 59t-74 168q0 108 74.5 168.5t210.5 60.5q133 0 206.5 -60t73.5 -169t-73 -168t-207 -59zM754 1602q-71 0 -109.5 -30t-38.5 -87q0 -54 38.5 -83.5t109.5 -29.5q69 0 107 29.5t38 83.5q0 57 -38 87t-107 30zM1454 0h-332q-36 108 -47 254
q-62 -92 -130 -151.5t-172.5 -96.5t-240.5 -37q-216 0 -329 85t-113 220q0 154 158.5 241t466.5 87h356q-4 75 -21 126.5t-56 94t-111.5 63.5t-180.5 21q-174 0 -329.5 -55.5t-247.5 -144.5q11 60 11 149.5t-11 142.5q295 138 625 138q314 0 474 -117t160 -387
q2 -214 16.5 -360.5t53.5 -272.5zM692 186q210 0 381 115v180v35h-174q-233 0 -348 -41t-115 -133q0 -74 65.5 -115t190.5 -41z" />
    <glyph glyph-name="ae" unicode="&#xe6;" horiz-adv-x="2523" 
d="M2425 381q-20 -59 -20 -141.5t20 -139.5q-128 -63 -288 -96t-314 -33q-510 0 -660 299q-70 -99 -153 -163.5t-203 -101t-275 -36.5q-216 0 -329 85t-113 220q0 161 157 246.5t468 85.5h391q-1 44 -7 78.5t-21 70.5t-44.5 62t-72.5 47t-108.5 32t-150.5 11
q-174 0 -329.5 -56t-247.5 -146q11 61 11 151t-11 143q295 138 625 138q180 0 301.5 -47.5t193.5 -161.5q67 103 195.5 158t298.5 55q150 0 279 -41.5t224 -119t143 -199t32 -271.5q-663 12 -1004 2q18 -153 124.5 -233t322.5 -76q143 3 306 51.5t259 126.5zM1739 922
q-153 0 -241 -79.5t-89 -232.5q292 -15 674 -2q-13 151 -105 232.5t-239 81.5zM692 186q248 0 449 136q-32 95 -35 198h-207q-237 0 -350 -40t-113 -138q0 -74 65.5 -115t190.5 -41z" />
    <glyph glyph-name="ccedilla" unicode="&#xe7;" horiz-adv-x="1484" 
d="M862 905q-226 0 -347.5 -89t-121.5 -257t121.5 -257t347.5 -89q321 0 535 182q-20 -58 -20 -144.5t20 -141.5q-255 -129 -572 -132l-32 -112q185 10 270.5 -37.5t85.5 -132.5q0 -90 -91.5 -140.5t-281.5 -50.5q-239 0 -414 99q12 78 0 147q78 -59 182 -90t212 -31
q194 0 194 95q0 50 -71 76t-248 26l45 158q-295 29 -449.5 177.5t-154.5 397.5q0 275 190.5 427.5t548.5 152.5q325 0 586 -129q-20 -57 -20 -160t20 -160q-101 98 -240.5 156.5t-294.5 58.5z" />
    <glyph glyph-name="egrave" unicode="&#xe8;" horiz-adv-x="1544" 
d="M872 1288q-38 3 -120.5 3t-114.5 -3q-155 140 -465 367q69 -12 211.5 -12t208.5 12q183 -255 280 -367zM1446 381q-14 -59 -14 -141.5t14 -139.5q-128 -63 -290.5 -96t-330.5 -33q-369 0 -561 153t-192 431q0 275 182 430.5t496 155.5q155 0 286.5 -41.5t227 -119
t143 -199t31.5 -271.5q-683 12 -1026 2q45 -314 450 -309q156 3 322 51.5t262 126.5zM750 922q-155 0 -245 -79.5t-97 -230.5q289 -9 696 -2q-19 151 -112 231.5t-242 80.5z" />
    <glyph glyph-name="eacute" unicode="&#xe9;" horiz-adv-x="1544" 
d="M870 1288q-32 3 -114.5 3t-120.5 -3q122 140 280 367q68 -12 209.5 -12t210.5 12q-310 -227 -465 -367zM1446 381q-14 -59 -14 -141.5t14 -139.5q-128 -63 -290.5 -96t-330.5 -33q-369 0 -561 153t-192 431q0 275 182 430.5t496 155.5q155 0 286.5 -41.5t227 -119
t143 -199t31.5 -271.5q-683 12 -1026 2q45 -314 450 -309q156 3 322 51.5t262 126.5zM750 922q-155 0 -245 -79.5t-97 -230.5q289 -9 696 -2q-19 151 -112 231.5t-242 80.5z" />
    <glyph glyph-name="ecircumflex" unicode="&#xea;" horiz-adv-x="1544" 
d="M580 1288q-139 12 -281 0q167 177 319 371q135 -9 269 0q158 -186 348 -371q-148 12 -293 0q-116 155 -184 234q-110 -136 -178 -234zM1446 381q-14 -59 -14 -141.5t14 -139.5q-128 -63 -290.5 -96t-330.5 -33q-369 0 -561 153t-192 431q0 275 182 430.5t496 155.5
q155 0 286.5 -41.5t227 -119t143 -199t31.5 -271.5q-683 12 -1026 2q45 -314 450 -309q156 3 322 51.5t262 126.5zM750 922q-155 0 -245 -79.5t-97 -230.5q289 -9 696 -2q-19 151 -112 231.5t-242 80.5z" />
    <glyph glyph-name="edieresis" unicode="&#xeb;" horiz-adv-x="1544" 
d="M471 1298q-172 0 -172 129t172 129q188 0 188 -129t-188 -129zM1040 1298q-172 0 -172 129t172 129q187 0 187 -129t-187 -129zM1446 381q-14 -59 -14 -141.5t14 -139.5q-128 -63 -290.5 -96t-330.5 -33q-369 0 -561 153t-192 431q0 275 182 430.5t496 155.5
q155 0 286.5 -41.5t227 -119t143 -199t31.5 -271.5q-683 12 -1026 2q45 -314 450 -309q156 3 322 51.5t262 126.5zM750 922q-155 0 -245 -79.5t-97 -230.5q289 -9 696 -2q-19 151 -112 231.5t-242 80.5z" />
    <glyph glyph-name="igrave" unicode="&#xec;" horiz-adv-x="593" 
d="M164 1288q-130 144 -385 367q68 -12 210 -12t208 12q118 -236 202 -367q-38 2 -120.5 2t-114.5 -2zM117 1102q203 -33 360 0q-39 -551 0 -1102h-360q36 547 0 1102z" />
    <glyph glyph-name="iacute" unicode="&#xed;" horiz-adv-x="593" 
d="M160 1288q84 131 202 367q66 -12 208.5 -12t211.5 12q-253 -218 -385 -367q-34 2 -115.5 2t-121.5 -2zM117 1102q203 -33 360 0q-39 -551 0 -1102h-360q36 547 0 1102z" />
    <glyph glyph-name="icircumflex" unicode="&#xee;" horiz-adv-x="593" 
d="M-123 1284q136 159 283 369q125 -6 254 0q151 -206 295 -369q-147 12 -293 0q-73 140 -129 234q-74 -135 -121 -234q-143 12 -289 0zM117 1102q203 -33 360 0q-39 -551 0 -1102h-360q36 547 0 1102z" />
    <glyph glyph-name="idieresis" unicode="&#xef;" horiz-adv-x="593" 
d="M31 1294q-172 0 -172 129t172 129q188 0 188 -129t-188 -129zM535 1294q-173 0 -173 129t173 129q186 0 186 -129t-186 -129zM117 1102q203 -33 360 0q-39 -551 0 -1102h-360q36 547 0 1102z" />
    <glyph glyph-name="eth" unicode="&#xf0;" horiz-adv-x="1626" 
d="M1104 1460q110 -69 192 -161.5t130.5 -196t72 -211t23.5 -219.5q0 -102 -20 -196t-71 -188.5t-130 -163.5t-207 -112t-291 -43q-175 0 -315 45.5t-230 126.5t-138 190t-48 238q0 250 163 400.5t429 150.5q106 0 196.5 -27t150.5 -68.5t106 -97.5t70.5 -108t37.5 -106h28
q-3 217 -90.5 380t-236.5 269q-134 -76 -232 -145q-21 53 -73 114q91 38 200 94q-194 101 -415 107q32 48 49 110q307 -14 536 -120q103 58 238 145q24 -53 76 -115q-73 -30 -201 -92zM809 164q48 0 95 8.5t100.5 33t93 62.5t66 104t26.5 150q0 178 -114.5 283.5
t-282.5 105.5q-165 0 -277.5 -99.5t-112.5 -266.5q0 -117 56 -205t147 -132t203 -44z" />
    <glyph glyph-name="ntilde" unicode="&#xf1;" horiz-adv-x="1579" 
d="M582 1659q58 0 117.5 -17.5t102 -38t106 -38t128.5 -17.5q144 0 230 105q0 -3 2 -10t2 -11q-10 -49 -22.5 -86t-34 -75t-49.5 -62t-71 -39.5t-98 -15.5q-61 0 -124 17t-107.5 38t-107.5 38t-124 17q-148 0 -227 -125q-5 5 -8 17q14 57 26 95.5t34.5 81t50.5 68t72.5 42
t101.5 16.5zM127 0q65 465 0 1071q255 15 381 72q-51 -210 -66 -441h29q62 194 206.5 315.5t338.5 121.5q93 0 166 -25t120.5 -67.5t79 -103t45 -128.5t13.5 -147q0 -33 -0.5 -129.5t0 -146.5t2.5 -129t8 -142.5t16 -120.5h-348v481q0 186 -76.5 293t-218.5 107
q-161 0 -250.5 -120.5t-89.5 -318.5v-442h-356z" />
    <glyph glyph-name="ograve" unicode="&#xf2;" horiz-adv-x="1566" 
d="M655 1294q-155 140 -465 367q69 -12 211.5 -12t208.5 12q178 -249 281 -367q-38 3 -121 3t-115 -3zM784 -29q-336 0 -524 154.5t-188 429.5t187.5 428.5t524.5 153.5q335 0 523 -153.5t188 -428.5t-188 -429.5t-523 -154.5zM784 176q178 0 276.5 99t98.5 280
q0 168 -99.5 265.5t-275.5 97.5q-178 0 -277 -97t-99 -266q0 -181 98 -280t278 -99z" />
    <glyph glyph-name="oacute" unicode="&#xf3;" horiz-adv-x="1566" 
d="M653 1294q127 146 281 367q68 -12 209.5 -12t210.5 12q-310 -227 -465 -367q-32 3 -115 3t-121 -3zM784 -29q-336 0 -524 154.5t-188 429.5t187.5 428.5t524.5 153.5q335 0 523 -153.5t188 -428.5t-188 -429.5t-523 -154.5zM784 176q178 0 276.5 99t98.5 280
q0 168 -99.5 265.5t-275.5 97.5q-178 0 -277 -97t-99 -266q0 -181 98 -280t278 -99z" />
    <glyph glyph-name="ocircumflex" unicode="&#xf4;" horiz-adv-x="1566" 
d="M317 1294q173 183 320 371q134 -9 268 0q158 -186 348 -371q-148 12 -292 0q-109 145 -185 234q-110 -136 -178 -234q-139 12 -281 0zM784 -29q-336 0 -524 154.5t-188 429.5t187.5 428.5t524.5 153.5q335 0 523 -153.5t188 -428.5t-188 -429.5t-523 -154.5zM784 176
q178 0 276.5 99t98.5 280q0 168 -99.5 265.5t-275.5 97.5q-178 0 -277 -97t-99 -266q0 -181 98 -280t278 -99z" />
    <glyph glyph-name="otilde" unicode="&#xf5;" horiz-adv-x="1566" 
d="M582 1657q58 0 117.5 -17.5t102 -38t106 -38t128.5 -17.5q144 0 230 105q0 -3 2 -10t2 -11q-10 -49 -22.5 -86t-34 -75t-49.5 -62t-71 -39.5t-98 -15.5q-61 0 -124 17t-107.5 38t-107.5 38t-124 17q-148 0 -227 -125q-5 5 -8 17q14 57 26 95.5t34.5 81t50.5 68t72.5 42
t101.5 16.5zM784 -29q-336 0 -524 154.5t-188 429.5t187.5 428.5t524.5 153.5q335 0 523 -153.5t188 -428.5t-188 -429.5t-523 -154.5zM784 176q178 0 276.5 99t98.5 280q0 168 -99.5 265.5t-275.5 97.5q-178 0 -277 -97t-99 -266q0 -181 98 -280t278 -99z" />
    <glyph glyph-name="odieresis" unicode="&#xf6;" horiz-adv-x="1566" 
d="M489 1305q-172 0 -172 129t172 129q189 0 189 -129t-189 -129zM1059 1305q-172 0 -172 129t172 129q186 0 186 -129t-186 -129zM784 -29q-336 0 -524 154.5t-188 429.5t187.5 428.5t524.5 153.5q335 0 523 -153.5t188 -428.5t-188 -429.5t-523 -154.5zM784 176
q178 0 276.5 99t98.5 280q0 168 -99.5 265.5t-275.5 97.5q-178 0 -277 -97t-99 -266q0 -181 98 -280t278 -99z" />
    <glyph glyph-name="divide" unicode="&#xf7;" horiz-adv-x="1212" 
d="M598 1018q-156 0 -156 106q0 107 156 107q172 0 172 -107q0 -56 -42 -81t-130 -25zM1147 811q-7 -31 -7 -74.5t7 -77.5q-540 17 -1081 0q8 34 8 77.5t-8 74.5q539 -15 1081 0zM598 240q-156 0 -156 106q0 107 156 107q172 0 172 -107q0 -55 -42.5 -80.5t-129.5 -25.5z
" />
    <glyph glyph-name="oslash" unicode="&#xf8;" horiz-adv-x="1599" 
d="M1536 1081q-96 -76 -170 -139q141 -147 141 -383q0 -280 -187.5 -437t-520.5 -151q-270 3 -451 105q-117 -102 -192 -170q-29 50 -88 90q87 69 184 151q-166 149 -166 412q0 272 188 425t525 153q297 0 475 -119q88 76 174 153q43 -65 88 -90zM420 551q0 -133 55 -221
q204 170 588 501q-104 87 -266 87q-179 0 -278 -98t-99 -269zM1174 551q0 110 -46 197q-263 -221 -581 -498q92 -74 250 -74q179 0 278 98.5t99 276.5z" />
    <glyph glyph-name="ugrave" unicode="&#xf9;" horiz-adv-x="1509" 
d="M604 1294q-155 140 -465 367q69 -12 211.5 -12t208.5 12q178 -249 281 -367q-38 3 -121 3t-115 -3zM1393 1126q-71 -487 0 -1126h-379q55 217 61 383h-26q-59 -191 -198.5 -298.5t-336.5 -107.5q-90 0 -159.5 25t-114.5 67.5t-74 104t-41 128.5t-12 147q0 21 0.5 124
t0 143t-3 118.5t-9 135.5t-17.5 109q178 -3 334 47v-524q0 -172 68 -268t206 -96q179 0 261.5 108.5t82.5 294.5v438q195 -3 357 47z" />
    <glyph glyph-name="uacute" unicode="&#xfa;" horiz-adv-x="1509" 
d="M600 1294q127 146 281 367q68 -12 209 -12t210 12q-305 -223 -464 -367q-32 3 -115 3t-121 -3zM1393 1126q-71 -487 0 -1126h-379q55 217 61 383h-26q-59 -191 -198.5 -298.5t-336.5 -107.5q-90 0 -159.5 25t-114.5 67.5t-74 104t-41 128.5t-12 147q0 21 0.5 124t0 143
t-3 118.5t-9 135.5t-17.5 109q178 -3 334 47v-524q0 -172 68 -268t206 -96q179 0 261.5 108.5t82.5 294.5v438q195 -3 357 47z" />
    <glyph glyph-name="ucircumflex" unicode="&#xfb;" horiz-adv-x="1509" 
d="M266 1294q173 183 320 371q134 -9 268 0q158 -186 348 -371q-148 12 -293 0q-116 155 -184 234q-110 -136 -178 -234q-139 12 -281 0zM1393 1126q-71 -487 0 -1126h-379q55 217 61 383h-26q-59 -191 -198.5 -298.5t-336.5 -107.5q-90 0 -159.5 25t-114.5 67.5t-74 104
t-41 128.5t-12 147q0 21 0.5 124t0 143t-3 118.5t-9 135.5t-17.5 109q178 -3 334 47v-524q0 -172 68 -268t206 -96q179 0 261.5 108.5t82.5 294.5v438q195 -3 357 47z" />
    <glyph glyph-name="udieresis" unicode="&#xfc;" horiz-adv-x="1509" 
d="M438 1305q-172 0 -172 129t172 129q189 0 189 -129t-189 -129zM1008 1305q-172 0 -172 129t172 129q186 0 186 -129t-186 -129zM1393 1126q-71 -487 0 -1126h-379q55 217 61 383h-26q-59 -191 -198.5 -298.5t-336.5 -107.5q-90 0 -159.5 25t-114.5 67.5t-74 104
t-41 128.5t-12 147q0 21 0.5 124t0 143t-3 118.5t-9 135.5t-17.5 109q178 -3 334 47v-524q0 -172 68 -268t206 -96q179 0 261.5 108.5t82.5 294.5v438q195 -3 357 47z" />
    <glyph glyph-name="yacute" unicode="&#xfd;" horiz-adv-x="1523" 
d="M608 1294q127 146 281 367q68 -12 209.5 -12t210.5 12q-310 -227 -465 -367q-32 3 -115 3t-121 -3zM1092 94v291h-27q-58 -183 -195 -279t-340 -96q-110 0 -191.5 33t-129 94t-70 138.5t-22.5 173.5q0 22 0.5 123t0 139.5t-3 114.5t-9 131.5t-17.5 107.5q192 0 342 49
v-512q0 -75 14 -135t45 -110t87 -77.5t135 -27.5q340 0 340 387v426q188 0 340 49v-940q0 -49 -1.5 -85t-8.5 -90t-20 -95.5t-37.5 -92t-58 -87.5t-85.5 -74t-117 -60.5t-154.5 -38t-195.5 -14.5q-341 0 -600 131q19 56 19 134t-19 137q95 -81 254.5 -128t314.5 -47
q190 0 300 79t110 251z" />
    <glyph glyph-name="thorn" unicode="&#xfe;" horiz-adv-x="1607" 
d="M1010 1141q230 0 378 -155.5t148 -403.5q0 -270 -176 -442.5t-463 -172.5q-140 0 -250.5 41.5t-173.5 122.5q3 -291 31 -541q-208 25 -387 4q34 275 34 909t-34 998q252 15 381 72q-36 -146 -66 -813h27q26 59 62.5 112.5t87 103.5t110 86t134.5 57.5t157 21.5zM782 131
q119 0 213 48t151.5 147.5t57.5 236.5q0 159 -93 254.5t-259 95.5q-76 0 -137 -19.5t-101.5 -55.5t-69.5 -80.5t-44.5 -100t-22 -109t-6.5 -112.5v-176q129 -129 311 -129z" />
    <glyph glyph-name="ydieresis" unicode="&#xff;" horiz-adv-x="1523" 
d="M446 1305q-172 0 -172 129t172 129q189 0 189 -129t-189 -129zM1016 1305q-172 0 -172 129t172 129q186 0 186 -129t-186 -129zM1092 94v291h-27q-58 -183 -195 -279t-340 -96q-110 0 -191.5 33t-129 94t-70 138.5t-22.5 173.5q0 22 0.5 123t0 139.5t-3 114.5t-9 131.5
t-17.5 107.5q192 0 342 49v-512q0 -75 14 -135t45 -110t87 -77.5t135 -27.5q340 0 340 387v426q188 0 340 49v-940q0 -49 -1.5 -85t-8.5 -90t-20 -95.5t-37.5 -92t-58 -87.5t-85.5 -74t-117 -60.5t-154.5 -38t-195.5 -14.5q-341 0 -600 131q19 56 19 134t-19 137
q95 -81 254.5 -128t314.5 -47q190 0 300 79t110 251z" />
    <glyph glyph-name="Amacron" unicode="&#x100;" horiz-adv-x="2025" 
d="M1536 1743q-530 17 -1047 0q6 34 6 91.5t-6 92.5q515 -20 1047 0q-6 -35 -6 -92.5t6 -91.5zM1997 0h-420q-11 28 -53.5 142t-67.5 177q-439 13 -895 3q-23 -56 -66.5 -164.5t-64.5 -157.5h-401q347 710 692 1526q124 -15 289.5 -17t289.5 17q313 -739 697 -1526zM647 530
q363 -10 725 0q-194 485 -368 807q-105 -196 -357 -807z" />
    <glyph glyph-name="amacron" unicode="&#x101;" horiz-adv-x="1542" 
d="M1255 1384q-509 20 -1005 0q6 34 6 84t-6 84q494 -16 1005 0q-6 -34 -6 -84t6 -84zM1454 0h-332q-36 108 -47 254q-62 -92 -130 -151.5t-172.5 -96.5t-240.5 -37q-216 0 -329 85t-113 220q0 154 158.5 241t466.5 87h356q-4 75 -21 126.5t-56 94t-111.5 63.5t-180.5 21
q-174 0 -329.5 -55.5t-247.5 -144.5q11 60 11 149.5t-11 142.5q295 138 625 138q314 0 474 -117t160 -387q2 -214 16.5 -360.5t53.5 -272.5zM692 186q210 0 381 115v180v35h-174q-233 0 -348 -41t-115 -133q0 -74 65.5 -115t190.5 -41z" />
    <glyph glyph-name="Abreve" unicode="&#x102;" horiz-adv-x="2025" 
d="M1014 1724q-199 0 -321 101.5t-124 255.5h226q2 -81 59 -135t160 -54q104 0 161.5 54t59.5 135h240q-1 -157 -132 -257t-329 -100zM1997 0h-420q-11 28 -53.5 142t-67.5 177q-439 13 -895 3q-23 -56 -66.5 -164.5t-64.5 -157.5h-401q347 710 692 1526q124 -15 289.5 -17
t289.5 17q313 -739 697 -1526zM647 530q363 -10 725 0q-194 485 -368 807q-105 -196 -357 -807z" />
    <glyph glyph-name="abreve" unicode="&#x103;" horiz-adv-x="1542" 
d="M754 1288q-199 0 -321 101.5t-124 255.5h226q2 -81 59 -135t160 -54q104 0 161.5 54t59.5 135h239q-1 -157 -131.5 -257t-328.5 -100zM1454 0h-332q-36 108 -47 254q-62 -92 -130 -151.5t-172.5 -96.5t-240.5 -37q-216 0 -329 85t-113 220q0 154 158.5 241t466.5 87h356
q-4 75 -21 126.5t-56 94t-111.5 63.5t-180.5 21q-174 0 -329.5 -55.5t-247.5 -144.5q11 60 11 149.5t-11 142.5q295 138 625 138q314 0 474 -117t160 -387q2 -214 16.5 -360.5t53.5 -272.5zM692 186q210 0 381 115v180v35h-174q-233 0 -348 -41t-115 -133q0 -74 65.5 -115
t190.5 -41z" />
    <glyph glyph-name="Aogonek" unicode="&#x104;" horiz-adv-x="2025" 
d="M1679 -168q0 -38 18 -66t48 -43.5t59.5 -23t61.5 -10.5l4 -195q-123 -14 -226.5 17t-166 103t-62.5 173q0 153 160 215q-6 18 -119 317q-439 13 -895 3q-23 -56 -66.5 -164.5t-64.5 -157.5h-401q347 710 692 1526q124 -15 289.5 -17t289.5 17q313 -739 697 -1526
q-155 -17 -236.5 -54.5t-81.5 -113.5zM647 530q363 -10 725 0q-194 485 -368 807q-105 -196 -357 -807z" />
    <glyph glyph-name="aogonek" unicode="&#x105;" horiz-adv-x="1542" 
d="M1161 -162q0 -28 12 -49.5t28.5 -33.5t43 -20t46 -11t46.5 -5v-184q-115 -14 -213 12.5t-157.5 91.5t-59.5 156q0 172 209 221q-30 96 -41 238q-62 -92 -130 -151.5t-172.5 -96.5t-240.5 -37q-216 0 -329 85t-113 220q0 154 158.5 241t466.5 87h356q-4 75 -21 126.5
t-56 94t-111.5 63.5t-180.5 21q-174 0 -329.5 -55.5t-247.5 -144.5q11 60 11 149.5t-11 142.5q295 138 625 138q314 0 474 -117t160 -387q2 -214 16.5 -360.5t53.5 -272.5q-133 -13 -213 -54t-80 -108zM692 186q210 0 381 115v180v35h-174q-233 0 -348 -41t-115 -133
q0 -74 65.5 -115t190.5 -41z" />
    <glyph glyph-name="Cacute" unicode="&#x106;" horiz-adv-x="2152" 
d="M934 1694q34 30 77.5 75t75 80.5t81 93t71.5 82.5q64 -12 223.5 -12t225.5 12q-189 -116 -504 -331q-31 3 -125 3t-125 -3zM1149 -35q-501 0 -778 215t-277 590q0 255 133.5 435t376.5 270t578 90q424 0 837 -170q-19 -163 0 -326q-408 246 -819 250q-229 1 -397.5 -62.5
t-260 -188t-91.5 -298.5q0 -256 188.5 -406.5t548.5 -150.5q486 0 831 326q-3 -35 -3 -73.5t1.5 -65.5t7 -68.5t8 -56t9.5 -54.5q-179 -130 -391 -193t-502 -63z" />
    <glyph glyph-name="cacute" unicode="&#x107;" horiz-adv-x="1484" 
d="M668 1294q122 140 280 367q67 -12 209 -12t211 12q-310 -227 -465 -367q-32 3 -114.5 3t-120.5 -3zM811 -23q-359 0 -549 152.5t-190 429.5q0 275 190.5 427.5t548.5 152.5q325 0 586 -129q-20 -57 -20 -160t20 -160q-101 98 -240.5 156.5t-294.5 58.5q-226 0 -347.5 -89
t-121.5 -257t121.5 -257t347.5 -89q321 0 535 182q-20 -58 -20 -144.5t20 -141.5q-261 -132 -586 -132z" />
    <glyph glyph-name="Cdotaccent" unicode="&#x10a;" horiz-adv-x="2152" 
d="M1073 1692q-205 0 -205 143q0 141 205 141q221 0 221 -141q0 -143 -221 -143zM1149 -35q-501 0 -778 215t-277 590q0 255 133.5 435t376.5 270t578 90q424 0 837 -170q-19 -163 0 -326q-408 246 -819 250q-229 1 -397.5 -62.5t-260 -188t-91.5 -298.5
q0 -256 188.5 -406.5t548.5 -150.5q486 0 831 326q-3 -35 -3 -73.5t1.5 -65.5t7 -68.5t8 -56t9.5 -54.5q-179 -130 -391 -193t-502 -63z" />
    <glyph glyph-name="cdotaccent" unicode="&#x10b;" horiz-adv-x="1484" 
d="M791 1296q-205 0 -205 142q0 141 205 141q223 0 223 -141q0 -142 -223 -142zM811 -23q-359 0 -549 152.5t-190 429.5q0 275 190.5 427.5t548.5 152.5q325 0 586 -129q-20 -57 -20 -160t20 -160q-101 98 -240.5 156.5t-294.5 58.5q-226 0 -347.5 -89t-121.5 -257
t121.5 -257t347.5 -89q321 0 535 182q-20 -58 -20 -144.5t20 -141.5q-261 -132 -586 -132z" />
    <glyph glyph-name="Ccaron" unicode="&#x10c;" horiz-adv-x="2152" 
d="M559 2036q162 -13 328 0q11 -13 37 -43l39 -45t34 -38t41 -42.5t41 -38.5q19 16 38.5 34t32.5 31t35.5 36t30.5 32t35 38t33 36q164 -12 322 0q-26 -20 -85 -66t-84.5 -66.5t-69 -56t-78.5 -66.5t-72 -65q-136 9 -281 0q-23 22 -47 44.5t-41 38.5t-47 41t-42 35.5t-49 40
t-44.5 36t-53.5 43t-53 41.5zM1149 -35q-501 0 -778 215t-277 590q0 255 133.5 435t376.5 270t578 90q424 0 837 -170q-19 -163 0 -326q-408 246 -819 250q-229 1 -397.5 -62.5t-260 -188t-91.5 -298.5q0 -256 188.5 -406.5t548.5 -150.5q486 0 831 326q-3 -35 -3 -73.5
t1.5 -65.5t7 -68.5t8 -56t9.5 -54.5q-179 -130 -391 -193t-502 -63z" />
    <glyph glyph-name="ccaron" unicode="&#x10d;" horiz-adv-x="1484" 
d="M668 1292q-155 190 -336 371q147 -12 291 0q70 -105 174 -233q94 112 180 233q143 -12 289 0q-195 -187 -351 -371q-125 9 -247 0zM811 -23q-359 0 -549 152.5t-190 429.5q0 275 190.5 427.5t548.5 152.5q325 0 586 -129q-20 -57 -20 -160t20 -160q-101 98 -240.5 156.5
t-294.5 58.5q-226 0 -347.5 -89t-121.5 -257t121.5 -257t347.5 -89q321 0 535 182q-20 -58 -20 -144.5t20 -141.5q-261 -132 -586 -132z" />
    <glyph glyph-name="Dcaron" unicode="&#x10e;" horiz-adv-x="2217" 
d="M600 2042q162 -13 328 0q11 -13 37 -43l39 -45t34 -38t41 -42.5t41 -38.5q19 16 38.5 34t32.5 31t35.5 36t30.5 32t35 38t33 36q164 -12 322 0q-30 -23 -85.5 -66.5t-84 -66t-70.5 -56.5t-77.5 -65.5t-72.5 -65.5q-135 9 -280 0q-23 22 -47 44.5t-41 38.5t-47 41
t-42 35.5t-49 40t-44.5 36t-53.5 43t-53 41.5zM176 0q17 264 17 763t-17 763q208 0 483.5 5t401.5 5q501 0 782 -202.5t281 -561.5q0 -365 -293 -570.5t-815 -205.5q-128 0 -410 2t-430 2zM539 1303q-8 -470 2 -1063q38 -1 127.5 -6t178 -8t169.5 -3q354 0 552.5 145
t198.5 404q0 255 -195.5 397t-543.5 142q-52 0 -219.5 -4.5t-269.5 -3.5z" />
    <glyph glyph-name="dcaron" unicode="&#x10f;" horiz-adv-x="1640" 
d="M1833 1649q99 0 147 -38.5t48 -127.5q0 -90 -70 -193.5t-166 -195.5q-44 11 -96 2q115 153 143 268q-201 -3 -201 141t195 144zM1135 1565q281 20 389 67q-35 -147 -49 -490t-6.5 -671t30.5 -471h-340q21 155 23 279q-117 -312 -482 -312q-280 0 -454 173t-174 442
q0 249 150.5 403t393.5 154q367 0 533 -383h27q-7 549 -41 809zM813 162q252 0 369 229q-3 79 -18 151.5t-48.5 141t-82 118.5t-121 80.5t-162.5 30.5q-162 0 -254.5 -96t-92.5 -256q0 -188 117.5 -293.5t292.5 -105.5z" />
    <glyph glyph-name="Dcroat" unicode="&#x110;" horiz-adv-x="2258" 
d="M1102 1536q501 0 782 -202.5t281 -561.5q0 -365 -293 -570.5t-815 -205.5q-128 0 -410 2t-430 2q16 262 16 700q-96 -2 -278 -10q6 82 0 164q182 -8 278 -10q0 426 -16 682q208 0 483.5 5t401.5 5zM1057 223q346 0 539.5 145t193.5 404q0 255 -190.5 397t-530.5 142
q-54 0 -221.5 -4.5t-267.5 -3.5q-5 -390 -5 -459q259 4 386 10q-3 -82 0 -164q-190 9 -386 12l7 -462q36 -1 126 -6t178.5 -8t170.5 -3z" />
    <glyph glyph-name="dcroat" unicode="&#x111;" horiz-adv-x="1652" 
d="M1792 1260q-127 11 -309 14q-21 -332 -15.5 -721.5t31.5 -552.5h-340q21 155 23 279q-117 -312 -482 -312q-280 0 -454 173t-174 442q0 249 150.5 403t393.5 154q367 0 533 -383h27q-3 290 -17 518q-176 -3 -301 -14q12 88 0 153q94 -8 293 -16q-5 95 -16 168
q281 20 389 67q-20 -83 -33 -235q146 3 301 16q-6 -44 -6 -66.5t6 -86.5zM813 162q252 0 369 229q-3 79 -18 151.5t-48.5 141t-82 118.5t-121 80.5t-162.5 30.5q-162 0 -254.5 -96t-92.5 -256q0 -188 117.5 -293.5t292.5 -105.5z" />
    <glyph glyph-name="Emacron" unicode="&#x112;" horiz-adv-x="1939" 
d="M442 1739q6 34 6 91.5t-6 92.5q515 -20 1047 0q-6 -35 -6 -92.5t6 -91.5q-530 17 -1047 0zM176 0q19 292 19 767.5t-19 758.5q212 -17 775 -21.5t868 15.5q-12 -152 0 -308q-207 40 -587 63.5t-685 20.5q-7 -242 -4 -436q552 -9 1130 29q-12 -131 0 -258
q-584 33 -1130 22q0 -281 8 -422q305 -3 683.5 20.5t584.5 61.5q-12 -157 0 -313h-1643z" />
    <glyph glyph-name="emacron" unicode="&#x113;" horiz-adv-x="1544" 
d="M1270 1384q-510 20 -1006 0q6 34 6 84t-6 84q495 -16 1006 0q-6 -34 -6 -84t6 -84zM1446 381q-14 -59 -14 -141.5t14 -139.5q-128 -63 -290.5 -96t-330.5 -33q-369 0 -561 153t-192 431q0 275 182 430.5t496 155.5q155 0 286.5 -41.5t227 -119t143 -199t31.5 -271.5
q-683 12 -1026 2q45 -314 450 -309q156 3 322 51.5t262 126.5zM750 922q-155 0 -245 -79.5t-97 -230.5q289 -9 696 -2q-19 151 -112 231.5t-242 80.5z" />
    <glyph glyph-name="Edotaccent" unicode="&#x116;" horiz-adv-x="1939" 
d="M956 1694q-204 0 -204 143q0 141 204 141q222 0 222 -141q0 -143 -222 -143zM176 0q19 292 19 767.5t-19 758.5q212 -17 775 -21.5t868 15.5q-12 -152 0 -308q-207 40 -587 63.5t-685 20.5q-7 -242 -4 -436q552 -9 1130 29q-12 -131 0 -258q-584 33 -1130 22
q0 -281 8 -422q305 -3 683.5 20.5t584.5 61.5q-12 -157 0 -313h-1643z" />
    <glyph glyph-name="edotaccent" unicode="&#x117;" horiz-adv-x="1544" 
d="M758 1290q-205 0 -205 142q0 141 205 141q223 0 223 -141q0 -142 -223 -142zM1446 381q-14 -59 -14 -141.5t14 -139.5q-128 -63 -290.5 -96t-330.5 -33q-369 0 -561 153t-192 431q0 275 182 430.5t496 155.5q155 0 286.5 -41.5t227 -119t143 -199t31.5 -271.5
q-683 12 -1026 2q45 -314 450 -309q156 3 322 51.5t262 126.5zM750 922q-155 0 -245 -79.5t-97 -230.5q289 -9 696 -2q-19 151 -112 231.5t-242 80.5z" />
    <glyph glyph-name="Eogonek" unicode="&#x118;" horiz-adv-x="1939" 
d="M1819 1212q-207 40 -587 63.5t-685 20.5q-7 -242 -4 -436q552 -9 1130 29q-12 -131 0 -258q-584 33 -1130 22q0 -281 8 -422q305 -3 683.5 20.5t584.5 61.5q-12 -157 0 -313q-155 -17 -236.5 -54.5t-81.5 -113.5q0 -38 18 -66t48 -43.5t59.5 -23t61.5 -10.5l4 -195
q-123 -14 -226.5 17t-166 103t-62.5 173q0 152 154 213h-1215q19 292 19 767.5t-19 758.5q212 -17 775 -21.5t868 15.5q-12 -152 0 -308z" />
    <glyph glyph-name="eogonek" unicode="&#x119;" horiz-adv-x="1546" 
d="M1386 74q-121 -58 -178 -110t-57 -114q0 -44 28.5 -74t66 -42t83.5 -15v-200q-180 3 -288.5 65t-108.5 193t131 211q-136 -17 -238 -17q-369 0 -561 153t-192 431q0 275 182 430.5t496 155.5q156 0 287 -40t226.5 -116t143 -196.5t31.5 -270.5q-684 12 -1026 2
q38 -323 450 -317q156 3 322 51.5t262 126.5q-14 -59 -14 -141.5t14 -139.5q-13 -7 -60 -26zM750 922q-157 0 -247.5 -81.5t-94.5 -236.5q292 -21 698 -4q-17 155 -111 238.5t-245 83.5z" />
    <glyph glyph-name="Ecaron" unicode="&#x11a;" horiz-adv-x="1939" 
d="M442 2038q162 -13 328 0q6 -7 36.5 -42t40.5 -46.5t33.5 -37t42.5 -44t40 -37.5q22 19 42.5 38t44.5 43.5t36 37t42 45.5t39 43q164 -12 322 0q-26 -20 -85 -66t-84.5 -66.5t-69 -56t-78.5 -66.5t-72 -65q-136 9 -281 0q-23 22 -47 44.5t-41 38.5t-47 41t-42 35.5t-49 40
t-44.5 36t-53.5 43t-53 41.5zM176 0q19 292 19 767.5t-19 758.5q212 -17 775 -21.5t868 15.5q-12 -152 0 -308q-207 40 -587 63.5t-685 20.5q-7 -242 -4 -436q552 -9 1130 29q-12 -131 0 -258q-584 33 -1130 22q0 -281 8 -422q305 -3 683.5 20.5t584.5 61.5q-12 -157 0 -313
h-1643z" />
    <glyph glyph-name="ecaron" unicode="&#x11b;" horiz-adv-x="1544" 
d="M883 1286q-126 9 -248 0q-155 190 -336 371q147 -12 291 0q74 -111 174 -234q89 106 180 234q143 -12 289 0q-190 -182 -350 -371zM1446 381q-14 -59 -14 -141.5t14 -139.5q-128 -63 -290.5 -96t-330.5 -33q-369 0 -561 153t-192 431q0 275 182 430.5t496 155.5
q155 0 286.5 -41.5t227 -119t143 -199t31.5 -271.5q-683 12 -1026 2q45 -314 450 -309q156 3 322 51.5t262 126.5zM750 922q-155 0 -245 -79.5t-97 -230.5q289 -9 696 -2q-19 151 -112 231.5t-242 80.5z" />
    <glyph glyph-name="Gbreve" unicode="&#x11e;" horiz-adv-x="2236" 
d="M1128 1702q-201 0 -325.5 97t-126.5 243h233q2 -73 59.5 -122.5t159.5 -49.5q104 0 162 49.5t60 122.5h247q-1 -99 -62.5 -177t-168 -120.5t-238.5 -42.5zM1139 -29q-501 0 -773 214.5t-272 586.5q0 382 283 585.5t790 203.5q219 0 466.5 -39.5t473.5 -132.5
q-24 -201 0 -328q-199 120 -445.5 186t-490.5 66q-339 0 -529.5 -145t-190.5 -396q0 -252 183.5 -403.5t504.5 -151.5q77 0 149.5 9t154.5 33.5t151.5 63t134.5 103t108 147.5q-541 0 -854 -34q22 125 -6 292q589 -25 1151 0q-23 -170 0 -378q-74 -156 -228 -267t-348 -163
t-413 -52z" />
    <glyph glyph-name="gbreve" unicode="&#x11f;" horiz-adv-x="1599" 
d="M786 1393q-199 0 -320.5 101t-123.5 255h225q2 -81 59 -134.5t160 -53.5q104 0 162 53.5t60 134.5h239q-1 -104 -61.5 -185.5t-165 -126t-234.5 -44.5zM1483 1141q-9 -91 -14.5 -197.5t-7 -225t-2 -196.5t0 -199t0.5 -145q0 -50 -2 -90t-10.5 -93.5t-22.5 -96.5
t-39.5 -92t-61 -86.5t-88 -73t-117.5 -58.5t-153.5 -37t-193.5 -14q-361 0 -620 131q20 56 20 134t-20 135q98 -79 264.5 -126t326.5 -47q83 0 152 18.5t124.5 57t86.5 105t31 155.5v66q-129 -154 -422 -154t-468 156t-175 418q0 245 148 399t378 154q102 0 192 -32.5
t158 -88.5t118 -124t83 -146h27q-1 13 -6 75t-8 84.5t-10.5 70t-18.5 91.5q228 14 350 72zM825 190q191 0 312 113v131q0 73 -9 136t-35 128t-67 111t-110.5 75t-159.5 29q-166 0 -259.5 -95.5t-93.5 -256.5q0 -95 33 -167.5t91 -116t133 -65.5t165 -22z" />
    <glyph glyph-name="Gdotaccent" unicode="&#x120;" horiz-adv-x="2236" 
d="M1126 1698q-204 0 -204 143q0 141 204 141q222 0 222 -141q0 -143 -222 -143zM1139 -29q-501 0 -773 214.5t-272 586.5q0 382 283 585.5t790 203.5q219 0 466.5 -39.5t473.5 -132.5q-24 -201 0 -328q-199 120 -445.5 186t-490.5 66q-339 0 -529.5 -145t-190.5 -396
q0 -252 183.5 -403.5t504.5 -151.5q77 0 149.5 9t154.5 33.5t151.5 63t134.5 103t108 147.5q-541 0 -854 -34q22 125 -6 292q589 -25 1151 0q-23 -170 0 -378q-74 -156 -228 -267t-348 -163t-413 -52z" />
    <glyph glyph-name="gdotaccent" unicode="&#x121;" horiz-adv-x="1599" 
d="M776 1395q-205 0 -205 141t205 141q223 0 223 -141t-223 -141zM1483 1141q-9 -91 -14.5 -197.5t-7 -225t-2 -196.5t0 -199t0.5 -145q0 -50 -2 -90t-10.5 -93.5t-22.5 -96.5t-39.5 -92t-61 -86.5t-88 -73t-117.5 -58.5t-153.5 -37t-193.5 -14q-361 0 -620 131
q20 56 20 134t-20 135q98 -79 264.5 -126t326.5 -47q83 0 152 18.5t124.5 57t86.5 105t31 155.5v66q-129 -154 -422 -154t-468 156t-175 418q0 245 148 399t378 154q102 0 192 -32.5t158 -88.5t118 -124t83 -146h27q-1 13 -6 75t-8 84.5t-10.5 70t-18.5 91.5q228 14 350 72z
M825 190q191 0 312 113v131q0 73 -9 136t-35 128t-67 111t-110.5 75t-159.5 29q-166 0 -259.5 -95.5t-93.5 -256.5q0 -95 33 -167.5t91 -116t133 -65.5t165 -22z" />
    <glyph glyph-name="uni0122" unicode="&#x122;" horiz-adv-x="2236" 
d="M1139 -29q-501 0 -773 214.5t-272 586.5q0 382 283 585.5t790 203.5q219 0 466.5 -39.5t473.5 -132.5q-24 -201 0 -328q-199 120 -445.5 186t-490.5 66q-339 0 -529.5 -145t-190.5 -396q0 -252 183.5 -403.5t504.5 -151.5q77 0 149.5 9t154.5 33.5t151.5 63t134.5 103
t108 147.5q-541 0 -854 -34q22 125 -6 292q589 -25 1151 0q-23 -170 0 -378q-74 -156 -228 -267t-348 -163t-413 -52zM930 -262q0 143 194 143q100 0 147.5 -38.5t47.5 -127.5t-69.5 -192.5t-164.5 -196.5q-47 11 -98 2q113 146 143 269q-200 -3 -200 141z" />
    <glyph glyph-name="uni0123" unicode="&#x123;" horiz-adv-x="1599" 
d="M797 1290q-99 0 -147 38.5t-48 127.5q0 90 70 193.5t166 195.5q44 -11 96 -2q-115 -153 -143 -268q200 3 200 -143q0 -142 -194 -142zM1483 1141q-9 -91 -14.5 -197.5t-7 -225t-2 -196.5t0 -199t0.5 -145q0 -50 -2 -90t-10.5 -93.5t-22.5 -96.5t-39.5 -92t-61 -86.5
t-88 -73t-117.5 -58.5t-153.5 -37t-193.5 -14q-361 0 -620 131q20 56 20 134t-20 135q98 -79 264.5 -126t326.5 -47q83 0 152 18.5t124.5 57t86.5 105t31 155.5v66q-129 -154 -422 -154t-468 156t-175 418q0 245 148 399t378 154q102 0 192 -32.5t158 -88.5t118 -124
t83 -146h27q-1 13 -6 75t-8 84.5t-10.5 70t-18.5 91.5q228 14 350 72zM825 190q191 0 312 113v131q0 73 -9 136t-35 128t-67 111t-110.5 75t-159.5 29q-166 0 -259.5 -95.5t-93.5 -256.5q0 -95 33 -167.5t91 -116t133 -65.5t165 -22z" />
    <glyph glyph-name="Hbar" unicode="&#x126;" horiz-adv-x="2103" 
d="M2050 1118q-23 1 -71.5 2t-71.5 2q-11 -704 20 -1122h-373q16 245 19 596q-509 30 -1045 -2q3 -369 21 -594h-373q28 429 14 1122q-23 -1 -68.5 -2t-68.5 -2q15 80 0 162q45 -2 133 -2q-2 112 -10 248q200 -28 369 0l-13 -254q345 -4 1035 0q-3 80 -13 254q201 -28 367 0
q-8 -136 -10 -248q23 0 69 1t70 1q-9 -82 0 -162zM1573 836q0 106 -4 290q-518 9 -1039 0q-4 -184 -4 -288q533 -32 1047 -2z" />
    <glyph glyph-name="hbar" unicode="&#x127;" horiz-adv-x="1579" 
d="M1466 0h-350v481q0 86 -17 156.5t-51.5 126t-93.5 86.5t-137 31q-69 0 -125.5 -23.5t-95 -64.5t-65 -97t-38.5 -119.5t-12 -134.5v-442h-354q26 189 32 557t-9 690l-138 -6q6 83 0 162l129 -6q-8 111 -14 164q258 15 381 71q-15 -60 -29 -239q242 0 539 10q-3 -79 0 -162
q-273 12 -549 12q-6 -111 -15 -309t-12 -242h27q63 193 209 315t334 122q116 0 200.5 -37t132.5 -104t70.5 -148.5t22.5 -181.5q0 -14 -1 -155t0 -195t8 -152.5t21 -165.5z" />
    <glyph glyph-name="Imacron" unicode="&#x12a;" horiz-adv-x="757" 
d="M10 1743q8 90 0 184q361 -20 733 0q-5 -35 -5 -92.5t5 -91.5q-370 17 -733 0zM184 0q19 287 19 763t-19 763q209 -29 385 0q-19 -283 -18 -764.5t22 -761.5h-389z" />
    <glyph glyph-name="imacron" unicode="&#x12b;" horiz-adv-x="593" 
d="M-211 1384q6 34 6 84t-6 84q495 -16 1006 0q-6 -34 -6 -84t6 -84q-510 20 -1006 0zM117 1102q203 -33 360 0q-39 -551 0 -1102h-360q36 547 0 1102z" />
    <glyph glyph-name="Iogonek" unicode="&#x12e;" horiz-adv-x="757" 
d="M256 -168q0 -38 17.5 -66t47.5 -43.5t59.5 -23t61.5 -10.5l4 -195q-123 -14 -226 17t-165.5 103t-62.5 173q0 169 192 227q19 290 19 759t-19 753q209 -29 385 0q-19 -283 -18 -764.5t22 -761.5q-155 -17 -236 -54.5t-81 -113.5z" />
    <glyph glyph-name="iogonek" unicode="&#x12f;" horiz-adv-x="593" 
d="M283 1290q-205 0 -205 142q0 141 205 141q223 0 223 -141q0 -142 -223 -142zM117 1102q203 -33 360 0q-39 -551 0 -1102q-133 -13 -213 -54t-80 -108q0 -28 12 -49.5t28.5 -33.5t43 -20t46 -11t46.5 -5v-184q-115 -14 -213 12.5t-157.5 91.5t-59.5 156q0 163 187 215
q36 542 0 1092z" />
    <glyph glyph-name="Idotaccent" unicode="&#x130;" horiz-adv-x="757" 
d="M369 1698q-205 0 -205 143q0 141 205 141q221 0 221 -141q0 -143 -221 -143zM184 0q19 287 19 763t-19 763q209 -29 385 0q-19 -283 -18 -764.5t22 -761.5h-389z" />
    <glyph glyph-name="dotlessi" unicode="&#x131;" horiz-adv-x="593" 
d="M117 1102q203 -33 360 0q-39 -551 0 -1102h-360q36 547 0 1102z" />
    <glyph glyph-name="uni0136" unicode="&#x136;" horiz-adv-x="2004" 
d="M946 745q101 -11 219 -51.5t239.5 -109.5t225.5 -155t182 -198.5t105 -230.5h-444q-3 47 -23 105.5t-60 124t-95 128.5t-133 119t-168 96t-206.5 58t-242.5 6q3 -258 20 -637h-389q19 287 19 763t-19 763q208 -29 383 0q-16 -315 -16 -658q149 -3 282 36.5t229 103.5
t179 154.5t136.5 177.5t96.5 184q98 -14 229 -14.5t255 14.5q-109 -172 -283 -335t-367 -275t-354 -142v-27zM961 -111q100 0 147 -38t47 -127q0 -90 -69.5 -193.5t-163.5 -196.5q-47 11 -99 2q114 148 144 269q-201 -3 -201 141q0 143 195 143z" />
    <glyph glyph-name="uni0137" unicode="&#x137;" horiz-adv-x="1454" 
d="M850 610q19 -22 74 -86t85 -97.5t83 -93t92 -99t87.5 -86.5t93.5 -83.5t87 -64.5h-469q-38 73 -98 152.5t-153 192t-154 194.5q-67 -13 -125 -13q5 -270 24 -526h-360q35 299 35 780.5t-35 761.5q242 12 387 68q-64 -332 -53 -989q107 14 218.5 82.5t191 170.5t93.5 203
q2 0 62 3t80.5 4.5t76.5 6t87 9t70.5 12.5t66.5 18q-40 -162 -189 -300t-358 -220zM614 -113q100 0 147.5 -38.5t47.5 -127.5t-69.5 -192.5t-164.5 -196.5q-47 11 -98 2q114 148 144 269q-201 -3 -201 141q0 143 194 143z" />
    <glyph glyph-name="Lacute" unicode="&#x139;" horiz-adv-x="1886" 
d="M334 1702q44 39 92 90t123 138.5t90 103.5q64 -12 223 -12t225 12q-164 -101 -503 -332q-31 3 -125 3t-125 -3zM176 0q24 763 0 1526q227 -31 385 0q-14 -209 -18 -618t4 -679q257 0 655.5 22.5t589.5 55.5q-11 -168 0 -307h-1616z" />
    <glyph glyph-name="lacute" unicode="&#x13a;" horiz-adv-x="595" 
d="M154 1804q44 39 92 90t123 138.5t90 103.5q65 -12 223.5 -12t224.5 12q-174 -107 -504 -332q-31 3 -124.5 3t-124.5 -3zM117 1565q200 7 362 67q-35 -281 -35 -811t25 -821h-352q23 298 23 791.5t-23 773.5z" />
    <glyph glyph-name="uni013B" unicode="&#x13b;" horiz-adv-x="1886" 
d="M176 0q24 763 0 1526q227 -31 385 0q-14 -209 -18 -618t4 -679q257 0 655.5 22.5t589.5 55.5q-11 -168 0 -307h-1616zM764 -313q0 141 194 141q100 0 147.5 -38.5t47.5 -127.5q0 -47 -21.5 -102t-58 -107t-74 -95.5t-79.5 -84.5q-47 11 -99 2q115 149 144 268
q-201 -3 -201 144z" />
    <glyph glyph-name="uni013C" unicode="&#x13c;" horiz-adv-x="595" 
d="M117 1565q200 7 362 67q-35 -281 -35 -811t25 -821h-352q23 298 23 791.5t-23 773.5zM92 -264q0 143 195 143q100 0 147 -38.5t47 -127.5q0 -47 -21.5 -102t-58 -107t-74 -95.5t-79.5 -84.5q-47 11 -98 2q113 147 143 268q-201 -3 -201 142z" />
    <glyph glyph-name="Lcaron" unicode="&#x13d;" horiz-adv-x="1886" 
d="M774 1421q0 144 195 144q99 0 146.5 -39t47.5 -127q0 -161 -235 -391q-42 11 -97 4q115 150 144 268q-201 -3 -201 141zM176 0q24 763 0 1526q227 -31 385 0q-14 -209 -18 -618t4 -679q257 0 655.5 22.5t589.5 55.5q-11 -168 0 -307h-1616z" />
    <glyph glyph-name="lcaron" unicode="&#x13e;" horiz-adv-x="595" 
d="M-123 2165q146 -12 289 0q23 -44 129 -217q16 25 45 69t50 77.5t42 70.5q145 -12 293 0q-169 -182 -303 -353q-129 6 -254 0q-132 176 -291 353zM117 1565q200 7 362 67q-35 -281 -35 -811t25 -821h-352q23 298 23 791.5t-23 773.5z" />
    <glyph glyph-name="Lslash" unicode="&#x141;" horiz-adv-x="2195" 
d="M2101 307q-11 -168 0 -307h-1616q11 349 13 596q-27 -13 -326 -164q-6 20 -32 68.5t-40 64.5q151 68 398 185q0 357 -13 776q227 -31 383 0q-13 -226 -16 -604q158 77 360 184q13 -29 37.5 -74.5t36.5 -56.5q-398 -186 -436 -205q0 -316 6 -541q256 0 653.5 22.5
t591.5 55.5z" />
    <glyph glyph-name="lslash" unicode="&#x142;" horiz-adv-x="901" 
d="M600 831q0 -504 25 -831h-353q20 280 23 653q-155 -93 -275 -166q-4 19 -29.5 61t-39.5 56q170 93 344 193q0 466 -23 768q201 7 363 67q-28 -235 -35 -657q88 50 281 170q7 -19 32.5 -61.5t36.5 -55.5q-150 -81 -350 -197z" />
    <glyph glyph-name="Nacute" unicode="&#x143;" horiz-adv-x="2201" 
d="M1200 1690q-31 3 -125 3t-125 -3q34 30 77.5 75t75 80.5t81 93t71.5 82.5q65 -12 224 -12t225 12q-189 -116 -504 -331zM1530 0q-506 660 -1004 1241q-9 -605 19 -1241h-369q24 763 0 1526q107 -13 254 -13.5t254 13.5q468 -631 989 -1254q10 677 -18 1254q202 -28 364 0
q-21 -763 6 -1526h-495z" />
    <glyph glyph-name="nacute" unicode="&#x144;" horiz-adv-x="1579" 
d="M653 1296q127 146 281 367q68 -12 209.5 -12t210.5 12q-310 -227 -465 -367q-32 3 -115 3t-121 -3zM127 0q65 465 0 1071q255 15 381 72q-51 -210 -66 -441h29q62 194 206.5 315.5t338.5 121.5q93 0 166 -25t120.5 -67.5t79 -103t45 -128.5t13.5 -147q0 -33 -0.5 -129.5
t0 -146.5t2.5 -129t8 -142.5t16 -120.5h-348v481q0 186 -76.5 293t-218.5 107q-161 0 -250.5 -120.5t-89.5 -318.5v-442h-356z" />
    <glyph glyph-name="uni0145" unicode="&#x145;" horiz-adv-x="2201" 
d="M2019 1526q-21 -763 6 -1526h-495q-506 660 -1004 1241q-9 -605 19 -1241h-369q24 763 0 1526q107 -13 254 -13.5t254 13.5q468 -631 989 -1254q10 677 -18 1254q202 -28 364 0zM1085 -111q101 0 148 -38t47 -127q0 -90 -69.5 -193.5t-163.5 -196.5q-47 11 -99 2
q114 148 144 269q-201 -3 -201 141q0 143 194 143z" />
    <glyph glyph-name="uni0146" unicode="&#x146;" horiz-adv-x="1579" 
d="M127 0q65 465 0 1071q255 15 381 72q-51 -210 -66 -441h29q62 194 206.5 315.5t338.5 121.5q93 0 166 -25t120.5 -67.5t79 -103t45 -128.5t13.5 -147q0 -33 -0.5 -129.5t0 -146.5t2.5 -129t8 -142.5t16 -120.5h-348v481q0 186 -76.5 293t-218.5 107q-161 0 -250.5 -120.5
t-89.5 -318.5v-442h-356zM575 -258q0 143 195 143q100 0 147.5 -38.5t47.5 -127.5t-69.5 -192.5t-164.5 -196.5q-47 11 -98 2q113 146 143 269q-201 -3 -201 141z" />
    <glyph glyph-name="Ncaron" unicode="&#x147;" horiz-adv-x="2201" 
d="M1233 1710q-136 9 -281 0q-23 22 -47 44.5t-41 38.5t-47 41t-42 35.5t-49 40t-44.5 36t-53.5 43t-53 41.5q162 -13 328 0q6 -7 36.5 -42t40.5 -46.5t33.5 -37t42.5 -44t40 -37.5q22 19 42.5 38t44.5 43.5t36 37t42 45.5t39 43q164 -12 322 0q-26 -20 -85 -66t-84.5 -66.5
t-69 -56t-78.5 -66.5t-72 -65zM1530 0q-506 660 -1004 1241q-9 -605 19 -1241h-369q24 763 0 1526q107 -13 254 -13.5t254 13.5q468 -631 989 -1254q10 677 -18 1254q202 -28 364 0q-21 -763 6 -1526h-495z" />
    <glyph glyph-name="ncaron" unicode="&#x148;" horiz-adv-x="1579" 
d="M653 1294q-155 190 -336 371q147 -12 291 0q70 -105 174 -233q101 121 181 233q143 -12 288 0q-190 -182 -350 -371q-126 9 -248 0zM127 0q65 465 0 1071q255 15 381 72q-51 -210 -66 -441h29q62 194 206.5 315.5t338.5 121.5q93 0 166 -25t120.5 -67.5t79 -103
t45 -128.5t13.5 -147q0 -33 -0.5 -129.5t0 -146.5t2.5 -129t8 -142.5t16 -120.5h-348v481q0 186 -76.5 293t-218.5 107q-161 0 -250.5 -120.5t-89.5 -318.5v-442h-356z" />
    <glyph glyph-name="Eng" unicode="&#x14a;" horiz-adv-x="2197" 
d="M176 0q24 763 0 1526q107 -13 254 -13.5t254 13.5q436 -584 989 -1247q9 626 -18 1247q201 -28 364 0q-19 -708 -2 -1432q0 -96 -14.5 -175.5t-54 -155.5t-102 -128.5t-164.5 -84t-236 -31.5q-225 0 -369 104q24 127 0 279q33 -48 116.5 -84.5t182.5 -36.5q173 0 244 133
q-718 885 -1094 1321q-8 -545 19 -1235h-369z" />
    <glyph glyph-name="eng" unicode="&#x14b;" horiz-adv-x="1550" 
d="M127 2q65 463 0 1069q254 15 383 72q-51 -210 -66 -441h27q64 196 208.5 316.5t342.5 120.5q90 0 161 -25t117.5 -67.5t77.5 -103t44 -128.5t12 -147q-1 -138 4 -668q1 -96 -25.5 -172.5t-70 -126t-104.5 -82t-126.5 -46t-138.5 -13.5q-138 0 -262 51q11 115 0 227
q12 -12 60.5 -26.5t88.5 -14.5q58 0 102 14t80.5 48.5t56 99t19.5 158.5v364q0 186 -75.5 293t-215.5 107q-166 0 -255 -120t-89 -319v-440h-356z" />
    <glyph glyph-name="Omacron" unicode="&#x14c;" horiz-adv-x="2246" 
d="M602 1739q6 34 6 91.5t-6 92.5q515 -20 1047 0q-6 -35 -6 -92.5t6 -91.5q-530 17 -1047 0zM1124 -31q-486 0 -758 210t-272 587q0 379 272 589t758 210t757 -210.5t271 -588.5t-271 -587.5t-757 -209.5zM1124 199q318 0 497 146.5t179 412.5q0 270 -179.5 422.5
t-496.5 152.5q-319 0 -496 -152t-177 -423q0 -267 176.5 -413t496.5 -146z" />
    <glyph glyph-name="omacron" unicode="&#x14d;" horiz-adv-x="1566" 
d="M283 1391q6 34 6 84t-6 84q494 -16 1005 0q-6 -34 -6 -84t6 -84q-509 20 -1005 0zM784 -29q-336 0 -524 154.5t-188 429.5t187.5 428.5t524.5 153.5q335 0 523 -153.5t188 -428.5t-188 -429.5t-523 -154.5zM784 176q178 0 276.5 99t98.5 280q0 168 -99.5 265.5
t-275.5 97.5q-178 0 -277 -97t-99 -266q0 -181 98 -280t278 -99z" />
    <glyph glyph-name="Ohungarumlaut" unicode="&#x150;" horiz-adv-x="2246" 
d="M731 1710q128 160 236 330q49 -6 152.5 -6t154.5 6q-213 -205 -311 -330q-32 3 -113 3t-119 -3zM1229 1710q126 161 233 330q49 -6 153.5 -6t153.5 6l-42 -42l-49 -49t-46 -46.5t-50.5 -52.5t-43 -46.5t-45 -50t-35.5 -43.5q-32 3 -112 3t-117 -3zM1124 -31
q-486 0 -758 210t-272 587q0 379 272 589t758 210t757 -210.5t271 -588.5t-271 -587.5t-757 -209.5zM1124 199q318 0 497 146.5t179 412.5q0 270 -179.5 422.5t-496.5 152.5q-319 0 -496 -152t-177 -423q0 -267 176.5 -413t496.5 -146z" />
    <glyph glyph-name="ohungarumlaut" unicode="&#x151;" horiz-adv-x="1566" 
d="M479 1292q79 124 203 371q40 -6 121 -6t121 6q-126 -159 -262 -371q-25 3 -88.5 3t-94.5 -3zM870 1292q79 126 201 371q40 -6 122 -6t120 6q-160 -212 -262 -371q-25 3 -88.5 3t-92.5 -3zM784 -29q-336 0 -524 154.5t-188 429.5t187.5 428.5t524.5 153.5
q335 0 523 -153.5t188 -428.5t-188 -429.5t-523 -154.5zM784 176q178 0 276.5 99t98.5 280q0 168 -99.5 265.5t-275.5 97.5q-178 0 -277 -97t-99 -266q0 -181 98 -280t278 -99z" />
    <glyph glyph-name="OE" unicode="&#x152;" horiz-adv-x="3424" 
d="M3303 1198q-210 48 -555.5 75.5t-636.5 22.5q-13 -197 -10 -442q541 -12 1020 35q-12 -136 0 -275q-493 45 -1020 33q-3 -202 13 -426q289 -6 634 23t555 80q-12 -162 0 -324h-1562q12 193 14 356q-94 -184 -279 -281.5t-446 -97.5q-441 0 -688.5 209.5t-247.5 581.5
q0 373 247.5 582t688.5 209q260 0 444.5 -96.5t278.5 -278.5q-3 184 -12 342q207 -17 731 -21.5t831 15.5q-12 -161 0 -322zM1112 213q303 0 474.5 143t172.5 398v14q-3 252 -175 395.5t-472 143.5q-306 0 -475.5 -145.5t-169.5 -401.5q0 -259 169 -403t476 -144z" />
    <glyph glyph-name="oe" unicode="&#x153;" horiz-adv-x="2660" 
d="M2560 377q-20 -57 -20 -139.5t20 -139.5q-127 -64 -290 -97.5t-333 -33.5q-431 0 -600 248q-80 -119 -220 -181.5t-331 -62.5q-338 0 -526 155t-188 433q0 272 188.5 426t525.5 154q189 0 330 -62t219 -178q77 118 209.5 180t308.5 62q127 0 238 -25.5t201.5 -77.5
t153 -126.5t91 -177.5t15.5 -226h2h-2q-688 12 -1039 2q42 -317 461 -309q155 3 322.5 51t263.5 125zM1853 922q-154 0 -244.5 -80.5t-99.5 -231.5q296 -9 709 -2q-20 148 -116.5 231t-248.5 83zM786 176q179 0 279 98.5t100 276.5q0 171 -100.5 269t-278.5 98
q-181 0 -280.5 -97.5t-99.5 -269.5q0 -179 99 -277t281 -98z" />
    <glyph glyph-name="Racute" unicode="&#x154;" horiz-adv-x="2052" 
d="M850 1702q44 39 92 90t123 138.5t90 103.5q64 -12 223.5 -12t225.5 12q-174 -107 -504 -332q-31 3 -125 3t-125 -3zM176 0q19 287 19 763.5t-19 762.5q200 -3 490 1.5t405 4.5q429 0 634.5 -109t205.5 -338q0 -80 -26.5 -147.5t-69.5 -113t-103 -81t-121 -56.5
t-128.5 -34t-121 -17.5t-104.5 -4.5v-27q117 -20 222.5 -68.5t182.5 -109t144 -137.5t110.5 -146t77.5 -143h-485q-52 287 -208.5 415.5t-475.5 151.5q-131 8 -266 8q5 -348 22 -575h-385zM537 788q13 0 190.5 -7t271.5 -7q270 0 403.5 64t133.5 211q0 134 -122.5 192.5
t-352.5 58.5q-108 0 -287 -3t-231 -3q-6 -237 -6 -506z" />
    <glyph glyph-name="racute" unicode="&#x155;" horiz-adv-x="1054" 
d="M418 1294q122 140 280 367q68 -12 209.5 -12t210.5 12q-310 -227 -465 -367q-32 3 -114.5 3t-120.5 -3zM510 0h-383q72 519 0 1065q241 15 371 72q-43 -224 -52 -443h27q28 85 66.5 156t83 120t95 85t101.5 52t103 20.5t100 -9.5q-43 -138 0 -332q-109 33 -193 33
q-173 0 -262.5 -104.5t-89.5 -298.5q0 -94 1 -144.5t9 -127.5t23 -144z" />
    <glyph glyph-name="uni0156" unicode="&#x156;" horiz-adv-x="2052" 
d="M176 0q19 287 19 763.5t-19 762.5q200 -3 490 1.5t405 4.5q429 0 634.5 -109t205.5 -338q0 -80 -26.5 -147.5t-69.5 -113t-103 -81t-121 -56.5t-128.5 -34t-121 -17.5t-104.5 -4.5v-27q117 -20 222.5 -68.5t182.5 -109t144 -137.5t110.5 -146t77.5 -143h-485
q-52 287 -208.5 415.5t-475.5 151.5q-131 8 -266 8q5 -348 22 -575h-385zM537 788q13 0 190.5 -7t271.5 -7q270 0 403.5 64t133.5 211q0 134 -122.5 192.5t-352.5 58.5q-108 0 -287 -3t-231 -3q-6 -237 -6 -506zM799 -254q0 143 194 143q101 0 148 -38t47 -127
q0 -62 -40 -139t-87.5 -135.5t-106.5 -115.5q-47 11 -98 2q113 146 143 269q-200 -3 -200 141z" />
    <glyph glyph-name="uni0157" unicode="&#x157;" horiz-adv-x="1054" 
d="M510 0h-383q72 519 0 1065q241 15 371 72q-43 -224 -52 -443h27q28 85 66.5 156t83 120t95 85t101.5 52t103 20.5t100 -9.5q-43 -138 0 -332q-109 33 -193 33q-173 0 -262.5 -104.5t-89.5 -298.5q0 -94 1 -144.5t9 -127.5t23 -144zM109 -264q0 143 194 143
q100 0 147.5 -38.5t47.5 -127.5t-69.5 -192.5t-164.5 -196.5q-47 11 -98 2q113 147 143 268q-200 -3 -200 142z" />
    <glyph glyph-name="Rcaron" unicode="&#x158;" horiz-adv-x="2052" 
d="M473 2042q162 -13 328 0q11 -13 37 -43l39 -45t34 -38t41 -42.5t41 -38.5q19 16 38.5 34t32.5 31t35.5 36t30.5 32t35 38t33 36q164 -12 322 0q-30 -23 -85.5 -66.5t-84 -66t-70.5 -56.5t-77.5 -65.5t-72.5 -65.5q-135 9 -280 0q-23 22 -47 44.5t-41 38.5t-47 41
t-42 35.5t-49 40t-44.5 36t-53.5 43t-53 41.5zM176 0q19 287 19 763.5t-19 762.5q200 -3 490 1.5t405 4.5q429 0 634.5 -109t205.5 -338q0 -80 -26.5 -147.5t-69.5 -113t-103 -81t-121 -56.5t-128.5 -34t-121 -17.5t-104.5 -4.5v-27q117 -20 222.5 -68.5t182.5 -109
t144 -137.5t110.5 -146t77.5 -143h-485q-52 287 -208.5 415.5t-475.5 151.5q-131 8 -266 8q5 -348 22 -575h-385zM537 788q13 0 190.5 -7t271.5 -7q270 0 403.5 64t133.5 211q0 134 -122.5 192.5t-352.5 58.5q-108 0 -287 -3t-231 -3q-6 -237 -6 -506z" />
    <glyph glyph-name="rcaron" unicode="&#x159;" horiz-adv-x="1054" 
d="M418 1292q-155 190 -336 371q147 -12 291 0q70 -105 174 -233q94 112 180 233q143 -12 289 0q-190 -182 -350 -371q-126 9 -248 0zM510 0h-383q72 519 0 1065q241 15 371 72q-43 -224 -52 -443h27q28 85 66.5 156t83 120t95 85t101.5 52t103 20.5t100 -9.5
q-43 -138 0 -332q-109 33 -193 33q-173 0 -262.5 -104.5t-89.5 -298.5q0 -94 1 -144.5t9 -127.5t23 -144z" />
    <glyph glyph-name="Sacute" unicode="&#x15a;" horiz-adv-x="2076" 
d="M856 1702q44 39 92 90t123 138.5t90 103.5q65 -12 224 -12t225 12q-174 -107 -504 -332q-31 3 -125 3t-125 -3zM1116 -23q-503 0 -973 175q24 171 0 342q137 -131 420.5 -202t585.5 -71q225 0 328.5 50t103.5 153q0 27 -5 49.5t-19 41t-29 33t-44.5 27.5t-54.5 22
t-71.5 17.5t-83 14.5t-100.5 12.5t-112 11t-130 11.5q-134 12 -234.5 26.5t-196.5 37t-161 54.5t-115 76t-74 104t-24 136q0 229 205.5 341.5t623.5 112.5q266 0 459 -29t455 -93q-24 -165 0 -320q-483 199 -926 199q-234 0 -341 -48.5t-107 -152.5q0 -41 13.5 -72.5
t45 -55.5t74.5 -41t112 -30.5t147 -22.5t189 -18q106 -8 189 -17t169 -22.5t150 -31.5t125 -42t103 -55.5t74 -71t47.5 -90.5t15.5 -112q0 -449 -834 -449z" />
    <glyph glyph-name="sacute" unicode="&#x15b;" horiz-adv-x="1443" 
d="M604 1294q127 146 281 367q67 -12 209 -12t211 12q-310 -227 -465 -367q-32 3 -115 3t-121 -3zM756 -29q-181 0 -355.5 32.5t-298.5 96.5q20 57 20 141t-20 130q97 -78 280.5 -126t362.5 -48q297 0 297 139q0 44 -33 71t-89 39t-128 16.5t-152 8t-160 10t-152 25t-128 50
t-89 89.5t-33 139q0 353 643 353q159 0 287.5 -22t298.5 -68q-38 -104 6 -273q-300 150 -611 150q-156 0 -229.5 -33.5t-73.5 -106.5q0 -47 33 -76.5t89.5 -41.5t129 -16.5t153 -6.5t161.5 -7.5t153.5 -23.5t129 -49t89.5 -89.5t33 -141.5q0 -361 -614 -361z" />
    <glyph glyph-name="Scedilla" unicode="&#x15e;" horiz-adv-x="2076" 
d="M1116 -23h-31l-41 -127q109 5 190.5 -6.5t128.5 -37.5t69.5 -59.5t23.5 -76.5q0 -200 -430 -200q-272 0 -477 104q15 80 0 154q92 -62 210 -94.5t242 -32.5q226 0 226 98q0 52 -82.5 80t-284.5 28l53 179q-393 27 -770 166q24 171 0 342q137 -131 420.5 -202t585.5 -71
q225 0 328.5 50t103.5 153q0 27 -5 49.5t-19 41t-29 33t-44.5 27.5t-54.5 22t-71.5 17.5t-83 14.5t-100.5 12.5t-112 11t-130 11.5q-134 12 -234.5 26.5t-196.5 37t-161 54.5t-115 76t-74 104t-24 136q0 229 205.5 341.5t623.5 112.5q266 0 459 -29t455 -93q-24 -165 0 -320
q-483 199 -926 199q-234 0 -341 -48.5t-107 -152.5q0 -41 13.5 -72.5t45 -55.5t74.5 -41t112 -30.5t147 -22.5t189 -18q106 -8 189 -17t169 -22.5t150 -31.5t125 -42t103 -55.5t74 -71t47.5 -90.5t15.5 -112q0 -449 -834 -449z" />
    <glyph glyph-name="scedilla" unicode="&#x15f;" horiz-adv-x="1443" 
d="M1370 332q0 -345 -563 -361l-33 -108q185 10 270.5 -37.5t85.5 -132.5q0 -90 -91 -140.5t-281 -50.5q-239 0 -414 99q12 78 0 147q78 -59 181.5 -90t211.5 -31q195 0 195 94q0 50 -71.5 76.5t-248.5 26.5l43 149q-340 17 -553 127q20 57 20 141t-20 130
q97 -78 280.5 -126t362.5 -48q297 0 297 139q0 44 -33 71t-89 39t-128 16.5t-152 8t-160 10t-152 25t-128 50t-89 89.5t-33 139q0 353 643 353q159 0 287.5 -22t298.5 -68q-38 -104 6 -273q-300 150 -611 150q-156 0 -229.5 -33.5t-73.5 -106.5q0 -47 33 -76.5t89.5 -41.5
t129 -16.5t153 -6.5t161.5 -7.5t153.5 -23.5t129 -49t89.5 -89.5t33 -141.5z" />
    <glyph glyph-name="Scaron" unicode="&#x160;" horiz-adv-x="2076" 
d="M481 2042q162 -13 328 0q11 -13 37 -43l39 -45t34 -38t41 -42.5t41 -38.5q19 16 38.5 34t32.5 31t35.5 36t30.5 32t35 38t33 36q164 -12 322 0q-26 -20 -85 -66t-84.5 -66.5t-69 -56t-78.5 -66.5t-72 -65q-136 9 -281 0q-23 22 -47 44.5t-41 38.5t-47 41t-42 35.5t-49 40
t-44.5 36t-53.5 43t-53 41.5zM1116 -23q-503 0 -973 175q24 171 0 342q137 -131 420.5 -202t585.5 -71q225 0 328.5 50t103.5 153q0 27 -5 49.5t-19 41t-29 33t-44.5 27.5t-54.5 22t-71.5 17.5t-83 14.5t-100.5 12.5t-112 11t-130 11.5q-134 12 -234.5 26.5t-196.5 37
t-161 54.5t-115 76t-74 104t-24 136q0 229 205.5 341.5t623.5 112.5q266 0 459 -29t455 -93q-24 -165 0 -320q-483 199 -926 199q-234 0 -341 -48.5t-107 -152.5q0 -41 13.5 -72.5t45 -55.5t74.5 -41t112 -30.5t147 -22.5t189 -18q106 -8 189 -17t169 -22.5t150 -31.5
t125 -42t103 -55.5t74 -71t47.5 -90.5t15.5 -112q0 -449 -834 -449z" />
    <glyph glyph-name="scaron" unicode="&#x161;" horiz-adv-x="1443" 
d="M604 1292q-155 190 -336 371q147 -12 291 0q70 -105 174 -233q94 112 180 233q143 -12 289 0q-190 -182 -350 -371q-126 9 -248 0zM756 -29q-181 0 -355.5 32.5t-298.5 96.5q20 57 20 141t-20 130q97 -78 280.5 -126t362.5 -48q297 0 297 139q0 44 -33 71t-89 39
t-128 16.5t-152 8t-160 10t-152 25t-128 50t-89 89.5t-33 139q0 353 643 353q159 0 287.5 -22t298.5 -68q-38 -104 6 -273q-300 150 -611 150q-156 0 -229.5 -33.5t-73.5 -106.5q0 -47 33 -76.5t89.5 -41.5t129 -16.5t153 -6.5t161.5 -7.5t153.5 -23.5t129 -49t89.5 -89.5
t33 -141.5q0 -361 -614 -361z" />
    <glyph glyph-name="uni0162" unicode="&#x162;" horiz-adv-x="1859" 
d="M1855 1239q-323 50 -739 55q-8 -316 -3 -686t20 -608h-115l-51 -150q213 10 312 -40.5t101 -139.5q0 -198 -430 -198q-140 0 -253 23.5t-224 80.5q15 79 0 154q92 -62 210.5 -94.5t242.5 -32.5q115 0 170 23t55 75t-82.5 80.5t-284.5 28.5l58 190h-99q14 231 17.5 609
t-4.5 685q-417 -6 -736 -55q24 143 0 287q919 -22 1835 0q-24 -144 0 -287z" />
    <glyph glyph-name="uni0163" unicode="&#x163;" horiz-adv-x="1202" 
d="M596 905q-8 -276 -10 -379q-1 -88 18 -150t56.5 -96t83 -49t104.5 -16q99 -2 309 55q-26 -125 -4 -231q-211 -64 -395 -64q-16 0 -88 5l-35 -119q185 10 270.5 -37.5t85.5 -132.5q0 -90 -91.5 -140.5t-281.5 -50.5q-238 0 -413 99q12 78 0 147q78 -59 181.5 -90
t211.5 -31q195 0 195 94q0 50 -71.5 76.5t-248.5 26.5l53 192q-231 84 -231 365q0 293 -6 520q-156 -6 -297 -18q6 44 6 110.5t-6 110.5q157 -14 291 -19q-11 224 -23 332q232 24 350 82q-8 -262 -10 -420q291 0 557 25q-10 -109 0 -221q-258 24 -561 24z" />
    <glyph glyph-name="Tcaron" unicode="&#x164;" horiz-adv-x="1875" 
d="M416 2042q162 -13 327 0q6 -7 36.5 -42t40.5 -46.5t33.5 -37t42.5 -44t40 -37.5q19 16 38.5 34t32.5 31t35.5 36t30.5 32t35 38t33 36q164 -12 321 0q-26 -20 -85 -66t-84.5 -66.5t-69 -56t-78.5 -66.5t-72 -65q-135 9 -280 0q-23 22 -47 44.5t-41 38.5t-47 41t-42 35.5
t-49 40t-44.5 36t-53.5 43t-53 41.5zM743 0q14 231 17.5 609t-4.5 685q-417 -6 -736 -55q24 143 0 287q919 -22 1835 0q-24 -144 0 -287q-323 50 -739 55q-8 -316 -3 -686t20 -608h-390z" />
    <glyph glyph-name="tcaron" unicode="&#x165;" horiz-adv-x="1202" 
d="M1016 1241q-87 6 -174 0q-18 279 -62 561q152 -18 310 0q-50 -282 -74 -561zM596 905q-8 -276 -10 -379q-1 -88 18 -150t56.5 -96t83 -49t104.5 -16q99 -2 309 55q-26 -125 -4 -231q-211 -64 -395 -64q-76 1 -141 13t-125.5 41t-103 74t-68 115.5t-25.5 160.5
q0 293 -6 520q-156 -6 -297 -18q6 44 6 110.5t-6 110.5q157 -14 291 -19q-11 224 -23 332q232 24 350 82q-8 -262 -10 -420q291 0 557 25q-10 -109 0 -221q-258 24 -561 24z" />
    <glyph glyph-name="Tbar" unicode="&#x166;" horiz-adv-x="1875" 
d="M1116 1294q-7 -253 -4 -483q75 1 242.5 5t222.5 5q-12 -93 0 -182q-178 6 -465 10q3 -339 21 -649h-390q16 271 19 649q-151 0 -479 -10q12 89 0 182q62 -1 232.5 -5t246.5 -5q0 258 -6 483q-417 -6 -736 -55q24 143 0 287q919 -22 1835 0q-24 -144 0 -287
q-323 50 -739 55z" />
    <glyph glyph-name="tbar" unicode="&#x167;" horiz-adv-x="1216" 
d="M1169 881q-258 24 -561 24l-6 -217q295 0 567 25q-10 -109 0 -221q-261 24 -571 24q0 -85 20 -145t57 -93t82 -47.5t103 -15.5q99 -2 309 55q-26 -125 -4 -231q-211 -64 -395 -64q-76 1 -141 13t-125.5 41t-103 74t-68 115.5t-25.5 160.5v131q-164 -6 -303 -18
q6 44 6 110.5t-6 110.5q159 -14 301 -19q-1 32 -2 101.5t-2 103.5q-156 -6 -297 -18q6 44 6 110.5t-6 110.5q157 -14 291 -19q-11 224 -23 332q233 24 351 82q-10 -326 -11 -420q291 0 557 25q-10 -109 0 -221z" />
    <glyph glyph-name="Umacron" unicode="&#x16a;" horiz-adv-x="2117" 
d="M532 1743q6 34 6 91.5t-6 92.5q515 -20 1047 0q-6 -35 -6 -92.5t6 -91.5q-530 17 -1047 0zM1968 760q0 -379 -241.5 -592t-671.5 -213q-441 0 -676.5 211t-235.5 594q0 518 -16 766q207 -30 381 0q-16 -248 -16 -774q0 -270 143.5 -419t419.5 -149q273 0 417 149.5
t144 418.5q0 557 -14 774q206 -30 380 0q-14 -260 -14 -766z" />
    <glyph glyph-name="umacron" unicode="&#x16b;" horiz-adv-x="1509" 
d="M229 1391q6 34 6 84t-6 84q495 -16 1006 0q-6 -34 -6 -84t6 -84q-510 20 -1006 0zM1393 1126q-71 -487 0 -1126h-379q55 217 61 383h-26q-59 -191 -198.5 -298.5t-336.5 -107.5q-90 0 -159.5 25t-114.5 67.5t-74 104t-41 128.5t-12 147q0 21 0.5 124t0 143t-3 118.5
t-9 135.5t-17.5 109q178 -3 334 47v-524q0 -172 68 -268t206 -96q179 0 261.5 108.5t82.5 294.5v438q195 -3 357 47z" />
    <glyph glyph-name="Uring" unicode="&#x16e;" horiz-adv-x="2117" 
d="M1059 1645q-151 0 -232.5 61.5t-81.5 175.5q0 113 82 175.5t232 62.5q147 0 227 -61.5t80 -176.5q0 -114 -80 -175.5t-227 -61.5zM1059 1763q74 0 114.5 30t40.5 87t-41 89t-114 32q-75 0 -117.5 -32t-42.5 -89q0 -56 42 -86.5t118 -30.5zM1968 760q0 -379 -241.5 -592
t-671.5 -213q-441 0 -676.5 211t-235.5 594q0 518 -16 766q207 -30 381 0q-16 -248 -16 -774q0 -270 143.5 -419t419.5 -149q273 0 417 149.5t144 418.5q0 557 -14 774q206 -30 380 0q-14 -260 -14 -766z" />
    <glyph glyph-name="uring" unicode="&#x16f;" horiz-adv-x="1509" 
d="M735 1266q-136 0 -210 59t-74 168q0 108 74 168.5t210 60.5q133 0 207 -60t74 -169t-73.5 -168t-207.5 -59zM735 1378q69 0 107.5 29.5t38.5 83.5q0 57 -38 87t-108 30q-71 0 -109 -30t-38 -87q0 -54 38.5 -83.5t108.5 -29.5zM1393 1126q-71 -487 0 -1126h-379
q55 217 61 383h-26q-59 -191 -198.5 -298.5t-336.5 -107.5q-90 0 -159.5 25t-114.5 67.5t-74 104t-41 128.5t-12 147q0 21 0.5 124t0 143t-3 118.5t-9 135.5t-17.5 109q178 -3 334 47v-524q0 -172 68 -268t206 -96q179 0 261.5 108.5t82.5 294.5v438q195 -3 357 47z" />
    <glyph glyph-name="Uhungarumlaut" unicode="&#x170;" horiz-adv-x="2117" 
d="M662 1714q123 154 235 330q49 -6 152.5 -6t154.5 6q-213 -205 -311 -330q-32 3 -112.5 3t-118.5 -3zM1159 1714q131 168 234 330q50 -6 153.5 -6t153.5 6l-42 -42l-49 -49t-46 -46.5t-50.5 -52.5t-43 -46.5t-45 -50t-35.5 -43.5q-32 3 -112.5 3t-117.5 -3zM1968 760
q0 -379 -241.5 -592t-671.5 -213q-441 0 -676.5 211t-235.5 594q0 518 -16 766q207 -30 381 0q-16 -248 -16 -774q0 -270 143.5 -419t419.5 -149q273 0 417 149.5t144 418.5q0 557 -14 774q206 -30 380 0q-14 -260 -14 -766z" />
    <glyph glyph-name="uhungarumlaut" unicode="&#x171;" horiz-adv-x="1509" 
d="M428 1292q79 124 203 371q40 -6 120.5 -6t120.5 6q-126 -159 -262 -371q-25 3 -88 3t-94 -3zM819 1292q79 126 201 371q40 -6 122 -6t120 6q-167 -221 -263 -371q-25 3 -88 3t-92 -3zM1393 1126q-71 -487 0 -1126h-379q55 217 61 383h-26q-59 -191 -198.5 -298.5
t-336.5 -107.5q-90 0 -159.5 25t-114.5 67.5t-74 104t-41 128.5t-12 147q0 21 0.5 124t0 143t-3 118.5t-9 135.5t-17.5 109q178 -3 334 47v-524q0 -172 68 -268t206 -96q179 0 261.5 108.5t82.5 294.5v438q195 -3 357 47z" />
    <glyph glyph-name="Uogonek" unicode="&#x172;" horiz-adv-x="2117" 
d="M139 760q0 523 -16 766q207 -30 381 0q-17 -258 -17 -774q0 -270 144.5 -419t423.5 -149q275 0 420 149.5t145 418.5q0 562 -14 774q207 -30 381 0q-15 -273 -15 -766q0 -116 -24 -215.5t-65.5 -175.5t-103 -141t-131 -112.5t-155.5 -88.5q-34 -16 -49.5 -23.5t-41 -24
t-37 -31t-21 -37.5t-9.5 -50q0 -37 18 -65t48 -44t60 -24t61 -11l6 -227q-96 2 -176.5 19.5t-144.5 50t-100 85.5t-36 122q0 112 109 200q-49 -12 -125 -12q-443 0 -679.5 211t-236.5 594z" />
    <glyph glyph-name="uogonek" unicode="&#x173;" horiz-adv-x="1509" 
d="M1393 0q-133 -13 -213 -54t-80 -108q0 -28 12 -49.5t28.5 -33.5t43 -20t46 -11t46.5 -5v-184q-115 -14 -213 12.5t-157.5 91.5t-59.5 156q0 156 170 211q53 219 59 377h-26q-59 -191 -198.5 -298.5t-336.5 -107.5q-90 0 -159.5 25t-114.5 67.5t-74 104t-41 128.5t-12 147
q0 21 0.5 124t0 143t-3 118.5t-9 135.5t-17.5 109q178 -3 334 47v-524q0 -172 68 -268t206 -96q179 0 261.5 108.5t82.5 294.5v438q195 -3 357 47q-71 -487 0 -1126z" />
    <glyph glyph-name="Wcircumflex" unicode="&#x174;" horiz-adv-x="2689" 
d="M1147 1714q-163 13 -322 0q27 22 97.5 80.5t100 83.5t79 69.5t92.5 86.5q148 -6 287 0q119 -112 381 -320q-154 12 -318 0q-125 139 -203 209q-77 -71 -194 -209zM2281 1526q188 -24 379 0q-42 -102 -85.5 -225.5t-104 -319.5t-88.5 -288t-109.5 -369t-95.5 -324h-530
q-179 897 -297 1278q-112 -381 -293 -1278h-547q-14 47 -64.5 222.5t-71 245t-66 222.5t-73.5 240t-66.5 206.5t-72.5 213.5t-67 176q193 -24 387 0q180 -723 364 -1356q208 763 314 1356q256 -24 512 0q136 -701 315 -1352q188 666 360 1352z" />
    <glyph glyph-name="wcircumflex" unicode="&#x175;" horiz-adv-x="2183" 
d="M926 1294q-139 12 -281 0q173 183 320 371q134 -9 268 0q158 -186 348 -371q-148 12 -293 0q-116 155 -184 234q-110 -136 -178 -234zM1810 1104q179 -38 365 0q-105 -243 -226.5 -554.5t-203.5 -549.5h-420q-168 636 -235 856q-119 -416 -234 -856h-418
q-77 224 -206 554t-224 550q207 -39 371 0q22 -79 66 -249.5t88.5 -323.5t105.5 -336q156 522 248 909q228 -35 420 0q108 -458 245 -905q108 354 258 905z" />
    <glyph glyph-name="Ycircumflex" unicode="&#x176;" horiz-adv-x="1824" 
d="M729 1698q-162 13 -321 0q28 23 97.5 80.5t99.5 83t79 69.5t92 86q148 -6 287 0q21 -19 40.5 -37t41.5 -37.5t37.5 -32.5t42 -35t38.5 -32t43.5 -35t41.5 -33.5t48 -38.5t48 -38q-154 12 -318 0q-129 143 -202 209q-82 -75 -195 -209zM1874 1526q-423 -491 -782 -961
q-24 -283 0 -565h-357q24 282 0 565q-393 511 -784 961q112 -14 228.5 -14.5t201.5 14.5q268 -394 539 -744q271 350 536 744q170 -31 418 0z" />
    <glyph glyph-name="ycircumflex" unicode="&#x177;" horiz-adv-x="1523" 
d="M274 1294q173 183 320 371q134 -9 268 0q158 -186 348 -371q-148 12 -292 0q-109 145 -185 234q-110 -136 -178 -234q-139 12 -281 0zM1092 94v291h-27q-58 -183 -195 -279t-340 -96q-110 0 -191.5 33t-129 94t-70 138.5t-22.5 173.5q0 22 0.5 123t0 139.5t-3 114.5
t-9 131.5t-17.5 107.5q192 0 342 49v-512q0 -75 14 -135t45 -110t87 -77.5t135 -27.5q340 0 340 387v426q188 0 340 49v-940q0 -49 -1.5 -85t-8.5 -90t-20 -95.5t-37.5 -92t-58 -87.5t-85.5 -74t-117 -60.5t-154.5 -38t-195.5 -14.5q-341 0 -600 131q19 56 19 134t-19 137
q95 -81 254.5 -128t314.5 -47q190 0 300 79t110 251z" />
    <glyph glyph-name="Ydieresis" unicode="&#x178;" horiz-adv-x="1824" 
d="M610 1694q-91 0 -136.5 30.5t-45.5 96.5q0 127 182 127q199 0 199 -127q0 -67 -49 -97t-150 -30zM1223 1694q-183 0 -183 127t183 127q198 0 198 -127q0 -67 -48 -97t-150 -30zM1874 1526q-423 -491 -782 -961q-24 -283 0 -565h-357q24 282 0 565q-393 511 -784 961
q112 -14 228.5 -14.5t201.5 14.5q268 -394 539 -744q271 350 536 744q170 -31 418 0z" />
    <glyph glyph-name="Zacute" unicode="&#x179;" horiz-adv-x="2025" 
d="M860 1702q44 39 92 90t123 138.5t90 103.5q64 -12 223.5 -12t225.5 12q-174 -107 -504 -332q-31 3 -125 3t-125 -3zM143 0q12 126 0 252q544 347 1305 958v37q-422 0 -1317 -45q12 163 0 324q352 -31 888.5 -31t870.5 31q-12 -140 0 -283q-309 -208 -643.5 -466
t-625.5 -509v-28q277 0 641.5 20.5t631.5 48.5q-12 -156 0 -309h-1751z" />
    <glyph glyph-name="zacute" unicode="&#x17a;" horiz-adv-x="1390" 
d="M561 1294q127 146 281 367q67 -12 209 -12t211 12q-310 -227 -465 -367q-32 3 -115 3t-121 -3zM88 0q11 95 0 213q388 259 805 621v26q-129 0 -257 -4.5t-321.5 -15.5t-228.5 -13q12 147 0 293q243 -25 608.5 -25t595.5 25q-12 -121 0 -266q-405 -265 -792 -592v-22
q366 0 807 49q-13 -130 0 -289h-1217z" />
    <glyph glyph-name="Zdotaccent" unicode="&#x17b;" horiz-adv-x="2025" 
d="M999 1698q-204 0 -204 143q0 141 204 141q222 0 222 -141q0 -143 -222 -143zM143 0q12 126 0 252q544 347 1305 958v37q-422 0 -1317 -45q12 163 0 324q352 -31 888.5 -31t870.5 31q-12 -140 0 -283q-309 -208 -643.5 -466t-625.5 -509v-28q277 0 641.5 20.5t631.5 48.5
q-12 -156 0 -309h-1751z" />
    <glyph glyph-name="zdotaccent" unicode="&#x17c;" horiz-adv-x="1390" 
d="M684 1296q-205 0 -205 142q0 141 205 141q223 0 223 -141q0 -142 -223 -142zM88 0q11 95 0 213q388 259 805 621v26q-129 0 -257 -4.5t-321.5 -15.5t-228.5 -13q12 147 0 293q243 -25 608.5 -25t595.5 25q-12 -121 0 -266q-405 -265 -792 -592v-22q366 0 807 49
q-13 -130 0 -289h-1217z" />
    <glyph glyph-name="Zcaron" unicode="&#x17d;" horiz-adv-x="2025" 
d="M485 2042q162 -13 328 0q6 -7 36.5 -42t40.5 -46.5t33.5 -37t42.5 -44t40 -37.5q22 19 42.5 38t44.5 43.5t36 37t42 45.5t39 43q164 -12 322 0q-26 -20 -85 -66t-84.5 -66.5t-69 -56t-78.5 -66.5t-72 -65q-136 9 -281 0q-23 22 -47 44.5t-41 38.5t-47 41t-42 35.5t-49 40
t-44.5 36t-53.5 43t-53 41.5zM143 0q12 126 0 252q544 347 1305 958v37q-422 0 -1317 -45q12 163 0 324q352 -31 888.5 -31t870.5 31q-12 -140 0 -283q-309 -208 -643.5 -466t-625.5 -509v-28q277 0 641.5 20.5t631.5 48.5q-12 -156 0 -309h-1751z" />
    <glyph glyph-name="zcaron" unicode="&#x17e;" horiz-adv-x="1390" 
d="M561 1292q-155 190 -336 371q147 -12 291 0q70 -105 174 -233q94 112 180 233q143 -12 289 0q-190 -182 -350 -371q-126 9 -248 0zM88 0q11 95 0 213q388 259 805 621v26q-129 0 -257 -4.5t-321.5 -15.5t-228.5 -13q12 147 0 293q243 -25 608.5 -25t595.5 25
q-12 -121 0 -266q-405 -265 -792 -592v-22q366 0 807 49q-13 -130 0 -289h-1217z" />
    <glyph glyph-name="uni0218" unicode="&#x218;" horiz-adv-x="2076" 
d="M1116 -23q-503 0 -973 175q24 171 0 342q137 -131 420.5 -202t585.5 -71q225 0 328.5 50t103.5 153q0 27 -5 49.5t-19 41t-29 33t-44.5 27.5t-54.5 22t-71.5 17.5t-83 14.5t-100.5 12.5t-112 11t-130 11.5q-134 12 -234.5 26.5t-196.5 37t-161 54.5t-115 76t-74 104
t-24 136q0 229 205.5 341.5t623.5 112.5q266 0 459 -29t455 -93q-24 -165 0 -320q-483 199 -926 199q-234 0 -341 -48.5t-107 -152.5q0 -41 13.5 -72.5t45 -55.5t74.5 -41t112 -30.5t147 -22.5t189 -18q106 -8 189 -17t169 -22.5t150 -31.5t125 -42t103 -55.5t74 -71
t47.5 -90.5t15.5 -112q0 -449 -834 -449zM793 -262q0 143 194 143q100 0 147.5 -38.5t47.5 -127.5t-69.5 -192.5t-164.5 -196.5q-47 11 -98 2q113 146 143 269q-200 -3 -200 141z" />
    <glyph glyph-name="uni0219" unicode="&#x219;" horiz-adv-x="1443" 
d="M756 -29q-181 0 -355.5 32.5t-298.5 96.5q20 57 20 141t-20 130q97 -78 280.5 -126t362.5 -48q297 0 297 139q0 44 -33 71t-89 39t-128 16.5t-152 8t-160 10t-152 25t-128 50t-89 89.5t-33 139q0 353 643 353q159 0 287.5 -22t298.5 -68q-38 -104 6 -273
q-300 150 -611 150q-156 0 -229.5 -33.5t-73.5 -106.5q0 -47 33 -76.5t89.5 -41.5t129 -16.5t153 -6.5t161.5 -7.5t153.5 -23.5t129 -49t89.5 -89.5t33 -141.5q0 -361 -614 -361zM520 -258q0 143 195 143q100 0 147 -38.5t47 -127.5q0 -47 -21.5 -102t-58 -107t-74 -95.5
t-79.5 -84.5q-47 11 -98 2q113 146 143 269q-201 -3 -201 141z" />
    <glyph glyph-name="uni021A" unicode="&#x21a;" horiz-adv-x="1875" 
d="M743 0q14 231 17.5 609t-4.5 685q-417 -6 -736 -55q24 143 0 287q919 -22 1835 0q-24 -144 0 -287q-323 50 -739 55q-8 -316 -3 -686t20 -608h-390zM725 -260q0 143 195 143q100 0 147 -38.5t47 -127.5q0 -47 -21.5 -102t-58 -107t-74 -95.5t-79.5 -84.5q-47 11 -99 2
q114 148 144 269q-201 -3 -201 141z" />
    <glyph glyph-name="uni021B" unicode="&#x21b;" horiz-adv-x="1202" 
d="M596 905q-8 -276 -10 -379q-1 -88 18 -150t56.5 -96t83 -49t104.5 -16q99 -2 309 55q-26 -125 -4 -231q-211 -64 -395 -64q-76 1 -141 13t-125.5 41t-103 74t-68 115.5t-25.5 160.5q0 293 -6 520q-156 -6 -297 -18q6 44 6 110.5t-6 110.5q157 -14 291 -19
q-11 224 -23 332q232 24 350 82q-8 -262 -10 -420q291 0 557 25q-10 -109 0 -221q-258 24 -561 24zM694 -117q100 0 147.5 -39t47.5 -127q0 -91 -69.5 -194t-164.5 -197q-44 11 -96 4q116 152 141 267q-102 0 -151 35t-49 108q0 143 194 143z" />
    <glyph glyph-name="uni0237" unicode="&#x237;" horiz-adv-x="641" 
d="M8 -440q-121 0 -233 34q0 58 -14 107.5t-44 120.5q105 -25 177 -25q59 0 103.5 14t81 48.5t56 99t19.5 158.5q0 638 -21 964q184 -36 363 0q-27 -443 -27 -1101q0 -90 -26 -162.5t-69 -120t-103 -79t-125 -45t-138 -13.5z" />
    <glyph glyph-name="circumflex" unicode="&#x2c6;" horiz-adv-x="1114" 
d="M41 1288q164 174 317 373q134 -6 269 0q167 -197 348 -373q-148 12 -293 0q-75 105 -184 238q-107 -139 -176 -238q-139 12 -281 0z" />
    <glyph glyph-name="caron" unicode="&#x2c7;" horiz-adv-x="1177" 
d="M377 1286q-155 190 -336 371q147 -12 291 0q74 -111 174 -234q89 106 180 234q143 -12 289 0q-190 -182 -350 -371q-126 9 -248 0z" />
    <glyph glyph-name="breve" unicode="&#x2d8;" horiz-adv-x="1185" 
d="M518 1288q-199 0 -320.5 101.5t-123.5 255.5h225q2 -81 59 -135t160 -54q104 0 161.5 54t59.5 135h240q-1 -157 -132 -257t-329 -100z" />
    <glyph glyph-name="dotaccent" unicode="&#x2d9;" horiz-adv-x="608" 
d="M295 1292q-205 0 -205 142q0 143 205 143q221 0 221 -143q0 -142 -221 -142z" />
    <glyph glyph-name="ring" unicode="&#x2da;" horiz-adv-x="714" 
d="M389 1255q-136 0 -209.5 60t-73.5 170q0 108 73.5 168.5t209.5 60.5q135 0 208 -60t73 -169q0 -110 -73 -170t-208 -60zM389 1368q69 0 107.5 30t38.5 85t-38.5 85.5t-107.5 30.5q-70 0 -107.5 -30t-37.5 -86t37.5 -85.5t107.5 -29.5z" />
    <glyph glyph-name="ogonek" unicode="&#x2db;" horiz-adv-x="1228" 
d="M836 25l26 -25q-133 -13 -213 -54t-80 -108q0 -28 12 -49.5t28.5 -33.5t43 -20t46 -11t46.5 -5v-184q-115 -14 -213 12.5t-157.5 91.5t-59.5 156q0 63 28.5 109.5t77.5 73t115 41.5t142 14.5t158 -8.5z" />
    <glyph glyph-name="tilde" unicode="&#x2dc;" horiz-adv-x="1210" 
d="M391 1655q62 0 124.5 -17t107.5 -37.5t111.5 -37.5t135.5 -17q154 0 240 105q6 -18 6 -21q-14 -63 -32 -108t-50 -87t-84 -63.5t-123 -21.5q-65 0 -131 17t-112.5 38t-112 38t-129.5 17q-157 0 -242 -127q-5 7 -8 17q14 58 27 97t36.5 82t53 68t76 41.5t106.5 16.5z" />
    <glyph glyph-name="hungarumlaut" unicode="&#x2dd;" horiz-adv-x="1175" 
d="M57 1286q79 124 203 371q40 -6 121 -6t121 6q-126 -159 -262 -371q-25 3 -88.5 3t-94.5 -3zM449 1286q74 118 200 371q40 -6 122 -6t120 6q-160 -212 -262 -371q-25 3 -88 3t-92 -3z" />
    <glyph glyph-name="gravecomb" unicode="&#x300;" 
d="M-399 1290q-155 140 -465 367q69 -12 211.5 -12t208.5 12q183 -255 280 -367q-38 3 -120.5 3t-114.5 -3z" />
    <glyph glyph-name="acutecomb" unicode="&#x301;" 
d="M-717 1290q127 146 281 367q67 -12 209 -12t211 12q-310 -227 -465 -367q-32 3 -115 3t-121 -3z" />
    <glyph glyph-name="uni0302" unicode="&#x302;" 
d="M-985 1288q167 177 319 371q134 -9 269 0q158 -186 348 -371q-148 12 -293 0q-116 155 -184 234q-117 -144 -179 -234q-138 12 -280 0z" />
    <glyph glyph-name="tildecomb" unicode="&#x303;" 
d="M-782 1655q58 0 117.5 -17.5t102 -38t106 -38t128.5 -17.5q144 0 230 105q0 -3 2 -10t2 -11q-10 -49 -22.5 -86t-34 -75t-49.5 -62t-71 -39.5t-98 -15.5q-77 0 -154 27.5l-154 55t-154 27.5q-149 0 -228 -125q-5 5 -8 17q14 57 26 95.5t34.5 81t50.5 68t72.5 42
t101.5 16.5z" />
    <glyph glyph-name="uni0304" unicode="&#x304;" 
d="M-1092 1397q6 34 6 84t-6 84q495 -16 1006 0q-6 -34 -6 -84t6 -84q-510 20 -1006 0z" />
    <glyph glyph-name="uni0306" unicode="&#x306;" 
d="M-543 1288q-199 0 -320.5 101.5t-123.5 255.5h225q2 -81 59 -135t160 -54q104 0 161.5 54t59.5 135h240q-1 -157 -132 -257t-329 -100z" />
    <glyph glyph-name="uni0307" unicode="&#x307;" 
d="M-313 1292q-205 0 -205 142q0 141 205 141q223 0 223 -141q0 -142 -223 -142z" />
    <glyph glyph-name="uni0308" unicode="&#x308;" 
d="M-846 1298q-172 0 -172 129t172 129q189 0 189 -129t-189 -129zM-276 1298q-173 0 -173 129t173 129q186 0 186 -129t-186 -129z" />
    <glyph glyph-name="uni030A" unicode="&#x30a;" 
d="M-387 1257q-136 0 -210.5 59.5t-74.5 168.5q0 108 74.5 168.5t210.5 60.5q133 0 207 -60t74 -169t-73.5 -168.5t-207.5 -59.5zM-387 1370q69 0 107 29.5t38 83.5q0 57 -37.5 86.5t-107.5 29.5q-71 0 -109.5 -29.5t-38.5 -86.5q0 -54 38.5 -83.5t109.5 -29.5z" />
    <glyph glyph-name="uni030B" unicode="&#x30b;" 
d="M-776 1286q79 124 203 371q40 -6 120.5 -6t120.5 6q-126 -159 -262 -371q-25 3 -88 3t-94 -3zM-385 1286q79 126 201 371q40 -6 121.5 -6t119.5 6q-160 -212 -262 -371q-25 3 -88 3t-92 -3z" />
    <glyph glyph-name="uni030C" unicode="&#x30c;" 
d="M-647 1286q-155 190 -336 371q147 -12 291 0q74 -111 174 -234q89 106 180 234q143 -12 289 0q-190 -182 -350 -371q-126 9 -248 0z" />
    <glyph glyph-name="uni0312" unicode="&#x312;" 
d="M-127 1327q0 -141 -195 -141q-99 0 -146.5 38.5t-47.5 127.5q0 90 70 193.5t165 195.5q45 -12 97 -2q-116 -155 -144 -269q201 3 201 -143z" />
    <glyph glyph-name="uni0326" unicode="&#x326;" 
d="M-510 -264q0 143 195 143q100 0 147 -38.5t47 -127.5q0 -47 -21.5 -102t-58 -107t-74 -95.5t-79.5 -84.5q-47 11 -99 2q115 149 144 268q-201 -3 -201 142z" />
    <glyph glyph-name="uni0327" unicode="&#x327;" 
d="M-463 -500q-239 0 -414 99q12 78 0 147q78 -59 182 -90t212 -31q194 0 194 94q0 50 -71 76.5t-248 26.5l55 196h154l-47 -157q185 10 270.5 -37.5t85.5 -132.5q0 -90 -91.5 -140.5t-281.5 -50.5z" />
    <glyph glyph-name="uni0328" unicode="&#x328;" 
d="M-393 25l26 -25q-133 -13 -212.5 -54t-79.5 -108q0 -28 12 -49.5t28.5 -33.5t43 -20t46 -11t46.5 -5v-184q-115 -14 -213 12.5t-157.5 91.5t-59.5 156q0 63 28 109.5t77 73t115 41.5t142 14.5t158 -8.5z" />
    <glyph glyph-name="Wgrave" unicode="&#x1e80;" horiz-adv-x="2689" 
d="M1452 1702q-31 2 -125 2t-125 -2q-137 92 -504 332q65 -12 224.5 -12t224.5 12q181 -223 305 -332zM2281 1526q188 -24 379 0q-42 -102 -85.5 -225.5t-104 -319.5t-88.5 -288t-109.5 -369t-95.5 -324h-530q-179 897 -297 1278q-112 -381 -293 -1278h-547
q-14 47 -64.5 222.5t-71 245t-66 222.5t-73.5 240t-66.5 206.5t-72.5 213.5t-67 176q193 -24 387 0q180 -723 364 -1356q208 763 314 1356q256 -24 512 0q136 -701 315 -1352q188 666 360 1352z" />
    <glyph glyph-name="wgrave" unicode="&#x1e81;" horiz-adv-x="2183" 
d="M1217 1294q-38 3 -121 3t-115 -3q-155 140 -465 367q69 -12 211.5 -12t208.5 12q178 -249 281 -367zM1810 1104q179 -38 365 0q-105 -243 -226.5 -554.5t-203.5 -549.5h-420q-168 636 -235 856q-119 -416 -234 -856h-418q-77 224 -206 554t-224 550q207 -39 371 0
q22 -79 66 -249.5t88.5 -323.5t105.5 -336q156 522 248 909q228 -35 420 0q108 -458 245 -905q108 354 258 905z" />
    <glyph glyph-name="Wacute" unicode="&#x1e82;" horiz-adv-x="2689" 
d="M1444 1702q-31 3 -125 3t-125 -3q44 39 92 90t123 138.5t90 103.5q64 -12 223.5 -12t225.5 12q-174 -107 -504 -332zM2281 1526q188 -24 379 0q-42 -102 -85.5 -225.5t-104 -319.5t-88.5 -288t-109.5 -369t-95.5 -324h-530q-179 897 -297 1278q-112 -381 -293 -1278h-547
q-14 47 -64.5 222.5t-71 245t-66 222.5t-73.5 240t-66.5 206.5t-72.5 213.5t-67 176q193 -24 387 0q180 -723 364 -1356q208 763 314 1356q256 -24 512 0q136 -701 315 -1352q188 666 360 1352z" />
    <glyph glyph-name="wacute" unicode="&#x1e83;" horiz-adv-x="2183" 
d="M1214 1294q-32 3 -114.5 3t-120.5 -3q127 146 281 367q68 -12 209 -12t210 12q-310 -227 -465 -367zM1810 1104q179 -38 365 0q-105 -243 -226.5 -554.5t-203.5 -549.5h-420q-168 636 -235 856q-119 -416 -234 -856h-418q-77 224 -206 554t-224 550q207 -39 371 0
q22 -79 66 -249.5t88.5 -323.5t105.5 -336q156 522 248 909q228 -35 420 0q108 -458 245 -905q108 354 258 905z" />
    <glyph glyph-name="Wdieresis" unicode="&#x1e84;" horiz-adv-x="2689" 
d="M1028 1710q-91 0 -136.5 30.5t-45.5 96.5q0 127 182 127q199 0 199 -127q0 -67 -49 -97t-150 -30zM1640 1710q-91 0 -136.5 30.5t-45.5 96.5q0 127 182 127q199 0 199 -127q0 -67 -48.5 -97t-150.5 -30zM2281 1526q188 -24 379 0q-42 -102 -85.5 -225.5t-104 -319.5
t-88.5 -288t-109.5 -369t-95.5 -324h-530q-179 897 -297 1278q-112 -381 -293 -1278h-547q-14 47 -64.5 222.5t-71 245t-66 222.5t-73.5 240t-66.5 206.5t-72.5 213.5t-67 176q193 -24 387 0q180 -723 364 -1356q208 763 314 1356q256 -24 512 0q136 -701 315 -1352
q188 666 360 1352z" />
    <glyph glyph-name="wdieresis" unicode="&#x1e85;" horiz-adv-x="2183" 
d="M817 1305q-172 0 -172 129t172 129q189 0 189 -129t-189 -129zM1386 1305q-172 0 -172 129t172 129q187 0 187 -129t-187 -129zM1810 1104q179 -38 365 0q-105 -243 -226.5 -554.5t-203.5 -549.5h-420q-168 636 -235 856q-119 -416 -234 -856h-418q-77 224 -206 554
t-224 550q207 -39 371 0q22 -79 66 -249.5t88.5 -323.5t105.5 -336q156 522 248 909q228 -35 420 0q108 -458 245 -905q108 354 258 905z" />
    <glyph glyph-name="uni1E9E" unicode="&#x1e9e;" horiz-adv-x="2129" 
d="M1395 -25q-368 0 -621 123q23 132 0 312q79 -72 240.5 -117t318.5 -45q149 0 235.5 59.5t86.5 167.5q0 139 -160 207t-506 68q246 191 459 430q-156 118 -428 118q-232 0 -348.5 -87t-116.5 -240q0 -594 20 -971h-399q21 400 21 981q0 105 29.5 192t94 158.5t162.5 120.5
t239.5 75.5t319.5 26.5q109 0 217 -11t230 -37.5t243 -77.5t224 -123q-48 -45 -155.5 -146.5t-178.5 -166.5t-141 -126q277 -43 418 -161.5t141 -288.5q0 -200 -177.5 -320.5t-467.5 -120.5z" />
    <glyph glyph-name="Ygrave" unicode="&#x1ef2;" horiz-adv-x="1824" 
d="M1034 1686q-31 2 -125 2t-125 -2q-118 79 -503 331q64 -12 224 -12t224 12q178 -220 305 -331zM1874 1526q-423 -491 -782 -961q-24 -283 0 -565h-357q24 282 0 565q-393 511 -784 961q112 -14 228.5 -14.5t201.5 14.5q268 -394 539 -744q271 350 536 744q170 -31 418 0z
" />
    <glyph glyph-name="ygrave" unicode="&#x1ef3;" horiz-adv-x="1523" 
d="M610 1294q-155 140 -465 367q69 -12 211.5 -12t208.5 12q178 -249 281 -367q-38 3 -121 3t-115 -3zM1092 94v291h-27q-58 -183 -195 -279t-340 -96q-110 0 -191.5 33t-129 94t-70 138.5t-22.5 173.5q0 22 0.5 123t0 139.5t-3 114.5t-9 131.5t-17.5 107.5q192 0 342 49
v-512q0 -75 14 -135t45 -110t87 -77.5t135 -27.5q340 0 340 387v426q188 0 340 49v-940q0 -49 -1.5 -85t-8.5 -90t-20 -95.5t-37.5 -92t-58 -87.5t-85.5 -74t-117 -60.5t-154.5 -38t-195.5 -14.5q-341 0 -600 131q19 56 19 134t-19 137q95 -81 254.5 -128t314.5 -47
q190 0 300 79t110 251z" />
    <glyph glyph-name="endash" unicode="&#x2013;" horiz-adv-x="1144" 
d="M1079 668q-5 -28 -5 -78.5t5 -75.5q-209 8 -507 8t-504 -8q5 24 4.5 75.5t-6.5 78.5q207 -8 505.5 -8t507.5 8z" />
    <glyph glyph-name="emdash" unicode="&#x2014;" horiz-adv-x="1916" 
d="M1851 668q-9 -28 -9 -78.5t9 -75.5q-341 8 -893 8t-890 -8q9 24 8.5 75.5t-10.5 78.5q340 -8 892 -8t893 8z" />
    <glyph glyph-name="quoteleft" unicode="&#x2018;" horiz-adv-x="577" 
d="M483 1145q0 -144 -194 -144q-99 0 -147 39t-48 127q0 91 70 195.5t166 196.5q44 -11 96 -5q-114 -149 -143 -266q102 0 151 -35t49 -108z" />
    <glyph glyph-name="quoteright" unicode="&#x2019;" horiz-adv-x="589" 
d="M78 1419q0 144 194 144q99 0 147 -39t48 -127q0 -91 -70 -195t-166 -196q-41 11 -96 4q115 150 144 266q-102 0 -151.5 35t-49.5 108z" />
    <glyph glyph-name="quotesinglbase" unicode="&#x201a;" horiz-adv-x="577" 
d="M94 121q0 141 193 141q100 0 148 -38.5t48 -125.5q0 -90 -69.5 -192.5t-165.5 -194.5q-41 11 -96 4q114 148 143 265q-201 -3 -201 141z" />
    <glyph glyph-name="quotedblleft" unicode="&#x201c;" horiz-adv-x="1067" 
d="M973 1149q0 -143 -195 -143q-100 0 -147 38.5t-47 126.5q0 159 233 392q44 -11 98 -4q-112 -141 -143 -269q201 3 201 -141zM483 1141q0 -144 -194 -144q-99 0 -147 39t-48 127q0 160 236 391q41 -11 96 -4q-114 -148 -143 -268q200 3 200 -141z" />
    <glyph glyph-name="quotedblright" unicode="&#x201d;" horiz-adv-x="1064" 
d="M94 1421q0 144 195 144q99 0 146.5 -39t47.5 -127q0 -91 -69.5 -195t-165.5 -196q-41 11 -96 4q113 148 143 266q-102 0 -151.5 35t-49.5 108zM582 1421q0 144 194 144q99 0 147 -39t48 -127q0 -91 -70 -195t-166 -196q-41 11 -96 4q113 148 143 266q-102 0 -151 35
t-49 108z" />
    <glyph glyph-name="quotedblbase" unicode="&#x201e;" horiz-adv-x="1056" 
d="M94 121q0 141 193 141q100 0 148 -38.5t48 -125.5q0 -90 -69.5 -192.5t-165.5 -194.5q-41 11 -96 4q114 148 143 265q-201 -3 -201 141zM573 121q0 141 193 141q101 0 149 -38.5t48 -125.5q0 -160 -236 -387q-41 11 -96 4q114 148 143 265q-201 -3 -201 141z" />
    <glyph glyph-name="dagger" unicode="&#x2020;" horiz-adv-x="1445" 
d="M1331 926q-203 17 -502 24q-7 -712 31 -1179q-62 7 -149 7t-142 -7q34 507 31 1179q-238 -6 -489 -24q7 57 7 133t-7 129q264 -22 487 -25q-7 311 -20 490q56 -7 134.5 -7t139.5 7q-15 -195 -21 -490q231 3 500 25q-7 -52 -7 -128.5t7 -133.5z" />
    <glyph glyph-name="daggerdbl" unicode="&#x2021;" horiz-adv-x="1445" 
d="M825 950q-3 -215 0 -426q233 3 506 25q-7 -51 -7 -128t7 -134q-204 17 -504 24q11 -368 25 -540q-62 7 -140 7t-134 -7q16 236 22 540q-238 -6 -489 -24q7 57 7 134t-7 128q267 -22 491 -25q3 213 0 426q-237 -6 -491 -24q7 57 7 133t-7 129q263 -22 487 -25
q-7 313 -20 492q56 -7 134.5 -7t139.5 7q-17 -231 -23 -492q232 3 502 25q-7 -52 -7 -128.5t7 -133.5q-206 17 -506 24z" />
    <glyph glyph-name="bullet" unicode="&#x2022;" horiz-adv-x="702" 
d="M348 336q-254 0 -254 211t254 211q260 0 260 -211t-260 -211z" />
    <glyph glyph-name="ellipsis" unicode="&#x2026;" horiz-adv-x="1728" 
d="M289 -20q-195 0 -195 143t195 143q194 0 194 -143t-194 -143zM866 -20q-194 0 -194 143t194 143q195 0 195 -143t-195 -143zM1438 -20q-193 0 -193 143t193 143q196 0 196 -143t-196 -143z" />
    <glyph glyph-name="perthousand" unicode="&#x2030;" horiz-adv-x="3096" 
d="M522 752q-203 0 -326.5 108t-123.5 297q0 187 124 295.5t326 108.5q203 0 326 -108.5t123 -295.5q0 -189 -122.5 -297t-326.5 -108zM1591 1518q47 -6 118 -6t118 6q-93 -105 -330.5 -370t-358.5 -402t-305.5 -350.5t-334.5 -395.5q-47 6 -118 6t-118 -6
q102 114 328.5 367.5t353 396.5t311 356t336.5 398zM520 887q112 0 173 69.5t61 194.5t-61 194.5t-173 69.5q-106 0 -166.5 -70t-60.5 -194t60.5 -194t166.5 -70zM1556 -39q-204 0 -326 108t-122 298q0 187 121.5 294t326.5 107q203 0 327 -107.5t124 -293.5
q0 -189 -124 -297.5t-327 -108.5zM2574 -39q-204 0 -326 108t-122 298q0 187 121.5 294t326.5 107q203 0 327 -107.5t124 -293.5q0 -189 -124 -297.5t-327 -108.5zM1554 96q110 0 172 70t62 194q0 125 -62 195t-172 70q-107 0 -167 -70t-60 -195t60 -194.5t167 -69.5z
M2572 96q110 0 171 69.5t61 194.5t-61 195t-171 70q-107 0 -168 -70.5t-61 -194.5t61 -194t168 -70z" />
    <glyph glyph-name="guilsinglleft" unicode="&#x2039;" horiz-adv-x="931" 
d="M98 551q82 63 107 82.5t94 76.5t104 91t84 86.5t86 103.5h240q-57 -62 -125.5 -126.5t-117.5 -107.5t-126 -108.5t-114 -97.5q28 -24 112.5 -94.5t129.5 -109t114.5 -103.5t126.5 -125h-240q-46 61 -99.5 117.5t-128 118.5t-114.5 94t-133 102z" />
    <glyph glyph-name="guilsinglright" unicode="&#x203a;" horiz-adv-x="931" 
d="M834 551q-96 -73 -134 -102.5t-114 -93t-129 -119.5t-99 -117h-239q57 60 126.5 125t114.5 103.5t129.5 109t112.5 94.5q-37 32 -114 97.5t-126 108.5t-117.5 107.5t-125.5 126.5h239q57 -78 140 -159t142.5 -129.5t167.5 -131.5l14 -10.5t12 -9.5z" />
    <glyph glyph-name="Euro" unicode="&#x20ac;" horiz-adv-x="2275" 
d="M2142 539q-12 -119 23 -318q-203 -133 -404 -194.5t-485 -61.5q-365 0 -602.5 137t-323.5 387q-65 -3 -311 -16q12 90 0 180q147 -9 276 -12q-8 55 -8 129q0 47 2 72q-126 -6 -270 -15q12 93 0 183q168 -10 297 -15q73 277 327 423.5t646 146.5q190 0 381.5 -37
t451.5 -133q-19 -164 0 -328q-257 140 -449.5 194t-365.5 56q-246 3 -416 -83t-239 -247q378 -3 854 23q-12 -90 0 -183q-531 31 -891 23q-4 -50 -4 -80q0 -76 14 -139q364 -5 881 22q-12 -90 0 -180q-494 28 -830 25q74 -137 231 -212t388 -75q226 0 423 75t404 253z" />
    <glyph glyph-name="trademark" unicode="&#x2122;" horiz-adv-x="2320" 
d="M45 1530q488 -11 975 0q-6 -101 0 -195q-175 42 -383 47q-10 -378 10 -661h-229q19 266 8 661q-210 -5 -381 -47q6 94 0 195zM2036 721q12 172 8 653q-94 -156 -275 -532h-172q-171 371 -262 526q-7 -377 11 -647h-213q9 154 9 405.5t-9 403.5q57 -8 162 -8t159 8
q15 -32 61 -138.5t90.5 -203.5t77.5 -152q59 97 246 494q55 -8 158 -8t160 8q-11 -153 -10 -407t14 -402h-215z" />
    <glyph glyph-name="arrowleft" unicode="&#x2190;" horiz-adv-x="1654" 
d="M1647 834v-359q-836 66 -1241 86l665 -504l-235 -237l-832 835l832 832l235 -238l-661 -495q524 20 1237 80z" />
    <glyph glyph-name="arrowup" unicode="&#x2191;" horiz-adv-x="1724" 
d="M1696 807l-238 -238l-497 668q25 -583 81 -1241h-358q66 832 86 1241l-506 -668l-235 236l835 833z" />
    <glyph glyph-name="arrowright" unicode="&#x2192;" horiz-adv-x="1703" 
d="M868 1452l832 -836l-830 -831l-237 240l665 495q-485 -18 -1239 -82l-2 361q691 -59 1239 -86l-665 504z" />
    <glyph glyph-name="arrowdown" unicode="&#x2193;" horiz-adv-x="1724" 
d="M1460 836l236 -236l-836 -833l-831 831l237 238l498 -668q-24 559 -82 1241h358q-66 -776 -86 -1243z" />
    <glyph glyph-name="arrowboth" unicode="&#x2194;" horiz-adv-x="2732" 
d="M4 686l819 801l236 -236l-637 -467q41 3 205 13.5t254 15.5t231 10.5t250 5.5q121 0 268 -5.5t230.5 -10.5t251.5 -16t196 -13l-635 467l236 236l819 -801l-817 -801l-240 238l639 459q-41 -2 -253.5 -16t-373 -20.5t-321.5 -6.5q-142 0 -301.5 7t-371 20t-267.5 16
l639 -459l-240 -238z" />
    <glyph glyph-name="arrowupdn" unicode="&#x2195;" horiz-adv-x="1667" 
d="M831 -324l-798 643l237 201l459 -514q-3 44 -13 166t-15 194t-10 178.5t-5 192.5q0 107 7 230t19.5 276t16.5 219l-459 -510l-237 199l798 641l803 -639l-235 -201l-467 510q3 -39 17.5 -211t21 -289t6.5 -225q0 -83 -5 -191t-10 -175.5t-15.5 -199t-12.5 -163.5l465 512
l235 -198z" />
    <glyph glyph-name="uni2196" unicode="&#x2196;" horiz-adv-x="1421" 
d="M1409 182l-254 -254q-177 209 -418.5 488t-396.5 450l113 -829h-334l2 1180h1175v-336l-823 120q177 -161 456 -405.5t480 -413.5z" />
    <glyph glyph-name="uni2197" unicode="&#x2197;" horiz-adv-x="1429" 
d="M123 1262h1180v-1178h-336l118 821q-351 -382 -819 -932l-254 252q561 478 940 817l-829 -114v334z" />
    <glyph glyph-name="uni2198" unicode="&#x2198;" horiz-adv-x="1392" 
d="M930 1194h336l-2 -1180h-1176v336l821 -119q-420 386 -934 820l252 254q574 -669 817 -938z" />
    <glyph glyph-name="uni2199" unicode="&#x2199;" horiz-adv-x="1429" 
d="M1417 1026q-524 -442 -940 -815l830 113v-334l-1180 2v1175h336l-121 -823q161 177 405.5 456t413.5 480z" />
    <glyph glyph-name="partialdiff" unicode="&#x2202;" horiz-adv-x="1310" 
d="M655 -51q-184 0 -317 77t-198.5 207.5t-65.5 298.5q0 266 149 427t393 161q87 0 161 -27.5t124.5 -71t89 -102t60 -116t32.5 -117.5h27q-1 159 -51.5 295.5t-132 229.5t-187 160t-214 99t-214.5 35v150q151 -9 280 -47t223 -96t168.5 -136t122.5 -162.5t80 -180t45 -185
t13 -180.5q0 -106 -16.5 -203t-59 -193t-107 -166t-168.5 -113.5t-237 -43.5zM659 90q50 0 101.5 12t107.5 43.5t99.5 78.5t71.5 125t28 175q0 103 -33.5 189t-91.5 142t-134.5 87t-162.5 31q-176 0 -295 -120.5t-119 -320.5q0 -201 123.5 -321.5t304.5 -120.5z" />
    <glyph glyph-name="emptyset" unicode="&#x2205;" horiz-adv-x="1865" 
d="M1577 1284q188 -213 188 -522q0 -172 -62 -319.5t-171.5 -251.5t-264.5 -163t-335 -59q-342 0 -572 195l-249 -139l198 188q-213 219 -213 549q0 229 106.5 408.5t297 279.5t432.5 100q182 0 336 -58t266 -165l219 125zM229 762q0 -135 45 -252.5t129 -204.5l988 940
l20 12q-193 166 -479 166q-204 0 -364.5 -84t-249.5 -235t-89 -342zM932 96q201 0 360.5 85t248.5 237t89 344q0 250 -151 428l-998 -954q189 -140 451 -140z" />
    <glyph glyph-name="product" unicode="&#x220f;" horiz-adv-x="1228" 
d="M1178 1350l-213 6q-9 -277 -8.5 -694.5t10.5 -661.5h-162q7 254 7.5 669t-5.5 689q-221 3 -442 0q-12 -288 -11 -697.5t13 -660.5h-162q9 253 9.5 666t-7.5 690l-217 -6q14 79 0 151q594 -17 1188 0q-14 -72 0 -151z" />
    <glyph glyph-name="summation" unicode="&#x2211;" horiz-adv-x="1228" 
d="M43 133l565 660l-565 688q12 77 0 155q503 -19 1012 0q-5 -26 -5 -76.5t5 -78.5q-427 16 -830 6l570 -694l-572 -666q426 -9 832 6q-5 -28 -5 -78t5 -75q-509 16 -1012 0q12 75 0 153z" />
    <glyph glyph-name="minus" unicode="&#x2212;" horiz-adv-x="1179" 
d="M1081 815q-14 -72 0 -151q-492 15 -983 0q14 79 0 151q490 -18 983 0z" />
    <glyph glyph-name="radical" unicode="&#x221a;" horiz-adv-x="1280" 
d="M334 -61q-167 484 -330 892q92 -16 172 -2q62 -210 248 -731q244 741 491 1567q216 -6 480 0q-14 -79 0 -154q-201 5 -361 0q-362 -1093 -508 -1572h-192z" />
    <glyph glyph-name="infinity" unicode="&#x221e;" horiz-adv-x="2230" 
d="M1681 1141q100 0 186 -32t151 -91t102 -150.5t37 -203.5q0 -136 -58 -251t-168.5 -186t-249.5 -71q-76 0 -144 20.5t-119.5 51t-108.5 86t-97.5 105t-99.5 128.5q-64 -96 -119.5 -162.5t-122 -121t-142 -81t-163.5 -26.5q-117 0 -212 41t-155.5 111.5t-93 162
t-32.5 193.5q0 142 64.5 252t172.5 167.5t240 57.5q155 0 286 -87t277 -276q118 171 266 267t303 96zM565 295q63 0 122 22.5t103 54t92 85t78 94.5t72 104l-6 9q-109 139 -154 187q-143 147 -294 153h-13q-151 0 -246.5 -94t-95.5 -246q0 -171 96 -270t246 -99zM1665 295
q149 0 242.5 98t93.5 271q0 162 -91.5 251t-244.5 89q-71 0 -137.5 -26.5t-126 -78t-105.5 -104.5t-102 -129l2 -2q15 -19 45 -60t47.5 -64.5t48.5 -60.5t54.5 -59t57.5 -48.5t65 -41.5t70.5 -25t80.5 -10z" />
    <glyph glyph-name="integral" unicode="&#x222b;" horiz-adv-x="673" 
d="M-98 -446q17 75 0 145q85 -41 164 -41q96 0 149 73.5t53 258.5l2 1249q0 90 21.5 163.5t55 119.5t77 77t86 43.5t84.5 12.5q38 0 74 -6t49.5 -10.5t54.5 -18.5q-17 -75 0 -145q-85 41 -164 41q-96 0 -149 -73.5t-53 -258.5l-3 -1250q0 -112 -31.5 -196.5t-81.5 -130
t-103.5 -67t-106.5 -21.5q-38 0 -74 6t-49.5 10.5t-54.5 18.5z" />
    <glyph glyph-name="approxequal" unicode="&#x2248;" horiz-adv-x="1228" 
d="M168 782q-5 72 21 144.5t90 126t153 53.5q58 0 107 -20.5t83 -49t64 -57.5t66 -49.5t75 -20.5q67 0 99 48t35 122h129q4 -55 -11 -111t-45.5 -104t-82.5 -78t-117 -30q-61 0 -111 20t-84.5 49t-65 58t-67 49t-76.5 20q-66 0 -97.5 -50t-35.5 -120h-129zM168 383
q-5 72 21 144.5t90 126t153 53.5q58 0 107 -21t83 -51t64 -60.5t66 -51.5t75 -21q67 0 99 50t35 128h129q5 -75 -21 -147.5t-88 -124.5t-147 -52q-61 0 -111 21t-84.5 51t-65 60.5t-67 51.5t-76.5 21q-66 0 -97.5 -52t-35.5 -126h-129z" />
    <glyph glyph-name="notequal" unicode="&#x2260;" horiz-adv-x="1228" 
d="M1176 838q-193 6 -392 6q-77 -128 -157 -269q207 -2 549 9q-8 -31 -8 -74.5t8 -77.5q-276 8 -627 8l-135 -250q-20 12 -59.5 34.5t-59.5 33.5q23 36 108 180l-305 -6q8 34 8 77.5t-8 74.5q290 -9 387 -9q133 225 158 271q-305 0 -545 -8q8 34 8 77t-8 74q273 -8 623 -8
l137 252q20 -11 59.5 -34t59.5 -34l-111 -182q51 1 155 3t155 3q-8 -31 -8 -74t8 -77z" />
    <glyph glyph-name="lessequal" unicode="&#x2264;" horiz-adv-x="1228" 
d="M1108 1188v-162q-206 -43 -807 -197q474 -127 807 -204v-166q-106 37 -241.5 80t-231.5 72t-260 77.5t-234 69.5q11 81 0 162q72 20 231.5 62.5t257 69t233.5 65t245 71.5zM135 322q489 -17 975 0q-14 -71 0 -152q-487 17 -975 0q14 81 0 152z" />
    <glyph glyph-name="greaterequal" unicode="&#x2265;" horiz-adv-x="1228" 
d="M141 1188q109 -33 245 -71.5t233.5 -65t257 -69t231.5 -62.5q-11 -81 0 -162q-70 -21 -234 -69.5t-260 -77.5t-231.5 -72t-241.5 -80v166q333 77 807 204q-601 154 -807 197v162zM1114 322q-14 -72 0 -152q-488 17 -975 0q14 80 0 152q486 -17 975 0z" />
    <glyph glyph-name="lozenge" unicode="&#x25ca;" horiz-adv-x="1198" 
d="M115 631q196 351 409 794q82 -11 166 0q28 -64 61 -135t59.5 -126t67.5 -138t63 -127l69 -138l65 -130q-11 -22 -64.5 -128.5t-70.5 -141.5t-61.5 -124.5t-68.5 -140.5t-58 -123.5t-62 -136.5q-84 11 -166 0q-217 450 -409 795zM287 631q42 -94 89.5 -191.5t125.5 -250.5
t100 -197q26 54 97.5 197.5t118.5 244t87 197.5q-40 97 -87 197.5t-118.5 244t-97.5 197.5q-22 -44 -100 -197t-125.5 -250.5t-89.5 -191.5z" />
    <glyph glyph-name="i.loclTRK" horiz-adv-x="593" 
d="M283 1290q-205 0 -205 142q0 141 205 141q223 0 223 -141q0 -142 -223 -142zM117 1102q203 -33 360 0q-39 -551 0 -1102h-360q36 547 0 1102z" />
    <glyph glyph-name="uni0308.case" 
d="M-901 1698q-91 0 -136.5 30.5t-45.5 96.5q0 127 182 127q199 0 199 -127q0 -67 -49 -97t-150 -30zM-289 1698q-91 0 -136.5 30.5t-45.5 96.5q0 127 182 127q199 0 199 -127q0 -67 -48.5 -97t-150.5 -30z" />
    <glyph glyph-name="uni0307.case" 
d="M-313 1686q-205 0 -205 143q0 141 205 141q221 0 221 -141q0 -143 -221 -143z" />
    <glyph glyph-name="gravecomb.case" 
d="M-416 1698q-137 92 -504 332q65 -12 224.5 -12t224.5 12q181 -223 305 -332q-31 2 -125 2t-125 -2z" />
    <glyph glyph-name="acutecomb.case" 
d="M-754 1698q44 39 92 90t123 138.5t90 103.5q64 -12 223.5 -12t225.5 12q-174 -107 -504 -332q-31 3 -125 3t-125 -3z" />
    <glyph glyph-name="uni030B.case" 
d="M-1098 1702q128 160 236 330q49 -6 152.5 -6t154.5 6q-213 -205 -311 -330q-32 3 -113 3t-119 -3zM-600 1702q126 161 233 330q49 -6 153.5 -6t154.5 6l-49.5 -49.5l-58 -58t-53.5 -54.5t-58 -60.5t-48 -53.5t-45 -54q-32 3 -112 3t-117 -3z" />
    <glyph glyph-name="uni0302.case" 
d="M-1110 1710q27 22 97.5 80.5t100 83.5t79 69.5t92.5 86.5q148 -6 286 0q119 -112 381 -320q-154 12 -317 0q-125 139 -203 209q-77 -71 -194 -209q-163 13 -322 0z" />
    <glyph glyph-name="uni030C.case" 
d="M-1104 2030q162 -13 328 0q11 -13 37 -43l39 -45t34 -38t41 -42.5t41 -38.5q19 16 38.5 34t32.5 31t35.5 36t30.5 32t35 38t33 36q164 -12 322 0q-26 -20 -85 -66t-84.5 -66.5t-69 -56t-78.5 -66.5t-72 -65q-136 9 -281 0q-23 22 -47 44.5t-41 38.5t-47 41t-42 35.5
t-49 40t-44.5 36t-53.5 43t-53 41.5z" />
    <glyph glyph-name="uni0306.case" 
d="M-535 1690q-201 0 -325.5 97t-126.5 243h233q2 -73 59.5 -122.5t159.5 -49.5q104 0 162 49.5t60 122.5h247q-1 -99 -62.5 -177t-168 -120.5t-238.5 -42.5z" />
    <glyph glyph-name="uni030A.case" 
d="M-397 1632q-151 0 -232.5 62t-81.5 176q0 113 82 175t232 62q147 0 227 -61t80 -176q0 -114 -80.5 -176t-226.5 -62zM-397 1751q74 0 114.5 30t40.5 87t-41 89t-114 32q-75 0 -117.5 -32t-42.5 -89q0 -56 42 -86.5t118 -30.5z" />
    <glyph glyph-name="tildecomb.case" 
d="M-420 1739q-71 0 -144.5 17t-126 37t-127 37t-147.5 17q-170 0 -268 -108q-1 5 -1 17t-1 18q12 64 33.5 112t59 88t97 61t140.5 21q69 0 139 -17t120.5 -38t125 -38t151.5 -17q172 0 271 104q2 -10 2 -31q-12 -62 -33 -109.5t-57.5 -87.5t-95.5 -61.5t-138 -21.5z" />
    <glyph glyph-name="uni0304.case" 
d="M-1130 1710q6 34 6 91.5t-6 92.5q515 -20 1046 0q-6 -35 -6 -92.5t6 -91.5q-530 17 -1046 0z" />
    <glyph glyph-name="uni0327.case" 
d="M-520 -532q-272 0 -477 104q15 80 0 154q92 -62 210 -94.5t242 -32.5q226 0 226 98q0 52 -82.5 80t-284.5 28l61 207h176l-53 -164q109 5 190.5 -6.5t128.5 -37.5t69.5 -59.5t23.5 -76.5q0 -200 -430 -200z" />
    <glyph glyph-name="uni0328.case" 
d="M-197 27l31 -27q-155 -17 -236 -54.5t-81 -113.5q0 -38 17.5 -66t47.5 -43.5t59.5 -23t61.5 -10.5l4 -195q-123 -14 -226.5 17t-166 103t-62.5 173q0 82 46 138.5t122.5 80.5t176 31t206.5 -10z" />
    </font>
</defs>
</svg>
