<?xml version="1.0" encoding="utf-8"?>
<!-- Generator: Adobe Illustrator 21.1.0, SVG Export Plug-In . SVG Version: 6.00 Build 0)  -->
<svg version="1.1" xmlns="http://www.w3.org/2000/svg" xmlns:xlink="http://www.w3.org/1999/xlink" x="0px" y="0px"
	 viewBox="0 0 1366 1366" style="enable-background:new 0 0 1366 1366;" xml:space="preserve">
<g id="Layer_2">
	<path d="M1308,683c0,345.2-279.8,625-625,625S58,1028.2,58,683S337.8,58,683,58S1308,337.8,1308,683z M1101.4,397.3
		c0-6.5,0.4-12.1-0.1-17.7c-0.6-6.2-2.2-12.2-3.7-20.2c-88.3,8.7-170.1,32.8-245.3,77.6c-75.4,44.9-133.1,107.2-176.2,185.1
		c-13.9-33.4-26.6-48-58-58.3c-22.9-7.5-47.1-13.1-71.2-15.2c-62.4-5.6-123.7-0.7-179.6,31.5c-40.2,23.1-59.4,59.1-59.1,105.1
		c0.4,47.9,22.7,82.1,66.7,101.4c19.3,8.5,39.1,15.8,58.5,24.3c16.3,7.2,33.2,13.8,48.2,23.3c37.4,23.6,41.7,71,7,98.5
		c-15.6,12.4-37.6,17.1-57.2,23.8c-12.1,4.2-18.2-1.5-22.1-14.6c-6.5-21.6-14.2-43.5-25.7-62.7c-24.7-41.1-64.8-50.8-107.5-29.2
		c-36.4,18.4-46.7,55.3-17.7,84.1c20.4,20.3,47.9,37.5,75.3,45.6c62.8,18.6,127.3,12.4,190.7-1.2c59-12.7,98.2-47.9,116.6-105.8
		c1.2-3.8,3.1-7.3,4.9-11.5c40.2,76.3,74,110.3,137,121.6c38.4,6.9,79.5,7.1,118.3,2.1c109.7-14.1,197-92.5,223.6-191.6
		c29.4-109.2-53.6-203.5-143.6-205.5c-56.3-1.2-108,6.4-155.1,39.4C870.8,494.5,967.7,424,1101.4,397.3z M637.9,795.6
		c-31.1-50.6-79.3-68.2-126.9-87.3c-16.5-6.6-32.7-14.8-47.3-24.8c-31.4-21.3-35.4-54.3-7.4-80.1c15.1-14,36.2-21.6,55.1-32.5
		c50,117.4,66.2,129.5,142,108.3C648.5,716.6,643.6,753.2,637.9,795.6z M804.4,919.8c7.9,27.2,24.6,34.7,52.8,31.6
		c27.7-3,48.6-18.3,64.5-39.8c43.7-59.3,57.8-126.6,47.9-198.4c-6-43.7-38.5-69.2-79-67.9c-44.9,1.4-84.9,32.8-90.7,72.4
		c-4.9,33.7-8.8,60.4-8.8,109.9C791.1,877.2,795,887.5,804.4,919.8z"/>
</g>
<g id="Layer_3">
</g>
</svg>
